<svg width="167" height="65" viewBox="0 0 167 65" fill="none" xmlns="http://www.w3.org/2000/svg">
<path d="M79.148 45.306C78.3093 45.306 77.7087 45.1813 77.346 44.932C77.006 44.6827 76.7907 44.354 76.7 43.946C76.6093 43.538 76.564 43.1187 76.564 42.688V24.124C76.564 23.6933 76.6093 23.2853 76.7 22.9C76.7907 22.492 77.0173 22.1633 77.38 21.914C77.7427 21.6647 78.3433 21.54 79.182 21.54H86.152C87.104 21.54 88.056 21.71 89.008 22.05C89.9827 22.39 90.878 22.9227 91.694 23.648C92.5327 24.3507 93.2013 25.2233 93.7 26.266C94.2213 27.3087 94.482 28.5327 94.482 29.938C94.482 31.3207 94.2213 32.5333 93.7 33.576C93.2013 34.6187 92.5327 35.4913 91.694 36.194C90.878 36.874 89.9827 37.3953 89.008 37.758C88.0333 38.098 87.07 38.268 86.118 38.268H81.766V42.722C81.766 43.1527 81.7207 43.572 81.63 43.98C81.5393 44.3653 81.3127 44.6827 80.95 44.932C80.5873 45.1813 79.9867 45.306 79.148 45.306ZM81.766 33.1H86.152C86.6507 33.1 87.138 32.998 87.614 32.794C88.1127 32.5673 88.5207 32.216 88.838 31.74C89.178 31.264 89.348 30.652 89.348 29.904C89.348 29.2693 89.212 28.714 88.94 28.238C88.668 27.762 88.2827 27.388 87.784 27.116C87.308 26.844 86.7527 26.708 86.118 26.708H81.766V33.1ZM105.113 45.612C103.526 45.612 102.155 45.3513 100.999 44.83C99.8658 44.3087 98.9364 43.6287 98.2111 42.79C97.4858 41.9287 96.9418 40.9767 96.5791 39.934C96.2391 38.8913 96.0691 37.8487 96.0691 36.806C96.0691 35.106 96.4544 33.5987 97.2251 32.284C97.9958 30.9693 99.0611 29.938 100.421 29.19C101.781 28.4193 103.345 28.034 105.113 28.034C106.428 28.034 107.561 28.2493 108.513 28.68C109.488 29.088 110.281 29.632 110.893 30.312C111.528 30.9693 111.992 31.6833 112.287 32.454C112.604 33.2247 112.763 33.9613 112.763 34.664C112.763 35.9107 112.457 36.84 111.845 37.452C111.256 38.0413 110.496 38.336 109.567 38.336H101.475C101.52 38.9253 101.724 39.424 102.087 39.832C102.472 40.24 102.948 40.5573 103.515 40.784C104.082 41.0107 104.682 41.124 105.317 41.124C105.861 41.124 106.337 41.1013 106.745 41.056C107.153 40.988 107.504 40.9087 107.799 40.818C108.094 40.7047 108.366 40.6027 108.615 40.512C108.864 40.3987 109.08 40.308 109.261 40.24C109.465 40.172 109.658 40.1267 109.839 40.104C110.179 40.0813 110.485 40.1833 110.757 40.41C111.052 40.614 111.312 40.9313 111.539 41.362C111.698 41.6113 111.8 41.8493 111.845 42.076C111.913 42.3027 111.947 42.5293 111.947 42.756C111.947 43.3 111.664 43.7873 111.097 44.218C110.553 44.6487 109.771 44.9887 108.751 45.238C107.754 45.4873 106.541 45.612 105.113 45.612ZM101.475 35.548H106.847C107.21 35.548 107.47 35.4913 107.629 35.378C107.81 35.242 107.901 34.9927 107.901 34.63C107.901 34.222 107.776 33.8707 107.527 33.576C107.278 33.2587 106.938 33.0207 106.507 32.862C106.099 32.6807 105.623 32.59 105.079 32.59C104.376 32.59 103.753 32.726 103.209 32.998C102.665 33.27 102.234 33.6327 101.917 34.086C101.622 34.5393 101.475 35.0267 101.475 35.548ZM123.349 45.306C122.193 45.306 121.195 45.1813 120.357 44.932C119.541 44.6827 118.861 44.2973 118.317 43.776C117.773 43.2547 117.365 42.5973 117.093 41.804C116.843 40.988 116.719 40.0247 116.719 38.914V25.11C116.719 24.6567 116.753 24.2487 116.821 23.886C116.911 23.5233 117.138 23.2287 117.501 23.002C117.863 22.7527 118.453 22.628 119.269 22.628C120.085 22.628 120.674 22.7527 121.037 23.002C121.399 23.2513 121.615 23.5687 121.683 23.954C121.773 24.3393 121.819 24.7587 121.819 25.212V38.71C121.819 39.0727 121.841 39.3787 121.887 39.628C121.955 39.8547 122.045 40.0247 122.159 40.138C122.272 40.2513 122.431 40.3307 122.635 40.376C122.839 40.4213 123.088 40.444 123.383 40.444C123.881 40.444 124.323 40.4893 124.709 40.58C125.094 40.6707 125.389 40.8747 125.593 41.192C125.819 41.5093 125.933 42.042 125.933 42.79C125.933 43.606 125.808 44.1953 125.559 44.558C125.309 44.9207 124.981 45.136 124.573 45.204C124.187 45.272 123.779 45.306 123.349 45.306ZM115.665 28.578H119.405L124.097 28.442C124.527 28.442 124.935 28.4873 125.321 28.578C125.706 28.646 126.023 28.8613 126.273 29.224C126.522 29.5867 126.647 30.1873 126.647 31.026C126.647 31.7967 126.522 32.3633 126.273 32.726C126.046 33.0887 125.74 33.3267 125.355 33.44C124.969 33.5307 124.55 33.576 124.097 33.576L119.643 33.474H115.529C114.871 33.4513 114.407 33.2587 114.135 32.896C113.885 32.5107 113.761 31.876 113.761 30.992C113.761 30.176 113.919 29.5753 114.237 29.19C114.554 28.782 115.03 28.578 115.665 28.578ZM130.425 45.374C129.7 45.374 129.088 45.136 128.589 44.66C128.091 44.1613 127.841 43.5267 127.841 42.756C127.841 42.484 127.875 42.2347 127.943 42.008C128.011 41.7813 128.102 41.6 128.215 41.464L138.687 26.572H130.561C130.131 26.572 129.7 26.538 129.269 26.47C128.861 26.402 128.521 26.198 128.249 25.858C127.977 25.4953 127.841 24.9173 127.841 24.124C127.841 23.2627 127.966 22.662 128.215 22.322C128.465 21.9593 128.793 21.7327 129.201 21.642C129.609 21.5513 130.029 21.506 130.459 21.506H143.583C144.309 21.506 144.909 21.7667 145.385 22.288C145.884 22.7867 146.133 23.3987 146.133 24.124C146.133 24.4187 146.099 24.6907 146.031 24.94C145.963 25.1667 145.861 25.3707 145.725 25.552L135.321 40.342H144.059C144.513 40.342 144.932 40.3873 145.317 40.478C145.703 40.546 146.009 40.7613 146.235 41.124C146.485 41.464 146.609 42.0193 146.609 42.79C146.609 43.6287 146.485 44.2293 146.235 44.592C145.986 44.9547 145.669 45.17 145.283 45.238C144.898 45.3287 144.467 45.374 143.991 45.374H130.425ZM156.804 45.578C155.739 45.578 154.673 45.374 153.608 44.966C152.565 44.5353 151.613 43.9347 150.752 43.164C149.891 42.3933 149.211 41.4753 148.712 40.41C148.213 39.322 147.964 38.1207 147.964 36.806C147.964 35.582 148.191 34.4487 148.644 33.406C149.097 32.3407 149.732 31.4 150.548 30.584C151.364 29.768 152.293 29.1333 153.336 28.68C154.401 28.204 155.535 27.966 156.736 27.966C158.368 27.966 159.841 28.3627 161.156 29.156C162.493 29.9267 163.559 30.9807 164.352 32.318C165.145 33.6553 165.542 35.14 165.542 36.772C165.542 38.1547 165.281 39.39 164.76 40.478C164.261 41.5433 163.581 42.4613 162.72 43.232C161.881 44.0027 160.941 44.592 159.898 45C158.878 45.3853 157.847 45.578 156.804 45.578ZM156.736 40.444C157.28 40.444 157.835 40.308 158.402 40.036C158.969 39.764 159.445 39.356 159.83 38.812C160.215 38.268 160.408 37.5767 160.408 36.738C160.408 36.0127 160.249 35.378 159.932 34.834C159.615 34.29 159.173 33.8707 158.606 33.576C158.062 33.2587 157.427 33.1 156.702 33.1C156.022 33.1 155.41 33.2587 154.866 33.576C154.345 33.8933 153.914 34.3353 153.574 34.902C153.257 35.446 153.098 36.0693 153.098 36.772C153.098 37.588 153.279 38.2793 153.642 38.846C154.027 39.39 154.503 39.798 155.07 40.07C155.637 40.3193 156.192 40.444 156.736 40.444Z" fill="black"/>
<circle cx="32.5" cy="32.5" r="32.5" transform="matrix(-1 0 0 1 65 0)" fill="#FFD64E"/>
<g clip-path="url(#clip0_1_6806)">
<path d="M31.2362 23.97V24.0087C31.2362 24.7888 31.1 25.5375 30.8512 26.2325L30.8662 26.1863C30.605 26.9062 30.1838 27.515 29.6413 27.9887L29.6363 27.9925C29.11 28.4662 28.41 28.755 27.6425 28.755C27.6225 28.755 27.6025 28.755 27.5825 28.755H27.585C26.5312 28.7475 25.5787 28.32 24.885 27.6313C24.105 26.9138 23.4925 26.0287 23.1013 25.0325L23.085 24.985C22.7263 24.1125 22.5125 23.1012 22.4987 22.0412V22.0363C22.4987 22.025 22.4987 22.0113 22.4987 21.9975C22.4987 21.2175 22.635 20.4688 22.8837 19.7738L22.8687 19.82C23.13 19.1 23.5512 18.4913 24.0938 18.0175L24.0988 18.0138C24.625 17.54 25.3263 17.25 26.0938 17.25C26.1163 17.25 26.1388 17.25 26.1612 17.2513H26.1575C27.2113 17.2575 28.165 17.685 28.8575 18.375C29.6287 19.0912 30.2375 19.9737 30.6275 20.9637L30.6438 21.0113C31.005 21.8863 31.2188 22.9025 31.23 23.9663V23.97H31.2362ZM24.555 33.405C24.5562 33.4363 24.5562 33.4725 24.5562 33.51C24.5562 34.4875 24.2487 35.3925 23.725 36.135L23.735 36.12C23.2438 36.8212 22.4387 37.275 21.5287 37.275C21.4875 37.275 21.4462 37.2738 21.405 37.2725H21.4113C20.345 37.2587 19.3763 36.85 18.6437 36.185L18.6475 36.1887C17.0675 34.8275 16.0562 32.8425 16.0013 30.6212V30.6112C16 30.5813 16 30.545 16 30.5088C16 29.5275 16.3075 28.6175 16.8313 27.8713L16.8213 27.8862C17.31 27.1788 18.1163 26.7213 19.03 26.7213C19.07 26.7213 19.1112 26.7225 19.1512 26.7238H19.145C20.2112 26.7375 21.18 27.1463 21.9125 27.8113L21.9088 27.8075C23.4913 29.1763 24.5013 31.1687 24.555 33.3988V33.4075V33.405ZM32.2563 32.8775C34.1575 32.9862 35.8763 33.685 37.2537 34.7913L37.2362 34.7775C39.01 36.0438 40.4962 37.58 41.67 39.3425L41.71 39.4062C42.74 40.785 43.3988 42.495 43.5088 44.3525L43.51 44.3775C43.5112 44.41 43.5125 44.4487 43.5125 44.4862C43.5125 44.9912 43.3888 45.4688 43.17 45.8875L43.1775 45.8713C42.9625 46.26 42.6375 46.5638 42.2425 46.745L42.23 46.75C41.8662 46.9237 41.4425 47.06 41 47.1362L40.97 47.14C40.55 47.2088 40.0675 47.2475 39.575 47.2475C39.5438 47.2475 39.5125 47.2475 39.4813 47.2475H39.4862C38.1437 47.155 36.8975 46.84 35.7512 46.34L35.8237 46.3687C34.78 45.9062 33.5688 45.5925 32.2987 45.4925L32.26 45.49C30.8813 45.5925 29.6037 45.9025 28.4162 46.3888L28.5 46.3588C27.3488 46.83 26.0138 47.1413 24.6187 47.2263L24.5837 47.2275C22.1954 47.2292 21.0012 46.2796 21.0012 44.3787C21.0612 42.9925 21.46 41.7113 22.1163 40.6012L22.095 40.6388C22.8663 39.2025 23.7712 37.9663 24.825 36.8738L24.82 36.8787C25.8763 35.7775 27.08 34.83 28.405 34.0675L28.4825 34.0262C29.5563 33.3512 30.8488 32.93 32.2362 32.875H32.2513L32.2563 32.8775ZM36.925 28.7563C36.9075 28.7563 36.8875 28.7563 36.8675 28.7563C36.1 28.7563 35.4 28.4663 34.8713 27.9913L34.8738 27.9938C34.3263 27.515 33.9037 26.9075 33.6537 26.2162L33.6437 26.1863C33.4088 25.5375 33.2725 24.7888 33.2725 24.0087C33.2725 23.995 33.2725 23.9813 33.2725 23.9675V23.97C33.2838 22.9012 33.4975 21.8863 33.8787 20.9562L33.8587 21.0113C34.2662 19.9725 34.8738 19.0912 35.6413 18.3787L35.6462 18.375C36.3388 17.6862 37.2925 17.2588 38.345 17.2525H38.3463H38.4038C39.1713 17.2525 39.8713 17.5425 40.4 18.0175L40.3975 18.015C40.945 18.4937 41.3675 19.1012 41.6175 19.7925L41.6275 19.8225C41.8663 20.475 42.0037 21.2288 42.0037 22.0138V22.0388V22.0375C41.9912 23.1025 41.7763 24.115 41.3975 25.0412L41.4175 24.9862C41.01 26.03 40.3975 26.915 39.6225 27.6275L39.6175 27.6325C38.9237 28.3187 37.9713 28.7462 36.9188 28.7525H36.9175L36.925 28.7563ZM45.3625 26.7262C45.3975 26.725 45.4375 26.7238 45.4775 26.7238C46.3913 26.7238 47.1975 27.1812 47.68 27.88L47.6863 27.8888C48.2 28.6212 48.5075 29.53 48.5075 30.5125C48.5075 30.5487 48.5075 30.5837 48.5062 30.62V30.615C48.4512 32.8463 47.44 34.8312 45.87 36.1825L45.86 36.1912C45.1313 36.8525 44.1625 37.2613 43.0988 37.275H43.0963C43.0613 37.2763 43.02 37.2775 42.9788 37.2775C42.0688 37.2775 41.2638 36.825 40.7787 36.1312L40.7725 36.1225C40.2588 35.395 39.9512 34.4888 39.9512 33.5125C39.9512 33.4762 39.9513 33.4387 39.9525 33.4025V33.4075C40.0063 31.1687 41.0163 29.1762 42.5887 27.815L42.5987 27.8062C43.3275 27.1475 44.2937 26.7387 45.355 26.725H45.3575L45.3625 26.7262Z" fill="black"/>
</g>
<defs>
<clipPath id="clip0_1_6806">
<rect width="32.5" height="32.5" fill="white" transform="translate(16 16)"/>
</clipPath>
</defs>
</svg>
