<?xml version="1.0" encoding="UTF-8"?>
<svg id="Layer_1" xmlns="http://www.w3.org/2000/svg" version="1.1" viewBox="0 0 2000 2000">
  <!-- Generator: Adobe Illustrator 29.2.1, SVG Export Plug-In . SVG Version: 2.1.0 Build 116)  -->
  <defs>
    <style>
      .st0 {
        fill: #6b92ff;
      }

      .st1 {
        fill: #b4bcbe;
      }

      .st2 {
        fill: #b3caff;
      }

      .st3 {
        fill: #fff;
      }

      .st4 {
        fill: #536669;
      }

      .st5 {
        fill: #839194;
      }

      .st6 {
        fill: #99b4ff;
      }

      .st7 {
        fill: #ed637f;
      }

      .st8 {
        fill: #130f40;
      }

      .st9 {
        fill: #cc294a;
      }

      .st10 {
        fill: #374eab;
      }

      .st11 {
        fill: #3b5054;
      }

      .st12 {
        fill: #e6e8e9;
      }

      .st13 {
        fill: #0b2429;
      }

      .st14 {
        fill: #213a3e;
      }

      .st15 {
        fill: #ffb3cc;
      }

      .st16 {
        fill: #ced3d3;
      }

      .st17 {
        fill: #9ba6a8;
      }

      .st18 {
        fill: #6b7d80;
      }
    </style>
  </defs>
  <g>
    <g>
      <path class="st2" d="M761.92,514.49l95.69-224.58-95.69,224.58Z"/>
      <path class="st12" d="M862.56,424.98c-19.23,45.12-57,76.66-100.64,89.51-20.96-40.38-24.39-89.46-5.16-134.59,19.23-45.12,57-76.66,100.64-89.51,20.96,40.38,24.39,89.46,5.16,134.59Z"/>
      <path class="st16" d="M761.92,514.49c-20.96-40.38-24.39-89.46-5.16-134.59,19.23-45.12,57-76.66,100.64-89.51l-95.48,224.09Z"/>
      <path class="st2" d="M761.92,514.49l178.88-71.99-178.88,71.99Z"/>
      <path class="st16" d="M834.2,436.44c-35.94,14.46-61.44,43.79-72.29,78.05,31.55,17.2,70.26,20.68,106.2,6.22,35.94-14.46,61.44-43.79,72.29-78.05-31.55-17.2-70.26-20.68-106.2-6.22Z"/>
      <path class="st12" d="M761.92,514.49c31.55,17.2,70.26,20.68,106.2,6.22,35.94-14.46,61.44-43.79,72.29-78.05l-178.49,71.83Z"/>
    </g>
    <path class="st4" d="M1483.52,504.93h-39c-.35-4.79-.93-9.51-1.8-14.14l37.61-10.08c4.83-1.29,7.69-6.25,6.4-11.08l-.2-.74c-1.29-4.83-6.25-7.69-11.08-6.4l-37.65,10.09c-1.58-4.51-3.41-8.9-5.47-13.16l33.77-19.5c4.33-2.5,5.81-8.03,3.31-12.36l-.38-.66c-2.5-4.33-8.03-5.81-12.36-3.31l-33.68,19.44c-2.69-3.94-5.65-7.67-8.75-11.27l27.56-27.56c3.53-3.53,3.53-9.26,0-12.79l-.54-.54c-3.53-3.53-9.26-3.53-12.79,0l-27.56,27.56c-3.6-3.1-7.33-6.06-11.27-8.75l19.44-33.68c2.5-4.33,1.02-9.86-3.31-12.36l-.66-.38c-4.33-2.5-9.86-1.02-12.36,3.31l-19.5,33.77c-4.26-2.06-8.65-3.89-13.16-5.47l10.09-37.65c1.29-4.83-1.57-9.79-6.4-11.08l-.74-.2c-4.83-1.29-9.79,1.57-11.08,6.4l-10.08,37.61c-4.63-.87-9.35-1.44-14.14-1.8v-39c0-5-4.05-9.05-9.05-9.05h-.76c-5,0-9.05,4.05-9.05,9.05v39c-4.79.35-9.52.93-14.14,1.8l-10.08-37.61c-1.29-4.83-6.25-7.69-11.08-6.4l-.74.2c-4.83,1.29-7.69,6.25-6.4,11.08l10.09,37.65c-4.51,1.58-8.9,3.41-13.16,5.47l-19.5-33.77c-2.5-4.33-8.03-5.81-12.36-3.31l-.66.38c-4.33,2.5-5.81,8.03-3.31,12.36l19.44,33.68c-3.94,2.69-7.67,5.65-11.27,8.75l-27.56-27.56c-3.53-3.53-9.26-3.53-12.79,0l-.54.54c-3.53,3.53-3.53,9.26,0,12.79l27.56,27.56c-3.1,3.6-6.06,7.33-8.75,11.27l-33.68-19.44c-4.33-2.5-9.86-1.02-12.36,3.31l-.38.66c-2.5,4.33-1.02,9.86,3.31,12.36l33.77,19.5c-2.06,4.26-3.89,8.65-5.47,13.16l-37.65-10.09c-4.83-1.29-9.79,1.57-11.08,6.4l-.2.74c-1.29,4.83,1.57,9.79,6.4,11.08l37.61,10.08c-.87,4.63-1.44,9.35-1.8,14.14h-39c-5,0-9.05,4.05-9.05,9.05v.76c0,5,4.05,9.05,9.05,9.05h39c.35,4.79.93,9.52,1.8,14.14l-37.61,10.08c-4.83,1.29-7.69,6.25-6.4,11.08l.2.73c1.29,4.83,6.25,7.69,11.08,6.4l37.65-10.09c1.58,4.51,3.41,8.9,5.47,13.16l-33.77,19.5c-4.33,2.5-5.81,8.03-3.31,12.36l.38.66c2.5,4.33,8.03,5.81,12.36,3.31l33.68-19.44c2.69,3.94,5.65,7.67,8.75,11.27l-27.56,27.56c-3.53,3.53-3.53,9.26,0,12.79l.54.54c3.53,3.53,9.26,3.53,12.79,0l27.56-27.56c3.6,3.1,7.33,6.06,11.27,8.75l-19.44,33.68c-2.5,4.33-1.02,9.86,3.31,12.36l.66.38c4.33,2.5,9.86,1.02,12.36-3.31l19.5-33.77c4.26,2.06,8.65,3.89,13.16,5.47l-10.09,37.65c-1.29,4.83,1.57,9.79,6.4,11.08l.74.2c4.83,1.29,9.79-1.57,11.08-6.4l10.08-37.61c4.63.87,9.35,1.44,14.14,1.8v39c0,5,4.05,9.05,9.05,9.05h.76c5,0,9.05-4.05,9.05-9.05v-39c4.79-.35,9.51-.93,14.14-1.8l10.08,37.61c1.29,4.83,6.25,7.69,11.08,6.4l.74-.2c4.83-1.29,7.69-6.25,6.4-11.08l-10.09-37.65c4.51-1.58,8.9-3.41,13.16-5.47l19.5,33.77c2.5,4.33,8.03,5.81,12.36,3.31l.66-.38c4.33-2.5,5.81-8.03,3.31-12.36l-19.44-33.68c3.94-2.69,7.67-5.65,11.27-8.75l27.56,27.56c3.53,3.53,9.26,3.53,12.79,0l.54-.54c3.53-3.53,3.53-9.26,0-12.79l-27.56-27.56c3.1-3.6,6.06-7.33,8.75-11.27l33.68,19.44c4.33,2.5,9.86,1.02,12.36-3.31l.38-.66c2.5-4.33,1.02-9.86-3.31-12.36l-33.77-19.5c2.06-4.26,3.89-8.65,5.47-13.16l37.65,10.09c4.83,1.29,9.79-1.57,11.08-6.4l.2-.73c1.29-4.83-1.57-9.79-6.4-11.08l-37.61-10.08c.87-4.63,1.45-9.35,1.8-14.14h39c5,0,9.05-4.05,9.05-9.05v-.76c0-5-4.05-9.05-9.05-9.05ZM1423.34,514.36c0,15.77-3.57,30.66-9.8,44.08l-24.73-14.28c3.88-9.16,6.02-19.23,6.02-29.8,0-39.05-29.28-71.2-67.07-75.86v-28.67c53.57,4.77,95.58,49.72,95.58,104.53ZM1347.42,514.36c0,16.06-13.02,29.08-29.08,29.08s-29.08-13.02-29.08-29.08,13.02-29.08,29.08-29.08,29.08,13.02,29.08,29.08ZM1308.91,409.83v28.67c-37.79,4.65-67.07,36.81-67.07,75.86,0,10.57,2.15,20.64,6.02,29.8l-24.74,14.28c-6.22-13.42-9.8-28.32-9.8-44.08,0-54.81,42.01-99.76,95.58-104.53ZM1318.33,619.36c-35.48,0-66.79-17.65-85.79-44.59l24.84-14.34c13.97,18.45,36.04,30.42,60.96,30.42s46.99-11.97,60.96-30.42l24.84,14.34c-19.01,26.94-50.31,44.59-85.79,44.59Z"/>
    <g>
      <g>
        <g>
          <path class="st4" d="M460.61,517.54h1078.77c24.12,0,43.71,19.58,43.71,43.71v703.04H416.91v-703.04c0-24.12,19.58-43.71,43.71-43.71Z"/>
          <path d="M1583.09,1264.79H416.91c-.28,0-.5-.22-.5-.5v-703.04c0-24.38,19.83-44.21,44.21-44.21h1078.77c24.38,0,44.21,19.83,44.21,44.21v703.04c0,.28-.22.5-.5.5ZM417.41,1263.79h1165.19v-702.54c0-23.82-19.38-43.21-43.21-43.21H460.61c-23.82,0-43.21,19.38-43.21,43.21v702.54Z"/>
        </g>
        <g>
          <path class="st12" d="M670.33,335.07h675.8v1111.69h-675.8c-9.08,0-16.46-7.38-16.46-16.46V351.53c0-9.08,7.38-16.46,16.46-16.46Z" transform="translate(1890.92 -109.08) rotate(90)"/>
          <path class="st8" d="M1555.85,1237.54H444.15c-.28,0-.5-.22-.5-.5v-675.8c0-9.35,7.61-16.96,16.96-16.96h1078.77c9.35,0,16.96,7.61,16.96,16.96v675.8c0,.28-.22.5-.5.5ZM444.65,1236.54h1110.69v-675.3c0-8.8-7.16-15.96-15.96-15.96H460.61c-8.8,0-15.96,7.16-15.96,15.96v675.3Z"/>
        </g>
      </g>
      <g>
        <path class="st4" d="M1799.33,1583.28H200.62l-37.6,14.84c0,14.55,18.73,47.99,42.63,47.99h1588.65c23.9,0,42.63-33.44,42.63-47.99l-37.6-14.84Z"/>
        <path class="st8" d="M1794.3,1646.61H205.65c-14.41,0-25.41-11.74-30.68-18.74-7.33-9.73-12.45-21.96-12.45-29.75,0-.21.13-.39.32-.46l37.6-14.84c.06-.02.12-.04.18-.04h1598.71c.06,0,.12.01.18.04l37.6,14.84c.19.08.32.26.32.46,0,7.79-5.12,20.02-12.45,29.75-5.27,7-16.27,18.74-30.68,18.74ZM163.52,1598.46c.15,7.6,5.14,19.38,12.25,28.81,5.16,6.85,15.91,18.34,29.88,18.34h1588.65c23.7,0,41.84-33.17,42.13-47.15l-37.19-14.68H200.72l-37.2,14.68Z"/>
      </g>
      <g>
        <path class="st17" d="M175.7,1575.5l241.21-311.21h1166.19l241.21,311.21c16.91,16.91,16.91,30.61,0,30.61H175.7c-16.91,0-16.91-13.71,0-30.61Z"/>
        <path class="st8" d="M1824.3,1606.61H175.7c-6.59,0-10.91-2.04-12.52-5.91-2.45-5.93,2.08-15.47,12.14-25.54l241.19-311.18c.09-.12.24-.19.4-.19h1166.19c.15,0,.3.07.4.19l241.21,311.21c10.03,10.03,14.58,19.58,12.12,25.51-1.6,3.87-5.93,5.91-12.52,5.91ZM417.15,1264.79l-241.06,311.01s-.03.03-.04.05c-9.78,9.78-14.24,18.92-11.95,24.47,1.43,3.46,5.44,5.29,11.59,5.29h1648.6c6.15,0,10.16-1.83,11.59-5.29,2.3-5.54-2.17-14.69-11.95-24.47l-241.1-311.06H417.15Z"/>
      </g>
      <path class="st13" d="M616.67,1287.33h-70.32l-23.88,33.79h74.02l20.18-33.79ZM620.36,1321.12h74.02l15.28-33.79h-70.32l-18.98,33.79ZM718.25,1321.12h74.02l10.39-33.79h-70.32l-14.09,33.79ZM895.66,1287.33h-70.32l-9.19,33.79h74.02l5.49-33.79ZM988.66,1287.33h-70.32l-4.3,33.79h74.02l.6-33.79ZM1081.66,1287.33h-70.32l.6,33.79h74.02l-4.3-33.79ZM1109.83,1321.12h74.02l-9.19-33.79h-70.32l5.49,33.79ZM1207.72,1321.12h74.02l-14.09-33.79h-70.32l10.39,33.79ZM1360.66,1287.33h-70.32l15.28,33.79h74.02l-18.98-33.79ZM1383.33,1287.33l20.18,33.79h74.02l-23.88-33.79h-70.32ZM589.52,1332.79h-75.3l-27.48,38.89h79.56l23.22-38.89ZM591.95,1371.69h79.56l17.59-38.89h-75.3l-21.85,38.89ZM697.17,1371.69h79.56l11.96-38.89h-75.3l-16.22,38.89ZM888.27,1332.79h-75.3l-10.58,38.89h79.56l6.32-38.89ZM987.86,1332.79h-75.3l-4.95,38.89h79.56l.69-38.89ZM1087.44,1332.79h-75.3l.69,38.89h79.56l-4.95-38.89ZM1118.05,1371.69h79.56l-10.58-38.89h-75.3l6.32,38.89ZM1223.26,1371.69h79.56l-16.22-38.89h-75.3l11.96,38.89ZM445.23,1430.43h199.72l20.46-45.24h-188.21l-31.97,45.24ZM1386.2,1332.79h-75.3l17.59,38.89h79.56l-21.85-38.89ZM672.68,1430.43h86l13.91-45.24h-81.04l-18.86,45.24ZM879.76,1385.18h-81.04l-12.31,45.24h86l7.35-45.24ZM986.93,1385.18h-81.04l-5.75,45.24h86l.8-45.24ZM1094.11,1385.18h-81.04l.8,45.24h86l-5.75-45.24ZM1127.59,1430.43h86l-12.31-45.24h-81.04l7.35,45.24ZM1241.32,1430.43h86l-18.86-45.24h-81.04l13.91,45.24ZM1441.76,1385.18h-107.17l20.46,45.24h199.72l-68.99-97.64h-75.3l31.28,52.39ZM396.41,1499.51h93.56l31.82-53.29h-87.73l-37.65,53.29ZM520.15,1499.51h93.56l24.1-53.29h-87.73l-29.93,53.29ZM643.88,1499.51h93.56l16.38-53.29h-87.73l-22.22,53.29ZM767.62,1499.51h464.77l-14.5-53.29h-435.77l-14.5,53.29ZM1262.55,1499.51h93.56l-22.22-53.29h-87.73l16.38,53.29ZM1386.29,1499.51h93.56l-29.93-53.29h-87.73l24.1,53.29ZM1510.02,1499.51h93.56l-37.65-53.29h-87.73l31.82,53.29Z"/>
    </g>
    <g>
      <g>
        <g>
          <rect class="st13" x="1329.63" y="611.8" width="149.4" height="123.46"/>
          <path class="st8" d="M1479.02,735.76h-149.4c-.28,0-.5-.22-.5-.5v-123.46c0-.28.22-.5.5-.5h149.4c.28,0,.5.22.5.5v123.46c0,.28-.22.5-.5.5ZM1330.13,734.76h148.4v-122.46h-148.4v122.46Z"/>
        </g>
        <g>
          <path class="st3" d="M1352.5,644.53c2.66-10.57,14.38-19.14,26.17-19.14h37.46c11.79,0,19.18,8.57,16.52,19.14h69.25l-22.87,90.73h-149.4l22.87-90.73h0Z"/>
          <path class="st8" d="M1479.02,735.76h-149.4c-.15,0-.3-.07-.39-.19s-.13-.28-.09-.43l22.87-90.73c2.71-10.76,14.67-19.52,26.65-19.52h37.46c6.09,0,11.38,2.31,14.52,6.34,2.74,3.52,3.67,8.04,2.63,12.8h68.62c.15,0,.3.07.39.19.09.12.13.28.09.43l-22.87,90.73c-.06.22-.26.38-.48.38ZM1330.27,734.76h148.36l22.62-89.73h-68.61c-.15,0-.3-.07-.39-.19-.09-.12-.13-.28-.09-.43,1.18-4.68.36-9.14-2.3-12.56-2.95-3.79-7.95-5.96-13.73-5.96h-37.46c-11.55,0-23.07,8.42-25.68,18.76l-22.71,90.11Z"/>
        </g>
        <g>
          <g>
            <polygon class="st4" points="1384.61 722.43 1468.95 722.43 1476.13 694.67 1391.79 694.67 1384.61 722.43"/>
            <path class="st8" d="M1468.95,722.93h-84.34c-.15,0-.3-.07-.4-.19-.09-.12-.13-.28-.09-.43l7.18-27.76c.06-.22.26-.38.48-.38h84.34c.15,0,.3.07.4.19.09.12.13.28.09.43l-7.18,27.76c-.06.22-.26.38-.48.38ZM1385.25,721.93h83.31l6.92-26.76h-83.31l-6.92,26.76Z"/>
          </g>
          <rect class="st8" x="1403.88" y="707.55" width="54.82" height="2"/>
        </g>
      </g>
      <rect class="st4" x="1329.63" y="757.92" width="149.4" height="6"/>
      <g>
        <g>
          <rect class="st13" x="1094.48" y="611.8" width="149.4" height="123.46"/>
          <path class="st8" d="M1243.88,735.76h-149.4c-.28,0-.5-.22-.5-.5v-123.46c0-.28.22-.5.5-.5h149.4c.28,0,.5.22.5.5v123.46c0,.28-.22.5-.5.5ZM1094.98,734.76h148.4v-122.46h-148.4v122.46Z"/>
        </g>
        <g>
          <path class="st4" d="M1117.35,644.53c2.66-10.57,14.38-19.14,26.17-19.14h37.46c11.79,0,19.18,8.57,16.52,19.14h69.25l-22.87,90.73h-149.4l22.87-90.73h0Z"/>
          <path class="st8" d="M1243.88,735.76h-149.4c-.15,0-.3-.07-.39-.19-.09-.12-.13-.28-.09-.43l22.87-90.73c2.71-10.76,14.67-19.52,26.65-19.52h37.46c6.09,0,11.38,2.31,14.52,6.34,2.74,3.52,3.67,8.04,2.63,12.8h68.62c.15,0,.3.07.39.19.09.12.13.28.09.43l-22.87,90.73c-.06.22-.26.38-.48.38ZM1095.12,734.76h148.36l22.62-89.73h-68.61c-.15,0-.3-.07-.39-.19-.09-.12-.13-.28-.09-.43,1.18-4.68.36-9.14-2.3-12.56-2.95-3.78-7.95-5.96-13.73-5.96h-37.46c-11.55,0-23.07,8.42-25.68,18.76l-22.71,90.11Z"/>
        </g>
        <g>
          <g>
            <polygon class="st3" points="1149.46 722.43 1233.8 722.43 1240.98 694.67 1156.64 694.67 1149.46 722.43"/>
            <path class="st8" d="M1233.8,722.93h-84.34c-.15,0-.3-.07-.4-.19-.09-.12-.13-.28-.09-.43l7.18-27.76c.06-.22.26-.38.48-.38h84.34c.15,0,.3.07.4.19.09.12.13.28.09.43l-7.18,27.76c-.06.22-.26.38-.48.38ZM1150.11,721.93h83.31l6.92-26.76h-83.31l-6.92,26.76Z"/>
          </g>
          <rect class="st8" x="1168.73" y="707.55" width="54.82" height="2"/>
        </g>
      </g>
      <rect class="st4" x="1094.48" y="757.92" width="149.4" height="6"/>
    </g>
    <g>
      <path class="st2" d="M1571.6,1615.87l95.69-224.58-95.69,224.58Z"/>
      <path class="st12" d="M1672.24,1526.37c-19.23,45.12-57,76.66-100.64,89.51-20.96-40.38-24.39-89.46-5.16-134.59,19.23-45.12,57-76.66,100.64-89.51,20.96,40.38,24.39,89.46,5.16,134.59Z"/>
      <path class="st16" d="M1571.6,1615.87c-20.96-40.38-24.39-89.46-5.16-134.59,19.23-45.12,57-76.66,100.64-89.51l-95.48,224.09Z"/>
      <path class="st2" d="M1571.6,1615.87l178.88-71.99-178.88,71.99Z"/>
      <path class="st16" d="M1643.88,1537.82c-35.94,14.46-61.44,43.79-72.29,78.05,31.55,17.2,70.26,20.68,106.2,6.22s61.44-43.79,72.29-78.05c-31.55-17.2-70.26-20.68-106.2-6.22Z"/>
      <path class="st12" d="M1571.6,1615.87c31.55,17.2,70.26,20.68,106.2,6.22s61.44-43.79,72.29-78.05l-178.49,71.83Z"/>
    </g>
    <g>
      <g>
        <g>
          <path class="st3" d="M1825.25,1646.11h-176.41l-19.51-63.64c-5.14-16.77-20.63-28.22-38.17-28.22h-197.72c-17.54,0-33.03,11.45-38.17,28.22l-19.51,63.64h489.49Z"/>
          <path class="st8" d="M1825.25,1646.61h-176.78l-19.61-64c-5.11-16.67-20.26-27.87-37.69-27.87h-197.72c-17.44,0-32.58,11.2-37.69,27.87l-19.51,63.64-.96-.29,19.51-63.64c5.24-17.09,20.77-28.58,38.65-28.58h197.72c17.88,0,33.41,11.48,38.65,28.58l19.4,63.29h176.04v1Z"/>
        </g>
        <g>
          <path class="st8" d="M1649.31,1008.98l77.2,77.2-157.01,157.01v311.06h-154.39v-262.59c0-31.04,12.33-60.8,34.28-82.75l199.93-199.93Z"/>
          <path class="st8" d="M1569.99,1554.75h-155.39v-263.09c0-31.39,12.22-60.9,34.42-83.1l200.28-200.28,77.9,77.9-157.21,157.21v311.35ZM1415.6,1553.75h153.39v-310.77l156.8-156.8-76.49-76.49-199.57,199.57c-22.01,22.01-34.13,51.27-34.13,82.39v262.09Z"/>
        </g>
        <polygon class="st6" points="1588.94 1117.26 1541.53 1117.26 1541.53 1116.26 1588.53 1116.26 1649.12 1055.67 1649.83 1056.38 1588.94 1117.26"/>
        <polygon class="st6" points="1475 1554.25 1474 1554.25 1474 1227.51 1550.53 1150.98 1617.06 1150.98 1704.18 1063.86 1704.89 1064.57 1617.48 1151.98 1550.94 1151.98 1475 1227.92 1475 1554.25"/>
        <polygon class="st6" points="1652.49 1116.76 1651.49 1116.76 1651.49 1081.66 1686.74 1046.41 1687.44 1047.12 1652.49 1082.08 1652.49 1116.76"/>
        <polygon class="st6" points="1492.45 1554.25 1491.45 1554.25 1491.45 1244.95 1531.03 1205.37 1531.03 1170.69 1532.03 1170.69 1532.03 1205.79 1492.45 1245.37 1492.45 1554.25"/>
        <polygon class="st6" points="1529.7 1554.25 1528.7 1554.25 1528.7 1283.27 1569.14 1242.83 1569.85 1243.54 1529.7 1283.69 1529.7 1554.25"/>
        <polygon class="st6" points="1442.83 1554.25 1441.83 1554.25 1441.83 1410.97 1414.75 1383.89 1415.46 1383.18 1442.83 1410.56 1442.83 1554.25"/>
      </g>
      <g>
        <g>
          <path class="st8" d="M1395.09,1031.11l136.96-136.96c11.43-11.43,11.43-29.95,0-41.38s-29.95-11.43-41.38,0l-136.96,136.96c-11.43,11.43-11.43,29.95,0,41.38s29.95,11.43,41.38,0Z"/>
          <path class="st8" d="M1374.4,1040.16c-7.62,0-15.24-2.9-21.04-8.7-5.62-5.62-8.72-13.09-8.72-21.04s3.09-15.42,8.72-21.04l136.96-136.96c5.62-5.62,13.09-8.72,21.04-8.72s15.42,3.1,21.04,8.72c5.62,5.62,8.72,13.09,8.72,21.04s-3.09,15.42-8.72,21.04l-136.96,136.96c-5.8,5.8-13.42,8.7-21.04,8.7ZM1511.36,844.71c-7.68,0-14.9,2.99-20.33,8.42l-136.96,136.96c-5.43,5.43-8.42,12.65-8.42,20.33s2.99,14.9,8.42,20.33c11.21,11.21,29.46,11.21,40.67,0l.35.35-.35-.35,136.96-136.96c11.21-11.21,11.21-29.46,0-40.67-5.43-5.43-12.65-8.42-20.33-8.42Z"/>
        </g>
        <polygon class="st6" points="1443.52 928.97 1414.77 928.97 1414.77 927.97 1443.1 927.97 1488.58 882.49 1489.29 883.2 1443.52 928.97"/>
        <polygon class="st6" points="1456.75 969.95 1455.75 969.95 1455.75 941.2 1501.52 895.43 1502.23 896.14 1456.75 941.62 1456.75 969.95"/>
        <rect class="st6" x="1346.04" y="941.44" width="193.69" height="1" transform="translate(-243.44 1296.16) rotate(-45)"/>
        <g>
          <circle class="st3" cx="1511.36" cy="873.46" r="29.26"/>
          <path class="st8" d="M1511.36,903.22c-7.95,0-15.42-3.1-21.04-8.72-5.62-5.62-8.72-13.09-8.72-21.04s3.1-15.42,8.72-21.04c5.62-5.62,13.09-8.72,21.04-8.72s15.42,3.1,21.04,8.72c11.6,11.6,11.6,30.48,0,42.08-5.62,5.62-13.09,8.72-21.04,8.72ZM1511.36,844.71c-7.68,0-14.9,2.99-20.33,8.42-5.43,5.43-8.42,12.65-8.42,20.33s2.99,14.9,8.42,20.33c5.43,5.43,12.65,8.42,20.33,8.42s14.9-2.99,20.33-8.42c5.43-5.43,8.42-12.65,8.42-20.33s-2.99-14.9-8.42-20.33c-5.43-5.43-12.65-8.42-20.33-8.42Z"/>
        </g>
        <g>
          <circle class="st3" cx="1374.4" cy="1010.42" r="29.26"/>
          <path class="st8" d="M1374.4,1040.16c-7.62,0-15.24-2.9-21.04-8.7-11.6-11.6-11.6-30.48,0-42.08,5.62-5.62,13.09-8.72,21.04-8.72s15.42,3.1,21.04,8.72c5.62,5.62,8.72,13.09,8.72,21.04s-3.1,15.42-8.72,21.04c-5.8,5.8-13.42,8.7-21.04,8.7ZM1354.07,1030.75c11.21,11.21,29.46,11.21,40.67,0,5.43-5.43,8.42-12.65,8.42-20.33s-2.99-14.9-8.42-20.33c-5.43-5.43-12.65-8.42-20.33-8.42s-14.9,2.99-20.33,8.42c-11.21,11.21-11.21,29.46,0,40.67h0Z"/>
        </g>
        <circle class="st6" cx="1511.36" cy="873.46" r="17.55"/>
        <circle class="st6" cx="1374.4" cy="1010.42" r="17.55"/>
      </g>
      <g>
        <g>
          <path class="st8" d="M1477.15,905.56l180.4,180.4c19.04,19.04,49.92,19.04,68.96,0,19.04-19.04,19.04-49.92,0-68.96l-180.4-180.4c-19.04-19.04-49.92-19.04-68.96,0-19.04,19.04-19.04,49.92,0,68.96Z"/>
          <path class="st8" d="M1692.03,1100.72c-12.61,0-25.23-4.8-34.83-14.41l-180.4-180.4c-19.21-19.21-19.21-50.46,0-69.67,19.21-19.21,50.46-19.21,69.67,0l180.4,180.4c19.21,19.21,19.21,50.46,0,69.67-9.6,9.6-22.22,14.41-34.83,14.41ZM1477.5,905.21l180.4,180.4c18.82,18.82,49.43,18.82,68.25,0,18.82-18.82,18.82-49.43,0-68.25l-180.4-180.4c-18.82-18.82-49.43-18.82-68.25,0s-18.82,49.43,0,68.25Z"/>
        </g>
        <polygon class="st6" points="1559.38 987.29 1558.38 987.29 1558.38 956 1511.38 909 1512.09 908.29 1559.38 955.59 1559.38 987.29"/>
        <polygon class="st6" points="1703.04 1025.74 1655.75 978.45 1655.75 946.74 1656.75 946.74 1656.75 978.04 1703.75 1025.04 1703.04 1025.74"/>
        <rect class="st6" x="1601.33" y="833.72" width="1" height="255.12" transform="translate(-210.56 1414.22) rotate(-45)"/>
        <g>
          <circle class="st3" cx="1511.63" cy="870.93" r="48.76"/>
          <path class="st8" d="M1511.63,920.17c-12.61,0-25.23-4.8-34.83-14.41-9.3-9.3-14.43-21.67-14.43-34.83s5.12-25.53,14.43-34.83c19.21-19.21,50.46-19.21,69.67,0,9.3,9.3,14.43,21.67,14.43,34.83s-5.12,25.53-14.43,34.83-22.22,14.41-34.83,14.41ZM1477.15,836.45l.35.35c-9.12,9.12-14.14,21.23-14.14,34.13s5.02,25.01,14.14,34.13c18.82,18.82,49.43,18.82,68.25,0,9.12-9.12,14.14-21.23,14.14-34.13s-5.02-25.01-14.14-34.13c-18.82-18.82-49.43-18.82-68.25,0l-.35-.35Z"/>
        </g>
        <g>
          <circle class="st3" cx="1692.03" cy="1051.48" r="48.76"/>
          <path class="st8" d="M1692.03,1100.72c-12.61,0-25.23-4.8-34.83-14.41-9.3-9.3-14.43-21.67-14.43-34.83s5.12-25.53,14.43-34.83c19.21-19.21,50.46-19.21,69.67,0,9.3,9.3,14.43,21.67,14.43,34.83s-5.12,25.53-14.43,34.83c-9.6,9.6-22.22,14.41-34.83,14.41ZM1692.03,1003.24c-12.36,0-24.72,4.7-34.13,14.11-9.12,9.12-14.14,21.23-14.14,34.13s5.02,25.01,14.14,34.13c18.82,18.82,49.44,18.82,68.25,0,9.12-9.12,14.14-21.24,14.14-34.13s-5.02-25.01-14.14-34.13c-9.41-9.41-21.77-14.11-34.13-14.11Z"/>
        </g>
        <circle class="st13" cx="1692.03" cy="1051.48" r="29.26"/>
        <circle class="st13" cx="1511.63" cy="870.93" r="29.26"/>
      </g>
      <g>
        <path class="st8" d="M1374.52,975.81l-178.8,14.13c-10.68.84-18.92,9.76-18.92,20.48s8.24,19.63,18.92,20.48l178.8,14.13c20.19,1.6,37.45-14.36,37.45-34.61s-17.26-36.2-37.45-34.61Z"/>
        <path class="st8" d="M1377.23,1045.63c-.92,0-1.83-.04-2.75-.11l-178.8-14.13c-10.87-.86-19.38-10.07-19.38-20.98s8.51-20.12,19.38-20.98l178.8-14.13c9.76-.77,19.48,2.6,26.67,9.24,7.19,6.65,11.31,16.07,11.31,25.86s-4.12,19.22-11.32,25.86c-6.51,6.02-15.11,9.35-23.92,9.35ZM1374.52,975.81l.04.5-178.8,14.13c-10.35.82-18.46,9.59-18.46,19.98s8.11,19.16,18.46,19.98l178.8,14.13c9.62.76,18.83-2.43,25.92-8.98,7.09-6.55,10.99-15.48,10.99-25.13s-3.9-18.58-10.99-25.13c-7.09-6.55-16.29-9.74-25.92-8.98l-.04-.5Z"/>
      </g>
      <g>
        <path class="st8" d="M1178.16,952.3h-65.46c-4.27,0-8.33,1.85-11.13,5.08l-15.7,18.07c-1.92,2.22-1.69,5.57.53,7.5,1.97,1.71,4.88,1.74,6.89.07l15.67-13.04c1.11-.93,2.56-1.36,4-1.2l47.51,5.37c2,.23,3.71,1.57,4.4,3.46l11.94,32.8h32.85l-17.62-48.42c-2.12-5.83-7.66-9.7-13.86-9.7Z"/>
        <path class="st8" d="M1210.35,1010.92h-33.91l-12.06-33.13c-.63-1.73-2.16-2.93-3.98-3.14l-47.51-5.37c-1.3-.15-2.62.25-3.62,1.08l-15.67,13.04c-2.2,1.83-5.37,1.8-7.53-.08-1.17-1.02-1.88-2.43-1.99-3.98-.11-1.55.39-3.05,1.41-4.22l15.7-18.07c2.9-3.33,7.09-5.25,11.51-5.25h65.46c6.39,0,12.14,4.03,14.33,10.03l17.86,49.09ZM1177.14,1009.92h31.78l-17.38-47.75c-2.04-5.61-7.42-9.37-13.39-9.37h-65.46c-4.13,0-8.05,1.79-10.76,4.9l-15.7,18.07c-.84.97-1.26,2.21-1.17,3.5.09,1.28.67,2.45,1.65,3.3,1.79,1.56,4.41,1.58,6.24.07l15.67-13.04c1.21-1.01,2.81-1.48,4.37-1.31l47.51,5.37c2.21.25,4.05,1.7,4.81,3.79l11.82,32.47Z"/>
      </g>
      <g>
        <g>
          <polygon class="st16" points="960.13 1134.91 1176.79 1134.91 1176.79 918.46 960.13 918.46 887.99 882.38 887.99 1098.82 960.13 1134.91"/>
          <path class="st6" d="M1176.79,1135.91h-216.66c-.16,0-.31-.04-.45-.11l-72.15-36.08c-.34-.17-.55-.52-.55-.89v-216.45c0-.35.18-.67.47-.85.29-.18.66-.2.97-.04l71.94,35.98h216.42c.55,0,1,.45,1,1v216.45c0,.55-.45,1-1,1ZM960.37,1133.91h215.42v-214.45h-215.66c-.16,0-.31-.04-.45-.11l-70.7-35.36v214.21l71.39,35.7Z"/>
        </g>
        <g>
          <polygon class="st3" points="1104.64 882.38 1176.79 918.46 1176.79 1134.91 1104.64 1098.82 1104.64 882.38"/>
          <path class="st6" d="M1176.79,1135.91c-.15,0-.31-.04-.45-.11l-72.15-36.08c-.34-.17-.55-.52-.55-.89v-216.45c0-.35.18-.67.47-.85.29-.18.66-.2.97-.04l72.15,36.08c.34.17.55.52.55.89v216.45c0,.35-.18.67-.47.85-.16.1-.34.15-.53.15ZM1105.65,1098.21l70.15,35.08v-214.21l-70.15-35.08v214.21Z"/>
        </g>
        <g>
          <rect class="st8" x="887.99" y="882.38" width="216.66" height="216.45"/>
          <path class="st8" d="M1104.65,1099.82h-216.66c-.55,0-1-.45-1-1v-216.45c0-.55.45-1,1-1h216.66c.55,0,1,.45,1,1v216.45c0,.55-.45,1-1,1ZM888.99,1097.82h214.66v-214.45h-214.66v214.45Z"/>
        </g>
        <g>
          <g>
            <rect class="st3" x="906.8" y="912.9" width="7.39" height="5"/>
            <rect class="st6" x="918.3" y="912.9" width="32.03" height="5"/>
            <rect class="st7" x="954.43" y="912.9" width="44.35" height="5"/>
            <rect class="st7" x="1002.89" y="912.9" width="7.39" height="5"/>
            <rect class="st7" x="1014.38" y="912.9" width="7.39" height="5"/>
            <rect class="st7" x="1025.88" y="912.9" width="32.03" height="5"/>
            <rect class="st7" x="1062.02" y="912.9" width="7.39" height="5"/>
          </g>
          <g>
            <rect class="st3" x="906.8" y="924.09" width="11.5" height="5"/>
            <rect class="st6" x="922.4" y="924.09" width="27.92" height="5"/>
            <rect class="st6" x="954.43" y="924.09" width="7.39" height="5"/>
            <rect class="st6" x="965.93" y="924.09" width="44.35" height="5"/>
            <rect class="st6" x="1014.38" y="924.09" width="7.39" height="5"/>
            <rect class="st6" x="1025.88" y="924.09" width="7.39" height="5"/>
            <rect class="st6" x="1037.38" y="924.09" width="32.03" height="5"/>
          </g>
          <g>
            <rect class="st3" x="923.23" y="935.29" width="32.03" height="5"/>
            <rect class="st6" x="959.36" y="935.29" width="7.39" height="5"/>
            <rect class="st6" x="970.86" y="935.29" width="32.03" height="5"/>
            <rect class="st7" x="1006.99" y="935.29" width="40.24" height="5"/>
            <rect class="st7" x="1051.34" y="935.29" width="7.39" height="5"/>
            <rect class="st7" x="1062.84" y="935.29" width="15.6" height="5"/>
            <rect class="st7" x="1082.55" y="935.29" width="3.28" height="5"/>
          </g>
          <g>
            <rect class="st3" x="923.23" y="946.48" width="3.28" height="5"/>
            <rect class="st3" x="930.62" y="946.48" width="36.14" height="5"/>
            <rect class="st6" x="970.86" y="946.48" width="48.46" height="5"/>
            <rect class="st7" x="1023.42" y="946.48" width="19.71" height="5"/>
            <rect class="st7" x="1047.24" y="946.48" width="19.71" height="5"/>
            <rect class="st7" x="1071.05" y="946.48" width="7.39" height="5"/>
            <rect class="st7" x="1082.55" y="946.48" width="3.28" height="5"/>
          </g>
          <g>
            <rect class="st3" x="906.8" y="957.67" width="15.6" height="5"/>
            <rect class="st3" x="926.51" y="957.67" width="23.82" height="5"/>
            <rect class="st7" x="954.43" y="957.67" width="7.39" height="5"/>
            <rect class="st7" x="965.93" y="957.67" width="44.35" height="5"/>
            <rect class="st6" x="1014.38" y="957.67" width="19.71" height="5"/>
            <rect class="st7" x="1038.2" y="957.67" width="7.39" height="5"/>
            <rect class="st7" x="1049.7" y="957.67" width="19.71" height="5"/>
          </g>
          <g>
            <rect class="st3" x="923.23" y="968.86" width="7.39" height="5"/>
            <rect class="st6" x="934.72" y="968.86" width="32.03" height="5"/>
            <rect class="st6" x="970.86" y="968.86" width="7.39" height="5"/>
            <rect class="st6" x="982.35" y="968.86" width="56.67" height="5"/>
            <rect class="st6" x="1043.13" y="968.86" width="7.39" height="5"/>
            <rect class="st6" x="1054.63" y="968.86" width="19.71" height="5"/>
            <rect class="st6" x="1078.44" y="968.86" width="7.39" height="5"/>
          </g>
          <g>
            <rect class="st3" x="923.23" y="980.05" width="11.5" height="5"/>
            <rect class="st3" x="938.83" y="980.05" width="27.92" height="5"/>
            <rect class="st6" x="970.86" y="980.05" width="44.35" height="5"/>
            <rect class="st7" x="1019.31" y="980.05" width="11.5" height="5"/>
            <rect class="st7" x="1034.92" y="980.05" width="36.14" height="5"/>
            <rect class="st7" x="1075.16" y="980.05" width="3.28" height="5"/>
            <rect class="st7" x="1082.55" y="980.05" width="3.28" height="5"/>
          </g>
          <g>
            <rect class="st3" x="906.8" y="996.15" width="7.39" height="5"/>
            <rect class="st6" x="918.3" y="996.15" width="32.03" height="5"/>
            <rect class="st7" x="954.43" y="996.15" width="44.35" height="5"/>
            <rect class="st7" x="1002.89" y="996.15" width="7.39" height="5"/>
            <rect class="st7" x="1014.38" y="996.15" width="7.39" height="5"/>
            <rect class="st7" x="1025.88" y="996.15" width="32.03" height="5"/>
            <rect class="st7" x="1062.02" y="996.15" width="7.39" height="5"/>
          </g>
          <g>
            <rect class="st3" x="906.8" y="1007.34" width="11.5" height="5"/>
            <rect class="st6" x="922.4" y="1007.34" width="27.92" height="5"/>
            <rect class="st6" x="954.43" y="1007.34" width="7.39" height="5"/>
            <rect class="st6" x="965.93" y="1007.34" width="44.35" height="5"/>
            <rect class="st6" x="1014.38" y="1007.34" width="7.39" height="5"/>
            <rect class="st6" x="1025.88" y="1007.34" width="7.39" height="5"/>
            <rect class="st6" x="1037.38" y="1007.34" width="32.03" height="5"/>
          </g>
          <g>
            <rect class="st3" x="923.23" y="1018.53" width="32.03" height="5"/>
            <rect class="st6" x="959.36" y="1018.53" width="7.39" height="5"/>
            <rect class="st6" x="970.86" y="1018.53" width="32.03" height="5"/>
            <rect class="st7" x="1006.99" y="1018.53" width="40.24" height="5"/>
            <rect class="st7" x="1051.34" y="1018.53" width="7.39" height="5"/>
            <rect class="st7" x="1062.84" y="1018.53" width="15.6" height="5"/>
            <rect class="st7" x="1082.55" y="1018.53" width="3.28" height="5"/>
          </g>
          <g>
            <rect class="st3" x="923.23" y="1029.72" width="3.28" height="5"/>
            <rect class="st3" x="930.62" y="1029.72" width="36.14" height="5"/>
            <rect class="st6" x="970.86" y="1029.72" width="48.46" height="5"/>
            <rect class="st7" x="1023.42" y="1029.72" width="19.71" height="5"/>
            <rect class="st7" x="1047.24" y="1029.72" width="19.71" height="5"/>
            <rect class="st7" x="1071.05" y="1029.72" width="7.39" height="5"/>
            <rect class="st7" x="1082.55" y="1029.72" width="3.28" height="5"/>
          </g>
          <g>
            <rect class="st3" x="906.8" y="1040.92" width="15.6" height="5"/>
            <rect class="st3" x="926.51" y="1040.92" width="23.82" height="5"/>
            <rect class="st7" x="954.43" y="1040.92" width="7.39" height="5"/>
            <rect class="st7" x="965.93" y="1040.92" width="44.35" height="5"/>
            <rect class="st6" x="1014.38" y="1040.92" width="19.71" height="5"/>
            <rect class="st7" x="1038.2" y="1040.92" width="7.39" height="5"/>
            <rect class="st7" x="1049.7" y="1040.92" width="19.71" height="5"/>
          </g>
          <g>
            <rect class="st3" x="923.23" y="1052.11" width="7.39" height="5"/>
            <rect class="st6" x="934.72" y="1052.11" width="32.03" height="5"/>
            <rect class="st6" x="970.86" y="1052.11" width="7.39" height="5"/>
            <rect class="st6" x="982.35" y="1052.11" width="56.67" height="5"/>
            <rect class="st6" x="1043.13" y="1052.11" width="7.39" height="5"/>
            <rect class="st6" x="1054.63" y="1052.11" width="19.71" height="5"/>
            <rect class="st6" x="1078.44" y="1052.11" width="7.39" height="5"/>
          </g>
          <g>
            <rect class="st3" x="923.23" y="1063.3" width="11.5" height="5"/>
            <rect class="st3" x="938.83" y="1063.3" width="27.92" height="5"/>
            <rect class="st6" x="970.86" y="1063.3" width="44.35" height="5"/>
            <rect class="st7" x="1019.31" y="1063.3" width="11.5" height="5"/>
            <rect class="st7" x="1034.92" y="1063.3" width="36.14" height="5"/>
            <rect class="st7" x="1075.16" y="1063.3" width="3.28" height="5"/>
            <rect class="st7" x="1082.55" y="1063.3" width="3.28" height="5"/>
          </g>
        </g>
      </g>
      <g>
        <path class="st8" d="M1178.16,1068.54h-65.46c-4.27,0-8.33-1.85-11.13-5.08l-15.7-18.07c-1.92-2.22-1.69-5.57.53-7.5,1.97-1.71,4.88-1.74,6.89-.07l15.67,13.04c1.11.93,2.56,1.36,4,1.2l47.51-5.37c2-.23,3.71-1.57,4.4-3.46l11.94-32.8h32.85l-17.62,48.42c-2.12,5.83-7.66,9.7-13.86,9.7Z"/>
        <path class="st8" d="M1178.16,1069.04h-65.46c-4.42,0-8.61-1.91-11.51-5.25l-15.7-18.07c-1.02-1.17-1.52-2.67-1.41-4.22.11-1.55.81-2.96,1.99-3.98,2.16-1.88,5.33-1.91,7.53-.08l15.67,13.04c1,.84,2.32,1.23,3.62,1.08l47.51-5.37c1.83-.21,3.35-1.41,3.98-3.14l12.06-33.13h33.91l-17.86,49.09c-2.18,6-7.94,10.03-14.33,10.03ZM1089.89,1037.08c-1.12,0-2.25.4-3.16,1.19-.97.84-1.56,2.01-1.65,3.3-.09,1.28.32,2.52,1.17,3.5l15.7,18.07c2.71,3.12,6.63,4.9,10.76,4.9h65.46c5.97,0,11.35-3.77,13.39-9.38l17.38-47.75h-31.78l-11.82,32.47c-.76,2.09-2.6,3.54-4.81,3.79l-47.51,5.37c-1.57.18-3.16-.3-4.37-1.31l-15.67-13.04c-.9-.75-1.99-1.12-3.08-1.12Z"/>
      </g>
      <rect class="st6" x="1214.36" y="1009.92" width="160.28" height="1"/>
      <g>
        <circle class="st3" cx="1374.4" cy="1010.42" r="37.57" transform="translate(-282.05 602.87) rotate(-22.5)"/>
        <path class="st8" d="M1374.4,1048.49c-20.99,0-38.07-17.08-38.07-38.07s17.08-38.07,38.07-38.07,38.07,17.08,38.07,38.07-17.08,38.07-38.07,38.07ZM1374.4,973.35c-20.44,0-37.07,16.63-37.07,37.07s16.63,37.07,37.07,37.07,37.07-16.63,37.07-37.07-16.63-37.07-37.07-37.07Z"/>
      </g>
      <circle class="st13" cx="1374.4" cy="1010.42" r="24.04" transform="translate(-207.68 1648.35) rotate(-58.28)"/>
      <g>
        <circle class="st3" cx="1197.25" cy="1010.42" r="20.46" transform="translate(-365.18 895.62) rotate(-35.96)"/>
        <path class="st8" d="M1197.25,1031.38c-11.56,0-20.96-9.4-20.96-20.96s9.4-20.96,20.96-20.96,20.96,9.4,20.96,20.96-9.4,20.96-20.96,20.96ZM1197.25,990.46c-11,0-19.96,8.95-19.96,19.96s8.95,19.96,19.96,19.96,19.96-8.95,19.96-19.96-8.95-19.96-19.96-19.96Z"/>
      </g>
      <circle class="st13" cx="1197.25" cy="1010.42" r="13.52" transform="translate(-193.2 1732.23) rotate(-67.6)"/>
    </g>
    <g>
      <g>
        <rect class="st5" x="356.91" y="425.68" width="392.98" height="270.37" rx="20.7" ry="20.7"/>
        <path class="st8" d="M729.19,696.54h-351.58c-11.69,0-21.2-9.51-21.2-21.2v-228.97c0-11.69,9.51-21.2,21.2-21.2h351.58c11.69,0,21.2,9.51,21.2,21.2v228.97c0,11.69-9.51,21.2-21.2,21.2ZM377.61,426.18c-11.14,0-20.2,9.06-20.2,20.2v228.97c0,11.14,9.06,20.2,20.2,20.2h351.58c11.14,0,20.2-9.06,20.2-20.2v-228.97c0-11.14-9.06-20.2-20.2-20.2h-351.58Z"/>
      </g>
      <g>
        <rect class="st1" x="376.91" y="445.68" width="392.98" height="270.37" rx="20.7" ry="20.7"/>
        <path class="st8" d="M749.19,716.54h-351.58c-11.69,0-21.2-9.51-21.2-21.2v-228.97c0-11.69,9.51-21.2,21.2-21.2h351.58c11.69,0,21.2,9.51,21.2,21.2v228.97c0,11.69-9.51,21.2-21.2,21.2ZM397.61,446.18c-11.14,0-20.2,9.06-20.2,20.2v228.97c0,11.14,9.06,20.2,20.2,20.2h351.58c11.14,0,20.2-9.06,20.2-20.2v-228.97c0-11.14-9.06-20.2-20.2-20.2h-351.58Z"/>
      </g>
      <g>
        <rect class="st14" x="396.91" y="465.68" width="392.98" height="270.37" rx="20.7" ry="20.7"/>
        <path class="st8" d="M769.19,736.54h-351.58c-11.69,0-21.2-9.51-21.2-21.2v-228.97c0-11.69,9.51-21.2,21.2-21.2h351.58c11.69,0,21.2,9.51,21.2,21.2v228.97c0,11.69-9.51,21.2-21.2,21.2ZM417.61,466.18c-11.14,0-20.2,9.06-20.2,20.2v228.97c0,11.14,9.06,20.2,20.2,20.2h351.58c11.14,0,20.2-9.06,20.2-20.2v-228.97c0-11.14-9.06-20.2-20.2-20.2h-351.58Z"/>
      </g>
      <g>
        <rect class="st3" x="416.91" y="485.68" width="392.98" height="270.37" rx="20.7" ry="20.7"/>
        <path class="st8" d="M789.19,756.54h-351.58c-11.69,0-21.2-9.51-21.2-21.2v-228.97c0-11.69,9.51-21.2,21.2-21.2h351.58c11.69,0,21.2,9.51,21.2,21.2v228.97c0,11.69-9.51,21.2-21.2,21.2ZM437.61,486.18c-11.14,0-20.2,9.06-20.2,20.2v228.97c0,11.14,9.06,20.2,20.2,20.2h351.58c11.14,0,20.2-9.06,20.2-20.2v-228.97c0-11.14-9.06-20.2-20.2-20.2h-351.58Z"/>
      </g>
      <g>
        <path class="st4" d="M809.89,506.38c0-11.43-9.27-20.7-20.7-20.7h-351.58c-11.43,0-20.7,9.27-20.7,20.7v11.17h392.98v-11.17Z"/>
        <path class="st13" d="M810.39,518.04h-393.98v-11.67c0-11.69,9.51-21.2,21.2-21.2h351.58c11.69,0,21.2,9.51,21.2,21.2v11.67ZM417.41,517.04h391.98v-10.67c0-11.14-9.06-20.2-20.2-20.2h-351.58c-11.14,0-20.2,9.06-20.2,20.2v10.67Z"/>
      </g>
      <g>
        <rect class="st4" x="473.93" y="571.93" width="278.93" height="8"/>
        <rect class="st4" x="473.93" y="596.86" width="278.93" height="8"/>
        <rect class="st4" x="550.8" y="621.79" width="125.19" height="8"/>
      </g>
      <g>
        <path class="st3" d="M747.93,496.68c-2.72,0-4.93,2.21-4.93,4.93s2.21,4.93,4.93,4.93,4.93-2.21,4.93-4.93-2.21-4.93-4.93-4.93ZM766.44,496.68c-2.72,0-4.93,2.21-4.93,4.93s2.21,4.93,4.93,4.93,4.93-2.21,4.93-4.93-2.21-4.93-4.93-4.93ZM784.95,496.68c-2.72,0-4.93,2.21-4.93,4.93s2.21,4.93,4.93,4.93,4.93-2.21,4.93-4.93-2.21-4.93-4.93-4.93Z"/>
        <path class="st8" d="M784.95,507.04c-3,0-5.43-2.44-5.43-5.43s2.44-5.43,5.43-5.43,5.43,2.44,5.43,5.43-2.44,5.43-5.43,5.43ZM784.95,497.18c-2.44,0-4.43,1.99-4.43,4.43s1.99,4.43,4.43,4.43,4.43-1.99,4.43-4.43-1.99-4.43-4.43-4.43ZM766.44,507.04c-3,0-5.43-2.44-5.43-5.43s2.44-5.43,5.43-5.43,5.43,2.44,5.43,5.43-2.44,5.43-5.43,5.43ZM766.44,497.18c-2.44,0-4.43,1.99-4.43,4.43s1.99,4.43,4.43,4.43,4.43-1.99,4.43-4.43-1.99-4.43-4.43-4.43ZM747.93,507.04c-3,0-5.43-2.44-5.43-5.43s2.44-5.43,5.43-5.43,5.43,2.44,5.43,5.43-2.44,5.43-5.43,5.43ZM747.93,497.18c-2.44,0-4.43,1.99-4.43,4.43s1.99,4.43,4.43,4.43,4.43-1.99,4.43-4.43-1.99-4.43-4.43-4.43Z"/>
      </g>
      <g>
        <path class="st14" d="M658.27,699.54h-89.75c-9.79,0-17.72-7.93-17.72-17.72s7.93-17.72,17.72-17.72h89.75c9.79,0,17.72,7.93,17.72,17.72s-7.93,17.72-17.72,17.72Z"/>
        <path class="st8" d="M658.27,700.04h-89.75c-10.05,0-18.22-8.17-18.22-18.22s8.17-18.22,18.22-18.22h89.75c10.05,0,18.22,8.17,18.22,18.22s-8.17,18.22-18.22,18.22ZM568.52,664.6c-9.49,0-17.22,7.72-17.22,17.22s7.72,17.22,17.22,17.22h89.75c9.49,0,17.22-7.72,17.22-17.22s-7.72-17.22-17.22-17.22h-89.75Z"/>
      </g>
    </g>
    <g>
      <path class="st15" d="M567.8,1568.25c-12.22-4.3-19.42-16.92-16.76-29.6,2.66-12.68,13.65-18.13,26.57-17.16,7.57.57,15.47,3.14,23.69,4.86,15.53,3.26,31.78,1.93,42.98,10.61,7.72,5.98,10.92,15.75,9.36,23.2s-8.07,13.5-17.55,15.88c-21.18,5.32-47.88-.6-68.28-7.79Z"/>
      <g>
        <path class="st8" d="M801.46,1408.11c-45.99-23.95-193.44-74.81-193.44-74.81l-63.36.48-63.36-.48s-147.45,50.87-193.44,74.81c-46.55,24.24-36.95,68.37-2.16,81.47,56.3-5.83,171.86,2.97,258.96-30.91,92.96,23.5,206.93,31.94,261.92,28.6,34.79-13.1,41.43-54.91-5.12-79.15Z"/>
        <path class="st8" d="M285.62,1490.22l-.14-.05c-17.42-6.56-28.85-20.76-29.83-37.07-1.07-17.81,10.56-34.41,31.91-45.53,45.5-23.69,192.05-74.34,193.53-74.85l.1-.04h.11s63.36.48,63.36.48l63.46-.48.1.04c1.47.51,148.02,51.15,193.53,74.85,22.25,11.58,34.4,28.33,33.34,45.93-.9,14.96-11.74,28.12-28.29,34.35l-.18.04c-58.98,3.58-173.03-6.13-261.92-28.57-63.55,24.67-143.49,26.72-201.87,28.22-22.44.58-41.83,1.08-57.07,2.65l-.15.02ZM481.4,1333.93c-4.58,1.58-148.33,51.35-193.26,74.74-20.9,10.88-32.29,27.05-31.25,44.35.95,15.77,12.01,29.53,28.89,35.93,15.27-1.57,34.62-2.07,57.01-2.64,58.35-1.5,138.25-3.56,201.64-28.21l.19-.07.19.05c88.75,22.43,202.69,32.14,261.64,28.58,16.03-6.07,26.53-18.79,27.4-33.23,1.03-17.1-10.88-33.41-32.67-44.76-44.92-23.39-188.68-73.16-193.26-74.74l-63.25.48-63.26-.48Z"/>
      </g>
      <g>
        <path class="st8" d="M285.7,1489.58c49.69,31.47,166.36,55.57,276.98,80.54,14.87-9.47,27.06-34.15,25.62-46.79-108.41-54.05-205.33-101.19-284.51-107.75-42.76,8.89-53.56,51.56-18.09,74.01Z"/>
        <path class="st8" d="M562.8,1570.78l-.25-.06c-9.96-2.25-19.97-4.49-29.98-6.73-99.26-22.22-201.89-45.2-247.2-73.89-15.95-10.1-23.8-25.29-21.01-40.64,3.07-16.88,18.13-30.1,39.31-34.51l.09-.02h.09c76.24,6.33,166.11,48.68,284.73,107.83l.3.15.04.34c1.45,12.7-10.46,37.55-25.9,47.39l-.22.14ZM286.04,1489.05c45.12,28.58,147.65,51.53,246.81,73.73,9.92,2.22,19.85,4.44,29.72,6.67,14.46-9.37,26.29-33.44,25.15-45.72-118.31-58.98-207.94-101.21-283.88-107.53-20.63,4.32-35.28,17.14-38.26,33.49-2.7,14.83,4.95,29.55,20.46,39.37Z"/>
      </g>
      <path class="st15" d="M522.2,1503.37c12.22-4.3,19.42-16.92,16.76-29.6-2.66-12.68-13.65-18.13-26.57-17.16-7.57.57-15.47,3.14-23.69,4.86-15.53,3.26-31.78,1.93-42.98,10.61-7.72,5.98-10.92,15.75-9.36,23.2s8.07,13.5,17.55,15.88c21.18,5.32,47.88-.6,68.28-7.79Z"/>
      <g>
        <path class="st8" d="M803.13,1488.58c-60.73,20.84-169.11,23.92-287.4,24.62-12.84-12.24-18.22-37.61-12.76-55.97,116.9-31.73,218.02-53.87,296.94-44.77,40.19,17.11,42.92,62.5,3.22,76.12Z"/>
        <path class="st8" d="M515.49,1513.82l-.18-.17c-12.78-12.19-18.58-37.58-12.93-56.6l.1-.33.33-.09c122.71-33.3,220.2-53.66,297.17-44.79l.17.05c20.05,8.53,32.6,25.37,31.97,42.89-.56,15.54-11.32,28.4-28.79,34.4l-.2-.59.2.59c-62.79,21.55-176.5,24-287.6,24.66h-.25ZM503.47,1457.73c-5.35,18.49.23,42.95,12.51,54.84,110.91-.66,224.39-3.12,286.95-24.59,16.96-5.82,27.41-18.26,27.95-33.27.61-16.97-11.6-33.32-31.13-41.66-76.69-8.81-173.91,11.48-296.28,44.67Z"/>
      </g>
      <g>
        <path class="st15" d="M598.23,1326.82l73.43-59.64c6.26-6,7.38-15.59,2.67-22.87l-23.3-36.02,64.36-30.59c11.04,22.83,18.49,40.75,25.46,58.87,9.53,24.77.73,52.76-21.44,67.36-32.12,21.14-77.73,40.4-112.02,45.9,0,0-26.62,8.19-26.62,8.19l-16.94,12.88-1.79-11.38c-1.02-11.74,5.66-27.39,36.18-32.71Z"/>
        <path class="st9" d="M563.84,1371.53c-.08,0-.16-.01-.23-.04-.2-.08-.35-.26-.38-.48l-1.79-11.38c-.7-8.02,1.49-27.23,36.53-33.39l73.3-59.53c5.99-5.75,7.08-15.04,2.54-22.05l-23.3-36.02c-.1-.15-.12-.34-.08-.51s.17-.31.33-.39l64.36-30.59c.31-.15.68-.02.83.29,12.16,25.15,19.7,43.9,25.48,58.92,9.73,25.29.82,53.29-21.68,68.1-33.09,21.78-79.26,40.7-112.26,46-.57.18-1.72.53-4.07,1.26l-22.35,6.88-16.85,12.82c-.11.08-.24.13-.38.13ZM651.94,1208.55l22.91,35.42c4.86,7.52,3.7,17.47-2.76,23.66l-73.47,59.67c-.08.07-.18.11-.29.13-34.18,5.96-36.33,24.39-35.67,32.04l1.63,10.31,16.11-12.25c.06-.04.12-.08.19-.1,0,0,26.39-8.12,26.61-8.19,32.94-5.3,78.91-24.13,111.87-45.83,22-14.48,30.72-41.87,21.2-66.61-5.73-14.89-13.2-33.44-25.17-58.27l-63.17,30.02Z"/>
      </g>
      <g>
        <path class="st15" d="M494.69,1326.74l-73.43-59.64c-6.26-6-7.38-15.59-2.67-22.87l23.3-36.02-64.36-30.59c-11.04,22.83-18.49,40.75-25.46,58.87-9.53,24.77-.73,52.76,21.44,67.36,32.12,21.14,77.73,40.4,112.02,45.9,0,0,26.62,8.19,26.62,8.19l16.94,12.88,1.79-11.38c1.02-11.74-5.66-27.39-36.18-32.71Z"/>
        <path class="st9" d="M529.07,1371.45c-.13,0-.27-.04-.38-.13l-16.85-12.82-22.35-6.88c-2.3-.71-3.47-1.07-4.06-1.32v.06c-33.02-5.3-79.18-24.21-112.28-46-22.5-14.81-31.41-42.81-21.68-68.1,5.78-15.02,13.33-33.77,25.48-58.92.15-.31.52-.44.83-.29l64.36,30.59c.16.08.28.22.33.39s.02.36-.08.51l-23.3,36.02c-4.54,7.02-3.45,16.3,2.58,22.09l73.26,59.5c35.04,6.17,37.22,25.37,36.53,33.35l-1.8,11.42c-.03.22-.18.4-.38.48-.08.03-.15.04-.23.04ZM377.81,1178.45c-11.98,24.83-19.45,43.38-25.17,58.27-9.52,24.74-.8,52.13,21.2,66.61,32.96,21.7,78.93,40.53,111.78,45.81.32.09,26.7,8.21,26.7,8.21.07.02.14.05.19.1l16.11,12.25,1.63-10.35c.66-7.61-1.49-26.04-35.67-32-.1-.02-.2-.06-.29-.13l-73.43-59.64c-6.5-6.23-7.66-16.18-2.8-23.69l22.91-35.42-63.17-30.02Z"/>
      </g>
      <g>
        <path class="st13" d="M720.58,1175.11c-17.45-36.1-44.2-87.07-65.33-96.97-20.87-12.27-64.85-20.72-108.79-20.72s-87.92,8.44-108.79,20.72c-22.33,12.57-47.33,61.19-64.78,97.29l73.33,34.86c9.2,63.97,20.61,126.89,20.61,126.89,1.89,18.12,39.36,25.6,79.63,25.6s77.74-7.48,79.63-25.6c0,0,11.66-63.59,20.81-126.88l73.68-35.19Z"/>
        <path class="st10" d="M546.47,1363.4c-37.48,0-78.24-6.87-80.25-26.16-.11-.58-11.47-63.4-20.56-126.54l-73.03-34.72c-.15-.07-.26-.2-.32-.35s-.05-.33.03-.48c18.85-38.99,43.27-85.31,65.03-97.56,21.15-12.44,65-20.8,109.1-20.8s87.95,8.36,109.11,20.8c16.13,7.56,37.6,39.38,65.57,97.24.07.15.08.32.03.48-.05.16-.17.28-.32.35l-73.38,35.05c-9.04,62.47-20.65,125.94-20.77,126.57-2,19.24-42.76,26.11-80.24,26.11ZM373.73,1175.13l72.76,34.59c.19.09.32.27.35.47,9.1,63.23,20.5,126.24,20.61,126.87,1.93,18.51,42.08,25.09,79.02,25.09s77.09-6.58,79.01-25.04c.12-.68,11.77-64.35,20.81-126.9.03-.21.16-.38.35-.47l73.12-34.92c-27.71-57.24-48.89-88.68-64.76-96.12-21.04-12.37-64.63-20.66-108.53-20.66s-87.49,8.29-108.48,20.63c-21.37,12.03-45.53,57.76-64.26,96.46Z"/>
      </g>
      <g>
        <path class="st15" d="M571.63,1026.89h-47.65l-4.47,53.86c0,23.91,59.27,23.91,59.27,0l-7.15-53.86Z"/>
        <path class="st9" d="M549.14,1099.3c-7.86,0-15.2-1.62-20.67-4.56-6.27-3.37-9.59-8.21-9.59-14l4.47-53.91c.03-.32.3-.57.62-.57h47.65c.31,0,.58.23.62.54l7.15,53.86c0,12.83-15.68,18.64-30.25,18.64ZM524.55,1027.51l-4.42,53.29c0,11.84,15.04,17.26,29.01,17.26s29.01-5.42,29.01-17.31l-7.07-53.24h-46.53Z"/>
      </g>
      <g>
        <g>
          <path class="st17" d="M657.84,1261.07h-224.94c-7.64,0-13.38,6.96-11.92,14.46l20.37,104.89c1.11,5.71,6.11,9.83,11.92,9.83h184.21c5.82,0,10.82-4.12,11.92-9.83l20.36-104.89c1.46-7.5-4.29-14.46-11.92-14.46Z"/>
          <path class="st0" d="M637.48,1390.88h-184.21c-6.1,0-11.37-4.35-12.54-10.34l-20.37-104.89c-.73-3.76.25-7.61,2.68-10.56,2.43-2.95,6.03-4.65,9.85-4.65h224.94c3.83,0,7.42,1.69,9.85,4.65,2.43,2.95,3.41,6.8,2.68,10.56l-20.36,104.89c-1.16,5.99-6.43,10.34-12.54,10.34ZM432.91,1261.69c-3.45,0-6.7,1.53-8.89,4.19-2.2,2.67-3.08,6.14-2.42,9.53l20.37,104.89c1.05,5.41,5.81,9.33,11.31,9.33h184.21c5.51,0,10.26-3.92,11.31-9.33l20.36-104.89c.66-3.39-.22-6.86-2.42-9.53-2.2-2.66-5.44-4.19-8.89-4.19h-224.94Z"/>
        </g>
        <ellipse class="st3" cx="545.37" cy="1331.88" rx="24.37" ry="16.53"/>
      </g>
      <g>
        <g>
          <path class="st15" d="M597.96,991.31c-.61,0-1.22.12-1.82.35v-7.24c0-37.89-19.96-44.57-44.57-44.57s-44.57,6.69-44.57,44.57v7.24c-.59-.22-1.2-.35-1.82-.35-3.69,0-6.17,4.32-5.54,9.65.61,5.1,3.84,9.27,7.35,9.62v2.55c0,13.7,8.09,26.11,20.62,31.64l19.57,8.63c2.79,1.23,5.97,1.23,8.76,0l19.57-8.63c12.54-5.53,20.62-17.94,20.62-31.64v-2.55c3.51-.35,6.75-4.53,7.35-9.62.63-5.33-1.84-9.65-5.54-9.65Z"/>
          <path class="st9" d="M551.57,1054.93c-1.58,0-3.16-.32-4.63-.97l-19.57-8.63c-12.75-5.62-20.99-18.27-20.99-32.2v-2.01c-3.63-.73-6.74-4.94-7.35-10.08-.4-3.35.39-6.51,2.11-8.44,1.39-1.57,3.28-2.2,5.24-1.77v-6.41c0-39.72,21.72-45.19,45.2-45.19s45.19,5.47,45.19,45.19v6.41c1.96-.44,3.85.2,5.24,1.77,1.72,1.93,2.51,5.09,2.11,8.44-.61,5.14-3.72,9.35-7.35,10.08v2.01c0,13.94-8.24,26.58-21,32.2l-19.57,8.63c-1.47.65-3.05.97-4.63.97ZM505.18,991.93c-1.18,0-2.25.51-3.12,1.49-1.49,1.67-2.16,4.47-1.8,7.47.57,4.76,3.55,8.75,6.8,9.08.32.03.56.3.56.62v2.55c0,13.45,7.95,25.64,20.25,31.07l19.57,8.63c2.62,1.16,5.63,1.16,8.25,0l19.57-8.63c12.3-5.43,20.25-17.62,20.25-31.07v-2.55c0-.32.24-.59.56-.62,3.24-.33,6.23-4.31,6.8-9.08.36-3.01-.32-5.8-1.8-7.47-1.24-1.4-2.97-1.84-4.71-1.18-.19.07-.41.05-.57-.07-.17-.12-.27-.31-.27-.51v-7.25c0-38.63-21.12-43.95-43.95-43.95s-43.95,5.32-43.95,43.95v7.25c0,.2-.1.4-.27.51-.17.12-.38.14-.57.07-.54-.2-1.07-.31-1.6-.31Z"/>
        </g>
        <g>
          <path class="st8" d="M533.43,990.09c-1.58,0-2.87,1.28-2.87,2.87v5.13c0,1.59,1.28,2.87,2.87,2.87s2.87-1.28,2.87-2.87v-5.13c0-1.58-1.29-2.87-2.87-2.87ZM569.7,990.09c-1.58,0-2.87,1.28-2.87,2.87v5.13c0,1.59,1.29,2.87,2.87,2.87s2.87-1.28,2.87-2.87v-5.13c0-1.58-1.28-2.87-2.87-2.87Z"/>
          <path class="st8" d="M569.7,1001.58c-1.93,0-3.49-1.57-3.49-3.49v-5.13c0-1.93,1.57-3.49,3.49-3.49s3.49,1.57,3.49,3.49v5.13c0,1.93-1.57,3.49-3.49,3.49ZM569.7,990.71c-1.24,0-2.25,1.01-2.25,2.25v5.13c0,1.24,1.01,2.25,2.25,2.25s2.25-1.01,2.25-2.25v-5.13c0-1.24-1.01-2.25-2.25-2.25ZM533.43,1001.58c-1.93,0-3.49-1.57-3.49-3.49v-5.13c0-1.93,1.57-3.49,3.49-3.49s3.49,1.57,3.49,3.49v5.13c0,1.93-1.57,3.49-3.49,3.49ZM533.43,990.71c-1.24,0-2.25,1.01-2.25,2.25v5.13c0,1.24,1.01,2.25,2.25,2.25s2.25-1.01,2.25-2.25v-5.13c0-1.24-1.01-2.25-2.25-2.25Z"/>
        </g>
        <g>
          <path class="st8" d="M598.1,945.82c-7.54-5.99-31.13-8.66-46.54-8.66s-39,2.67-46.54,8.66c-9.46,7.52-.71,45.7-.71,45.7l2.67,29.62c0,13.7,8.09,26.11,20.62,31.64l19.57,8.63c1.39.61,2.89.92,4.38.92s2.98-.31,4.38-.92l19.57-8.63c12.54-5.53,20.62-17.94,20.62-31.64l2.67-29.62s8.76-38.18-.71-45.7ZM586.06,1008.36c-.63,4.67-4.72,8.09-9.43,7.86-8.07-.38-19.84-.89-25.07-.89s-17,.51-25.07.89c-4.71.22-8.8-3.19-9.43-7.86l-1.58-51.07h72.16l-1.58,51.07Z"/>
          <path class="st8" d="M551.57,1062.95c-1.6,0-3.16-.33-4.63-.98l-19.57-8.63c-12.75-5.62-20.99-18.26-20.99-32.2l-2.67-29.56c-.35-1.49-8.72-38.57.94-46.25,8.06-6.41,33.06-8.79,46.93-8.79s38.86,2.39,46.93,8.79c9.66,7.67,1.29,44.75.93,46.33l-2.66,29.53c0,13.88-8.24,26.53-20.99,32.15l-19.57,8.63c-1.47.65-3.02.98-4.63.98ZM551.57,937.79c-17.17,0-39.18,2.99-46.15,8.52-9.05,7.19-.57,44.7-.49,45.08l2.69,29.7c0,13.5,7.95,25.7,20.25,31.12l19.57,8.63c2.62,1.15,5.64,1.15,8.25,0l19.57-8.63c12.3-5.43,20.25-17.62,20.25-31.07l2.67-29.67c.1-.46,8.58-37.97-.47-45.16-6.97-5.54-28.98-8.52-46.15-8.52ZM577.08,1016.86c-.16,0-.31,0-.47-.01-8.6-.4-19.93-.89-25.04-.89s-16.44.48-25.04.89c-5.07.29-9.4-3.37-10.07-8.4l-1.61-51.77h73.44l-1.61,51.77c-.65,4.87-4.74,8.42-9.6,8.42ZM551.57,1014.72c5.13,0,16.48.48,25.1.89,4.4.19,8.18-2.93,8.78-7.3l1.56-50.39h-70.87l1.56,50.42c.58,4.32,4.35,7.46,8.78,7.26,8.62-.41,19.97-.89,25.1-.89Z"/>
        </g>
        <g>
          <path class="st15" d="M554.45,995.52c-.82,5.05,3.55,13.91,3.29,18.64-.22,4.01-5.16,5.1-9.63,1.23l6.34-19.87Z"/>
          <path class="st9" d="M553.7,1018.42c-1.92,0-4.06-.89-5.99-2.56-.26-.22-.29-.62-.06-.88.22-.26.62-.29.88-.06,2.27,1.97,4.93,2.73,6.78,1.95,1.1-.47,1.75-1.44,1.82-2.74.11-2.06-.71-5-1.59-8.11-1.07-3.79-2.17-7.71-1.7-10.59.06-.34.37-.58.71-.51.34.05.57.37.51.71-.42,2.61.64,6.39,1.67,10.06.9,3.21,1.76,6.25,1.63,8.51-.1,1.77-1.04,3.17-2.58,3.82-.64.27-1.35.41-2.09.41Z"/>
        </g>
        <path class="st9" d="M525.56,984.28c-.27,0-.52-.18-.6-.44-.1-.33.09-.68.42-.77l15.54-4.62c.33-.09.68.09.77.42.1.33-.09.68-.42.77l-15.54,4.62c-.06.02-.12.03-.18.03Z"/>
        <path class="st9" d="M578.26,985.9h-13.4c-.34,0-.62-.28-.62-.62s.28-.62.62-.62h13.4c.34,0,.62.28.62.62s-.28.62-.62.62Z"/>
        <path class="st3" d="M538.27,1027.29c8.81,14.59,17.67,13.94,26.6,4.22l-26.6-4.22Z"/>
        <g>
          <path class="st8" d="M515.44,960.01c16.59-5.77,34.33,9.35,57.04,9.35,18.98,0,33.33-21.26,33.33-34.83,0-12.24-13.78-25.6-38.83-25.6-28.14,0-51.81,14.43-61.95,36.91l10.41,14.19Z"/>
          <path class="st8" d="M572.48,969.97c-10.31,0-19.39-3.02-28.17-5.93-10.59-3.52-19.74-6.56-28.66-3.45l-.43.15-10.9-14.85.15-.33c10.38-22.99,34.33-37.27,62.52-37.27,24.69,0,39.45,13.33,39.45,26.22,0,13.95-14.58,35.46-33.95,35.46ZM523.49,958.08c6.81,0,13.86,2.34,21.21,4.78,8.69,2.88,17.67,5.87,27.78,5.87,18.66,0,32.7-20.75,32.7-34.21,0-12.28-14.29-24.98-38.21-24.98-27.56,0-50.98,13.86-61.23,36.21l9.93,13.53c2.57-.84,5.18-1.19,7.82-1.19Z"/>
        </g>
      </g>
    </g>
  </g>
  <rect class="st13" x="-98.99" y="-277.11" width="142.22" height="142.22"/>
  <rect class="st14" x="91.81" y="-277.11" width="142.22" height="142.22"/>
  <rect class="st11" x="282.62" y="-277.11" width="142.22" height="142.22"/>
  <rect class="st4" x="473.42" y="-277.11" width="142.22" height="142.22"/>
  <rect class="st18" x="664.22" y="-277.11" width="142.22" height="142.22"/>
  <rect class="st5" x="855.02" y="-277.11" width="142.22" height="142.22"/>
  <rect class="st17" x="1045.83" y="-277.11" width="142.22" height="142.22"/>
  <rect class="st1" x="1236.63" y="-277.11" width="142.22" height="142.22"/>
  <rect class="st16" x="1427.43" y="-277.11" width="142.22" height="142.22"/>
  <rect class="st12" x="1618.23" y="-277.11" width="142.22" height="142.22"/>
  <rect class="st3" x="1809.04" y="-277.11" width="142.22" height="142.22"/>
</svg>