<?xml version="1.0" encoding="UTF-8"?>
<svg id="Layer_1" xmlns="http://www.w3.org/2000/svg" version="1.1" viewBox="0 0 500 500">
  <!-- Generator: Adobe Illustrator 29.2.1, SVG Export Plug-In . SVG Version: 2.1.0 Build 116)  -->
  <defs>
    <style>
      .st0 {
        fill: #e6e9e9;
      }

      .st1 {
        fill: #6b7c80;
      }

      .st2 {
        fill: #fee341;
        stroke: #fbcc23;
      }

      .st2, .st3 {
        stroke-miterlimit: 10;
      }

      .st4 {
        fill: #9ca7a9;
      }

      .st5, .st6, .st7 {
        fill: #fff;
      }

      .st3 {
        fill: none;
        stroke: #fff;
      }

      .st8 {
        fill: #65a3d1;
      }

      .st9 {
        fill: #223a3e;
      }

      .st10 {
        fill: #101112;
      }

      .st11 {
        fill: #1a1a1a;
      }

      .st12 {
        fill: #53666a;
      }

      .st13 {
        fill: #0b2429;
      }

      .st6, .st14 {
        opacity: .51;
      }

      .st15 {
        fill: #849294;
      }

      .st16 {
        fill: #f9b8b7;
      }

      .st17 {
        fill: #fbcc22;
      }

      .st14 {
        fill: #faed24;
      }

      .st18 {
        fill: #facacb;
      }

      .st19 {
        fill: #3b5054;
      }

      .st7 {
        opacity: .7;
      }

      .st20 {
        fill: #b5bdbf;
      }

      .st21 {
        fill: #f0efef;
      }

      .st22 {
        fill: #cfd4d4;
      }
    </style>
  </defs>
  <circle class="st19" cx="249.7" cy="249.62" r="181"/>
  <rect class="st0" x="47.3" y="429.57" width="404.81" height="1.53"/>
  <path class="st17" d="M112.41,222.79c0-2.96-.73-5.29-2.19-6.98-1.46-1.69-4.03-3.28-7.71-4.78-3.68-1.5-7.07-3.02-10.19-4.56-3.12-1.54-5.8-3.32-8.05-5.35-2.25-2.03-3.98-4.37-5.18-7.04-1.2-2.66-1.8-5.89-1.8-9.68,0-6.34,2.14-11.57,6.42-15.68,4.28-4.11,9.98-6.5,17.11-7.18v-11.88h8.95v12.1c6.87,1.01,12.26,3.84,16.18,8.47,3.92,4.64,5.88,10.52,5.88,17.65h-19.03c0-3.9-.75-6.9-2.25-9.01-1.5-2.1-3.64-3.15-6.42-3.15-2.48,0-4.4.78-5.77,2.34-1.37,1.56-2.05,3.71-2.05,6.45s.79,4.98,2.36,6.61c1.58,1.63,4.11,3.19,7.6,4.67,3.49,1.48,6.78,3.02,9.88,4.62,3.1,1.6,5.77,3.41,8.02,5.43,2.25,2.03,4.02,4.39,5.29,7.09,1.28,2.7,1.91,5.95,1.91,9.74,0,6.42-2.04,11.65-6.11,15.7-4.07,4.05-9.62,6.42-16.63,7.09v11.31h-8.95v-11.37c-8.18-.86-14.46-3.67-18.83-8.42-4.37-4.75-6.56-11-6.56-18.77h18.97c0,4.28.95,7.53,2.84,9.77,1.89,2.23,4.59,3.35,8.08,3.35,2.55,0,4.56-.76,6.02-2.28,1.46-1.52,2.19-3.61,2.19-6.28Z"/>
  <g>
    <rect class="st9" x="55.65" y="208.36" width="265.2" height="176.23" rx="12" ry="12"/>
    <rect class="st5" x="63.05" y="215.7" width="250.39" height="154.66" rx="7.9" ry="7.9"/>
    <rect class="st19" x="159.28" y="374.74" width="57.94" height="5.18"/>
    <g>
      <rect class="st12" x="159.28" y="384.61" width="28.97" height="40.11"/>
      <rect class="st13" x="188.25" y="384.61" width="28.97" height="40.11"/>
    </g>
    <rect class="st12" x="130.35" y="424.1" width="115.79" height="5.61"/>
  </g>
  <g>
    <rect class="st0" x="73.7" y="226.03" width="91.75" height="57.48"/>
    <g>
      <path class="st3" d="M79.67,278.54c1.32-7.34,3.74-9.53,5.65-10.22,1.73-.63,2.85.06,9.14,1.61,6.35,1.57,9.55,2.34,11.03,1.61,4-1.97,2.08-8.05,6.19-12.64,3.61-4.04,7.1-.78,13.45-4.3,7.66-4.25,6.87-10.75,12.91-12.1,4.97-1.11,7.36,2.88,12.1,1.61,4.53-1.21,7.14-6.14,8.61-9.95"/>
      <g>
        <path class="st8" d="M80.7,278.59c0,.67-.54,1.21-1.21,1.21s-1.21-.54-1.21-1.21.54-1.21,1.21-1.21,1.21.54,1.21,1.21Z"/>
        <path class="st8" d="M159.95,234.16c0,.67-.54,1.21-1.21,1.21s-1.21-.54-1.21-1.21.54-1.21,1.21-1.21,1.21.54,1.21,1.21Z"/>
        <circle class="st8" cx="138.11" cy="242.62" r="1.21"/>
        <circle class="st8" cx="114.24" cy="257.04" r="1.21"/>
        <circle class="st8" cx="85.87" cy="268.2" r="1.21"/>
      </g>
    </g>
  </g>
  <g>
    <rect class="st19" x="90.18" y="326.86" width="20.44" height="43.59"/>
    <rect class="st13" x="85.94" y="326.86" width="4.24" height="43.59"/>
    <rect class="st19" x="134.9" y="307.13" width="20.44" height="63.33"/>
    <rect class="st13" x="130.66" y="307.13" width="4.24" height="63.33"/>
    <rect class="st19" x="178.79" y="281.38" width="20.44" height="88.75"/>
    <rect class="st13" x="174.55" y="281.38" width="4.24" height="88.75"/>
    <rect class="st19" x="223.52" y="258.06" width="20.44" height="112"/>
    <rect class="st13" x="219.27" y="258.06" width="4.24" height="112"/>
    <rect class="st19" x="267.96" y="231.18" width="20.44" height="139.28"/>
    <rect class="st13" x="263.72" y="231.18" width="4.24" height="139.28"/>
  </g>
  <g>
    <circle class="st7" cx="270.8" cy="105.74" r="52.06" transform="translate(-6.89 19.7) rotate(-4.11)"/>
    <circle class="st14" cx="270.8" cy="105.74" r="49.07" transform="translate(-19.64 118.3) rotate(-23.81)"/>
    <circle class="st6" cx="270.8" cy="105.74" r="46.51" transform="translate(-10.7 33.15) rotate(-6.87)"/>
    <path class="st2" d="M226.95,98.98c-3.73,24.22,12.87,46.87,37.09,50.61,24.22,3.73,46.87-12.87,50.61-37.09,3.73-24.22-12.87-46.87-37.09-50.61-24.22-3.73-46.87,12.87-50.61,37.09Z"/>
    <path class="st17" d="M233.97,100.06c-3.14,20.34,10.81,39.37,31.15,42.51,20.34,3.14,39.38-10.81,42.51-31.15,3.14-20.34-10.81-39.37-31.15-42.51-20.34-3.14-39.38,10.81-42.51,31.15Z"/>
    <path class="st5" d="M276.03,116.68c0-1.66-.41-2.96-1.23-3.91-.82-.94-2.26-1.84-4.31-2.68-2.06-.84-3.96-1.69-5.7-2.55-1.74-.86-3.24-1.86-4.5-2.99-1.26-1.13-2.23-2.45-2.9-3.94-.67-1.49-1.01-3.3-1.01-5.42,0-3.55,1.2-6.47,3.59-8.77,2.39-2.3,5.59-3.64,9.57-4.02v-6.65h5.01v6.77c3.84.57,6.86,2.15,9.06,4.74,2.19,2.59,3.29,5.88,3.29,9.87h-10.65c0-2.18-.42-3.86-1.26-5.04-.84-1.18-2.04-1.76-3.59-1.76-1.39,0-2.46.44-3.23,1.31-.77.87-1.15,2.07-1.15,3.61s.44,2.79,1.32,3.7c.88.91,2.3,1.78,4.25,2.61,1.95.83,3.8,1.69,5.53,2.58,1.73.89,3.23,1.91,4.49,3.04,1.26,1.13,2.25,2.46,2.96,3.97.71,1.51,1.07,3.33,1.07,5.45,0,3.59-1.14,6.52-3.42,8.79-2.28,2.27-5.38,3.59-9.31,3.97v6.33h-5.01v-6.36c-4.58-.48-8.09-2.05-10.54-4.71-2.45-2.66-3.67-6.16-3.67-10.5h10.61c0,2.39.53,4.22,1.59,5.46,1.06,1.25,2.57,1.87,4.52,1.87,1.43,0,2.55-.43,3.37-1.28s1.23-2.02,1.23-3.51Z"/>
  </g>
  <g>
    <g>
      <path class="st4" d="M401.14,429.16h34.03c1.82,0,3.31-1.49,3.31-3.31h0c0-1.82-1.49-3.31-3.31-3.31h-34.03c-1.82,0-3.31,1.49-3.31,3.31h0c0,1.82,1.49,3.31,3.31,3.31Z"/>
      <rect class="st4" x="413.9" y="382.84" width="7.56" height="43.49" transform="translate(835.37 809.16) rotate(180)"/>
      <path class="st4" d="M400.19,383.78h37.82c3.9,0,7.09-3.19,7.09-7.09h0c0-3.9-3.19-7.09-7.09-7.09h-37.82c-3.9,0-7.09,3.19-7.09,7.09h0c0,3.9,3.19,7.09,7.09,7.09Z"/>
    </g>
    <g>
      <path class="st18" d="M423.49,271.28l2.7,12.52s-5.69,2.61-10.67-.23l-1.62-7.23s7.6-3.17,9.59-5.06Z"/>
      <path class="st16" d="M409.17,257.1s-17.08,34.92,13.68,15.1c0,0,9.96-18.88-13.68-15.1Z"/>
      <path class="st11" d="M422.41,270.34l1.26-2.89s2.52-4.67-1.26-3.72c0,0,2.84-8.51-13.24-6.62,0,0-9.45-13.24,17.02-5.67,0,0,2.84-4.73,11.34-1.89,0,0,7.56.95,5.67,24.58,0,0-.95,3.78,3.78,3.78,0,0,3.78,1.89,0,3.78,0,0-9.45,1.89-9.45-7.56,0,0-2.84-22.69-10.4-20.8,0,0,11.42,6.76.51,18.98,0,0-3.35,2.77-5.24-1.96Z"/>
      <path d="M416.72,338.88s-32.76,2.94-43.31,12.57c0,0-4.88-2.66-5.82,59.74h8.51s9.45-39.71,7.56-43.49c0,0,27.68,6.09,61.11.68,0,0,5.02-9.19-.63-23.37l-27.41-6.14Z"/>
      <path class="st12" d="M425.86,280.91s4.12-.17,6.95,1.72c0,0,25.39,41.24,22.62,58.44,0,0-2.91,6.58-13.71,3.38l-33.85-6.69,2.7-7.5,4.11,1.91s-8.35-17.4-10.24-17.4c0,0-9.59-12.85.41-21.55,0,0,3.83-11.23,9.75-13.28,0,0,2.41,5.86,11.25.96Z"/>
      <path class="st13" d="M441.4,331.85s-6.7-18.03-11.43-24.64l7.56,22.69s-12.29.95-18.91,0c0,0,3.95,3.91,22.77,1.95Z"/>
      <path d="M388.79,369.11s3.37,4.28,8.09,37.36l-8.51,1.89s-6.07-18.42-6.81-22.45c0,0,3.03-15.37,2.09-18.21l4.72.85.43.55Z"/>
      <path class="st10" d="M381.76,385.67s2.84-16.07,1.89-17.96l4.73.95s-3.16,15.13-6.31,19.38l-.54-1.96.23-.41Z"/>
      <path class="st16" d="M376.09,411.2s-6.62,29.31-8.51,0h8.51Z"/>
      <path class="st16" d="M396.88,406.47s4.73,31.2-8.51,1.89l8.51-1.89Z"/>
      <polygon class="st21" points="409.87 330.22 389.81 292.3 378.92 294.92 398.78 332.73 409.87 330.22"/>
      <path class="st16" d="M410.43,330.67s-26.07-3.39-2.32,6.43l2.32-6.43Z"/>
    </g>
    <g>
      <path class="st4" d="M374.58,429.81h0c.69,0,1.25-.56,1.25-1.25v-80.69c0-.69-.56-1.25-1.25-1.25h0c-.69,0-1.25.56-1.25,1.25v80.69c0,.69.56,1.25,1.25,1.25Z"/>
      <path class="st4" d="M364.88,429.81h0c.52,0,.94-.64.94-1.42v-80.36c0-.78-.42-1.42-.94-1.42h0c-.52,0-.94.64-.94,1.42v80.36c0,.78.42,1.42.94,1.42Z"/>
      <path class="st4" d="M298.55,429.81h0c.52,0,.94-.64.94-1.42v-80.36c0-.78-.42-1.42-.94-1.42h0c-.52,0-.94.64-.94,1.42v80.36c0,.78.42,1.42.94,1.42Z"/>
      <path class="st4" d="M288.85,429.81h0c.69,0,1.25-.56,1.25-1.25v-80.69c0-.69-.56-1.25-1.25-1.25h0c-.69,0-1.25.56-1.25,1.25v80.69c0,.69.56,1.25,1.25,1.25Z"/>
      <path class="st4" d="M279.46,348.51h102.01c1.72,0,3.13-2.13,3.13-4.73h0c0-2.6-1.41-4.73-3.13-4.73h-102.01c-1.72,0-3.13,2.13-3.13,4.73h0c0,2.6,1.41,4.73,3.13,4.73Z"/>
    </g>
    <g>
      <path class="st0" d="M352.45,339.05h27.42c.52,0,.95-.43.95-.95h0c0-.52-.43-.95-.95-.95h-27.42c-.52,0-.95.43-.95.95h0c0,.52.43.95.95.95Z"/>
      <path class="st0" d="M345.16,311.3l6.43,26.38c.15.6.76.98,1.36.83h0c.6-.15.98-.76.83-1.36l-6.43-26.38c-.15-.6-.76-.98-1.36-.83h0c-.6.15-.98.76-.83,1.36Z"/>
    </g>
  </g>
  <path class="st13" d="M76.63,297.04s144.96-50.18,181-149.13h29.07s4.57,100.35-210.07,149.13Z"/>
  <polygon class="st13" points="222.22 152.64 270 104.85 317.78 152.64 222.22 152.64"/>
  <rect class="st13" y="-71.22" width="34.72" height="34.72"/>
  <rect class="st9" x="46.58" y="-71.22" width="34.72" height="34.72"/>
  <rect class="st19" x="93.16" y="-71.22" width="34.72" height="34.72"/>
  <rect class="st12" x="139.73" y="-71.22" width="34.72" height="34.72"/>
  <rect class="st1" x="186.31" y="-71.22" width="34.72" height="34.72"/>
  <rect class="st15" x="232.89" y="-71.22" width="34.72" height="34.72"/>
  <rect class="st4" x="279.47" y="-71.22" width="34.72" height="34.72"/>
  <rect class="st20" x="326.04" y="-71.22" width="34.72" height="34.72"/>
  <rect class="st22" x="372.62" y="-71.22" width="34.72" height="34.72"/>
  <rect class="st0" x="419.2" y="-71.22" width="34.72" height="34.72"/>
  <rect class="st5" x="465.78" y="-71.22" width="34.72" height="34.72"/>
</svg>