<?xml version="1.0" standalone="no"?>
<!DOCTYPE svg PUBLIC "-//W3C//DTD SVG 20010904//EN"
 "http://www.w3.org/TR/2001/REC-SVG-20010904/DTD/svg10.dtd">
<svg version="1.0" xmlns="http://www.w3.org/2000/svg"
 width="1280.000000pt" height="1280.000000pt" viewBox="0 0 1280.000000 1280.000000"
 preserveAspectRatio="xMidYMid meet">
<metadata>
Created by potrace 1.15, written by Peter Selinger 2001-2017
</metadata>
<g transform="translate(0.000000,1280.000000) scale(0.100000,-0.100000)"
fill="#000000" stroke="none">
<path d="M6080 10588 c-94 -7 -266 -29 -343 -44 -40 -8 -24 -18 23 -16 22 2
40 -1 40 -6 0 -15 -49 -32 -89 -32 -37 0 -68 19 -54 33 10 11 -16 8 -38 -3
-10 -6 -19 -14 -19 -19 0 -9 66 -30 117 -37 49 -6 55 -14 10 -14 -45 0 -101
-21 -73 -28 10 -2 23 1 29 7 6 6 17 11 25 11 12 0 12 -3 2 -15 -7 -8 -26 -15
-42 -15 -16 0 -45 -8 -66 -19 -25 -12 -69 -20 -140 -24 -105 -6 -137 -3 -126
15 4 6 -2 8 -17 3 -18 -5 -21 -4 -9 4 8 6 23 8 34 5 13 -4 16 -2 11 6 -5 9 -2
10 13 6 17 -6 20 -3 17 14 -4 23 0 25 58 35 26 4 37 3 33 -4 -4 -6 14 -3 38 6
25 10 48 23 51 31 3 8 1 10 -8 5 -27 -18 -76 -30 -89 -22 -10 7 -9 9 4 9 9 0
19 4 22 9 20 32 -508 -141 -733 -240 -928 -408 -1696 -1190 -2101 -2139 -93
-217 -173 -461 -177 -540 -13 -273 -10 -261 -48 -278 -14 -7 -26 -23 -30 -43
-6 -27 -3 -36 14 -50 22 -18 22 -18 7 -136 -18 -136 -36 -377 -36 -477 0 -61
-3 -70 -25 -88 -21 -16 -25 -28 -25 -73 0 -47 3 -56 28 -74 28 -19 29 -24 41
-158 11 -129 57 -438 67 -455 3 -4 -6 -20 -20 -35 -16 -17 -26 -39 -26 -58 l1
-30 22 28 c13 15 26 27 29 27 6 0 28 -88 28 -110 0 -19 -22 -9 -51 22 -24 27
-29 29 -29 13 0 -10 21 -39 48 -65 45 -44 48 -50 80 -175 19 -72 55 -195 82
-275 30 -89 45 -149 39 -154 -29 -31 5 -132 64 -183 21 -18 55 -73 92 -149 57
-117 171 -323 207 -376 10 -14 18 -35 18 -45 0 -11 6 -27 13 -37 13 -18 14
-18 21 -1 3 10 2 23 -3 29 -6 7 -4 24 6 46 l15 35 21 -29 c12 -16 61 -79 108
-140 48 -61 86 -112 84 -114 -5 -5 -102 42 -132 65 -18 13 -44 44 -59 69 -15
25 -29 43 -31 40 -3 -3 4 -17 14 -33 11 -15 18 -33 16 -40 -2 -6 7 -19 20 -28
14 -9 43 -42 66 -75 23 -33 46 -62 52 -66 6 -3 -6 17 -26 45 l-37 51 85 -43
c71 -36 99 -58 182 -145 l99 -104 1 -74 c0 -62 4 -77 22 -96 l22 -22 -11 36
c-11 38 -3 111 12 106 19 -6 212 -203 227 -231 8 -16 17 -26 20 -23 3 3 0 12
-7 21 -7 8 -8 15 -2 15 9 0 102 -103 102 -113 0 -8 -95 30 -172 69 -38 19 -67
30 -63 23 8 -12 203 -109 221 -109 6 0 17 -7 24 -15 7 -8 16 -13 20 -10 5 3
12 0 16 -6 4 -8 3 -9 -4 -5 -7 4 -12 4 -12 -1 1 -16 25 -40 57 -56 17 -9 34
-25 38 -34 3 -10 27 -34 52 -53 26 -19 65 -54 87 -77 36 -39 67 -59 51 -33 -9
15 6 12 24 -4 9 -8 57 -37 106 -66 50 -28 79 -49 65 -46 -14 3 2 -7 35 -24 33
-16 67 -29 76 -30 32 -1 156 -48 209 -80 57 -35 266 -140 278 -140 3 0 -21 18
-54 39 -51 34 -92 77 -82 86 3 3 46 -5 285 -50 45 -8 93 -15 106 -15 14 0 27
-7 30 -14 4 -11 1 -13 -11 -9 -24 8 21 -25 50 -36 51 -21 -14 -10 -88 14 -42
14 -80 22 -86 19 -14 -9 11 -34 34 -34 11 0 22 -9 25 -20 3 -11 10 -20 16 -20
17 0 119 -51 114 -57 -9 -8 -67 7 -67 18 0 5 -19 9 -42 9 -32 -1 -39 -3 -27
-10 28 -16 330 -87 419 -99 47 -5 135 -17 195 -25 61 -8 213 -23 338 -32 198
-16 253 -16 420 -6 231 14 384 33 577 72 164 33 245 56 445 127 164 58 193 72
176 83 -9 5 -8 9 4 13 9 4 13 3 10 -3 -14 -22 39 2 158 73 43 26 97 51 120 57
75 20 218 70 245 86 15 8 20 13 12 10 -8 -2 -64 -21 -124 -41 -60 -20 -115
-34 -123 -31 -7 3 -28 -3 -46 -14 -36 -22 -68 -26 -65 -8 2 8 -8 11 -32 9 -45
-4 -40 0 50 39 41 18 119 54 173 81 53 27 97 47 97 45 0 -3 -40 -35 -90 -72
-49 -38 -87 -70 -85 -72 5 -6 77 45 175 124 76 61 284 194 303 194 10 0 9 -44
-2 -73 -5 -14 -25 -42 -43 -63 l-33 -39 42 33 c47 37 88 111 80 148 -4 21 4
31 52 63 31 21 88 48 126 61 118 39 314 134 302 147 -3 2 -22 -6 -44 -19 -44
-28 -144 -72 -223 -99 l-55 -19 26 23 c14 12 61 50 105 84 43 34 124 102 179
152 105 95 115 97 115 29 0 -25 -8 -46 -26 -67 -14 -17 -19 -29 -11 -26 7 3
25 20 38 38 19 26 24 44 24 95 l1 62 70 73 c39 39 88 92 109 117 33 38 165
121 165 104 0 -8 -117 -160 -184 -239 -33 -38 -49 -61 -37 -50 27 23 169 196
224 272 21 29 56 66 78 84 22 17 38 34 35 37 -3 3 -13 -1 -23 -9 -15 -12 -16
-12 -8 1 4 8 17 28 28 43 10 16 17 30 14 33 -2 3 -22 -23 -43 -56 -29 -45 -53
-68 -93 -91 -29 -17 -55 -28 -58 -25 -3 3 26 45 64 93 38 48 80 103 92 121 27
39 46 37 47 -4 3 -72 2 -70 19 -48 8 10 15 29 15 42 0 12 35 82 77 154 42 73
102 187 134 253 41 85 67 128 91 146 48 38 91 104 90 139 0 17 -6 45 -13 64
-12 32 -10 38 44 132 70 124 88 172 122 315 18 75 38 130 57 162 35 55 41 116
15 145 -14 15 -15 28 -7 78 5 32 18 129 30 214 11 85 25 171 30 190 5 20 14
68 20 109 6 40 18 86 26 101 11 18 15 38 11 61 -4 19 -8 135 -10 259 -4 199
-21 389 -44 480 l-6 25 -7 -25 -6 -25 -6 23 c-4 15 -2 25 7 28 16 6 3 63 -18
79 -8 6 -14 38 -15 87 -5 183 -162 640 -340 988 -213 417 -460 751 -808 1092
-427 417 -944 735 -1490 916 -164 55 -244 72 -244 53 0 -7 -4 -10 -9 -7 -5 4
-11 1 -13 -4 -5 -15 -117 -21 -140 -9 -11 6 -82 17 -159 25 -182 19 -208 29
-104 39 93 8 158 30 135 45 -21 14 -47 12 -53 -3 -3 -8 -38 -18 -87 -26 -71
-11 -83 -10 -93 3 -7 8 -30 18 -52 21 -38 7 -39 6 -20 -9 38 -30 -7 -17 -97
29 -49 25 -101 45 -116 44 -27 -1 -27 -1 3 -8 17 -4 55 -20 85 -36 30 -15 65
-33 77 -39 13 -6 23 -14 23 -18 0 -3 -39 -8 -87 -10 -77 -3 -93 -1 -133 21
l-45 24 30 -26 30 -26 -110 1 c-60 0 -98 3 -82 5 28 4 38 23 12 23 -24 0 -17
26 11 39 21 9 24 14 14 26 -10 12 -9 15 6 16 16 0 15 2 -4 10 -13 5 -20 14
-17 19 8 13 -280 11 -455 -2z m395 -118 c3 -5 -3 -10 -14 -10 -12 0 -21 5 -21
10 0 6 6 10 14 10 8 0 18 -4 21 -10z m498 -47 c20 -16 36 -32 37 -37 0 -5 -27
-6 -61 -2 -34 3 -79 6 -99 6 -24 0 -48 8 -66 23 l-29 22 45 6 c103 14 135 10
173 -18z m42 17 c8 -13 -15 -13 -35 0 -12 8 -11 10 7 10 12 0 25 -4 28 -10z
m-258 -25 l28 -26 -60 5 c-92 8 -114 8 -196 1 -66 -6 -77 -5 -83 10 -3 9 -4
21 0 26 3 5 68 9 144 9 135 0 140 -1 167 -25z m-367 -10 c0 -12 -17 -15 -102
-15 -107 0 -122 7 -41 19 93 14 143 13 143 -4z m0 -58 c0 -34 -20 -54 -67 -67
-28 -7 -43 -16 -43 -27 0 -13 -10 -15 -70 -11 -38 3 -67 2 -65 -2 3 -4 -2 -11
-11 -14 -27 -10 -36 -7 -30 10 6 15 -2 16 -74 11 -44 -3 -80 -3 -80 0 0 3 14
23 32 45 52 66 89 78 261 78 147 0 147 0 147 -23z m359 19 c-9 -8 -149 -13
-149 -4 0 4 34 8 77 8 42 0 74 -2 72 -4z m76 -6 c4 -7 -3 -8 -22 -4 -38 9 -42
14 -10 14 14 0 29 -5 32 -10z m70 0 c-3 -5 -12 -10 -20 -10 -8 0 -17 5 -20 10
-4 6 5 10 20 10 15 0 24 -4 20 -10z m121 -5 c-11 -8 -29 -15 -41 -15 -12 0
-30 7 -41 15 -17 13 -14 14 41 14 55 0 58 -1 41 -14z m-1871 -5 c-3 -5 -14
-10 -23 -9 -14 0 -13 2 3 9 27 11 27 11 20 0z m1348 -8 c9 -5 -21 -42 -35 -42
-4 0 -8 13 -8 30 0 29 9 31 43 12z m-966 -12 c2 -25 -6 -27 -192 -39 -147 -9
-177 -8 -139 5 10 3 28 9 39 14 83 34 104 37 205 39 79 1 86 -1 87 -19z m472
3 c-8 -9 -29 -23 -48 -30 -22 -9 -30 -17 -23 -22 34 -21 -103 -91 -177 -91
-25 0 -25 0 9 31 18 17 53 39 76 49 23 10 48 27 56 38 7 11 34 24 58 30 63 14
64 14 49 -5z m877 -30 c11 -12 13 -18 5 -21 -13 -4 -41 16 -41 29 0 14 17 10
36 -8z m-1941 -13 c-3 -5 -13 -10 -21 -10 -8 0 -12 5 -9 10 3 6 13 10 21 10 8
0 12 -4 9 -10z m553 -122 c-5 -14 -48 -20 -48 -7 0 7 19 14 43 18 5 0 7 -5 5
-11z m59 -4 c-3 -3 -12 -4 -19 -1 -8 3 -5 6 6 6 11 1 17 -2 13 -5z m78 -14
c-5 -15 -2 -20 11 -20 14 0 15 -3 6 -12 -7 -7 -12 -16 -12 -20 0 -12 71 2 98
20 12 8 32 12 44 9 14 -4 29 0 40 10 10 9 18 13 18 9 0 -11 -61 -99 -78 -113
-20 -16 -252 -18 -252 -3 0 6 7 13 15 16 8 4 15 12 15 19 0 20 70 105 86 105
11 0 13 -6 9 -20z m-174 -40 l50 0 -33 -45 c-37 -50 -74 -62 -64 -20 6 24 4
25 -34 25 -22 0 -40 4 -40 9 0 14 44 40 58 35 8 -2 36 -4 63 -4z m391 -32 c-7
-7 -12 -8 -12 -2 0 14 12 26 19 19 2 -3 -1 -11 -7 -17z m-112 -82 c0 -3 -23
-48 -52 -100 l-51 -96 -135 0 -134 0 27 48 c15 26 41 68 57 94 l30 47 81 4
c45 1 103 4 130 5 26 1 47 0 47 -2z m223 -31 c26 -20 48 -31 52 -25 9 14 69
12 83 -2 10 -10 15 -10 21 1 6 9 11 10 15 2 4 -6 18 -11 31 -11 16 0 28 -9 39
-32 20 -39 20 -48 0 -48 -9 0 -14 -6 -11 -12 2 -7 0 -21 -5 -30 -8 -16 -30
-18 -252 -18 -133 0 -245 2 -248 5 -5 5 48 115 83 172 20 32 23 33 83 33 57 0
68 -4 109 -35z m283 14 c34 -21 57 -19 48 4 -3 8 5 12 23 11 66 -3 63 1 63
-74 0 -63 -2 -70 -19 -70 -16 0 -97 60 -121 89 -3 3 -14 11 -25 17 -23 13 -33
44 -14 44 6 0 27 -9 45 -21z m-885 -81 l-58 -93 -119 4 c-66 1 -125 8 -131 13
-28 23 0 97 31 85 8 -3 28 -2 44 3 17 4 34 4 39 -1 5 -5 18 0 32 13 15 13 35
21 56 20 20 -1 46 8 67 22 18 14 47 25 65 25 l32 1 -58 -92z m-431 57 c0 -8
-4 -15 -10 -15 -5 0 -10 4 -10 9 0 5 -8 12 -17 14 -11 3 -7 5 10 6 18 1 27 -4
27 -14z m77 -5 c1 -12 -4 -20 -13 -20 -20 0 -28 -24 -15 -48 8 -15 6 -24 -13
-41 -36 -34 -52 -25 -22 13 l26 34 -27 18 -27 17 23 8 c13 6 19 13 15 20 -4 7
-3 9 4 5 6 -3 13 -2 17 4 11 17 31 11 32 -10z m1607 -37 c4 -4 48 -7 99 -8 91
0 93 0 162 -44 120 -76 130 -71 -153 -71 l-252 0 2 54 2 54 35 -6 c23 -3 32
-2 27 6 -9 15 64 29 78 15z m-1754 -13 c-8 -5 -24 -9 -35 -9 -16 1 -16 2 5 9
35 11 48 11 30 0z m145 -70 c3 -5 -1 -10 -10 -10 -9 0 -13 5 -10 10 3 6 8 10
10 10 2 0 7 -4 10 -10z m-190 -67 c-22 -15 -70 -50 -107 -77 -36 -28 -74 -56
-85 -63 -15 -10 -4 -12 60 -12 l77 -1 -36 -52 c-65 -94 -52 -88 -193 -88 -113
1 -124 2 -107 15 11 8 30 15 42 15 12 0 27 7 34 15 7 8 9 15 4 15 -4 0 -3 5 4
12 30 30 7 26 -38 -6 -33 -24 -61 -36 -83 -36 -57 0 -76 42 -35 80 19 17 19
20 4 20 -26 0 -11 17 21 23 44 9 70 32 55 49 -9 11 -8 19 3 35 13 19 27 22
127 25 99 3 120 6 168 30 30 15 71 27 90 28 l35 0 -40 -27z m95 20 c0 -10 -62
-73 -73 -73 -4 0 -5 5 -1 11 4 8 -1 9 -17 4 -30 -9 -19 2 34 37 44 28 57 33
57 21z m158 -9 c12 -16 62 -38 69 -30 4 4 -3 9 -15 13 -49 12 -17 23 69 23 52
0 89 -4 87 -9 -1 -6 -34 -73 -73 -149 l-70 -140 -210 -4 c-115 -2 -211 -3
-213 -2 -2 1 13 27 34 58 32 49 78 86 106 86 6 0 21 9 35 20 14 11 20 20 13
20 -9 0 -7 6 5 20 16 18 16 20 2 20 -26 0 -20 21 16 58 30 32 35 33 85 29 30
-2 57 -8 60 -13z m552 -8 c0 -2 -20 -47 -44 -99 -25 -53 -50 -114 -57 -137
l-12 -40 -67 0 c-37 0 -101 -3 -143 -6 -56 -5 -77 -4 -77 5 0 6 29 72 64 146
l65 135 135 0 c75 0 136 -2 136 -4z m423 -6 c170 0 178 -1 172 -19 -4 -14 1
-20 25 -24 22 -5 30 -12 30 -27 0 -13 10 -24 25 -30 15 -6 25 -17 25 -29 0
-11 11 -28 25 -39 19 -15 25 -29 25 -61 l0 -41 -405 0 c-223 0 -405 3 -405 6
0 9 50 134 83 208 l31 69 96 -7 c52 -3 175 -6 273 -6z m1029 -18 c10 -10 8
-14 -10 -18 -12 -4 -22 -13 -22 -21 0 -8 -4 -12 -9 -9 -5 4 -11 1 -13 -6 -3
-8 -14 -6 -36 7 -31 18 -32 18 -53 -1 -24 -21 -58 -20 -76 3 -9 11 -11 -5 -11
-75 0 -144 16 -133 -185 -130 l-172 3 -3 133 -3 133 290 -3 c219 -2 293 -6
303 -16z m-2707 -63 c-9 -13 -116 -61 -123 -54 -4 4 115 65 126 65 2 0 0 -5
-3 -11z m2576 -100 c9 -13 20 -39 23 -56 5 -31 4 -33 -24 -33 -31 0 -30 -2
-46 78 -10 47 17 54 47 11z m-2656 -109 c-11 -5 -29 -9 -40 -9 -17 -1 -17 1
-5 9 8 5 26 9 40 9 23 0 23 -1 5 -9z m2083 -85 l-3 -76 -429 1 c-237 0 -432 2
-434 5 -4 4 25 99 40 128 8 16 38 17 419 17 l410 0 -3 -75z m536 59 c3 -8 -1
-28 -9 -44 -14 -27 -14 -29 1 -23 11 4 23 -1 32 -13 13 -18 14 -17 9 12 -3 18
-9 43 -13 58 -6 25 -4 26 33 26 35 0 46 -7 112 -75 l73 -74 -218 -1 c-121 0
-268 -1 -329 -1 l-110 -1 -3 76 -2 76 209 0 c180 0 210 -2 215 -16z m-1800
-31 c-9 -21 -20 -50 -26 -65 l-10 -28 -211 1 c-117 0 -220 4 -230 7 -15 7 -13
13 18 59 l35 52 93 4 c50 1 149 4 220 5 l127 2 -16 -37z m372 10 c-4 -16 -14
-47 -23 -70 l-16 -43 -144 0 -145 0 6 23 c3 13 15 44 26 70 l21 47 141 0 140
0 -6 -27z m-846 10 c0 -3 -14 -28 -31 -55 l-31 -48 -77 0 c-160 0 -352 13
-348 24 2 5 28 24 58 40 47 26 68 31 159 36 157 9 270 11 270 3z m-490 -20 c0
-4 -13 -22 -28 -40 -26 -31 -28 -32 -87 -25 -66 8 -67 7 20 52 33 17 95 25 95
13z m-80 -98 c0 -3 -42 -70 -94 -148 -84 -129 -117 -182 -200 -329 l-27 -48
-100 0 -100 0 17 33 c25 47 175 271 236 352 38 50 62 73 86 80 19 5 32 16 32
25 0 29 23 40 87 40 35 0 63 -2 63 -5z m478 -20 c2 -2 -21 -48 -52 -102 -31
-54 -91 -167 -132 -250 l-75 -153 -239 0 c-132 0 -240 2 -240 4 0 19 198 350
274 460 l41 58 210 -7 c116 -4 212 -8 213 -10z m509 -9 c1 -1 -12 -38 -29 -82
-17 -43 -56 -153 -87 -244 l-56 -165 -267 -3 c-225 -2 -268 0 -268 12 0 29
200 428 242 482 6 9 71 11 236 7 125 -3 228 -6 229 -7z m335 -6 c47 0 47 0 37
-27 -16 -44 -75 -251 -100 -355 l-24 -98 -65 -1 c-36 -1 -108 -2 -160 -3 l-95
-1 3 25 c5 36 128 403 147 441 l17 32 97 -7 c53 -3 117 -6 143 -6z m979 -4 c2
-2 3 -110 1 -240 l-3 -236 -500 0 -499 0 6 28 c5 22 58 226 106 410 l11 42
437 0 c240 0 439 -2 441 -4z m539 -5 c0 -10 -47 -24 -58 -17 -4 2 -9 -6 -10
-20 -1 -13 4 -24 11 -25 35 -2 53 -10 66 -28 12 -19 15 -19 41 -6 22 11 49 13
89 6 2 -1 -1 -7 -7 -14 -8 -9 -6 -16 6 -24 15 -9 17 -7 17 12 -2 30 -29 67
-46 60 -13 -4 -39 34 -39 57 0 4 49 8 108 8 98 0 111 -2 128 -21 23 -26 86
-59 112 -59 10 0 23 5 29 11 16 16 102 -37 114 -70 9 -23 69 -248 83 -313 6
-27 5 -28 -39 -28 -25 0 -56 7 -69 16 -13 8 -51 16 -84 18 -53 3 -64 7 -85 32
-13 16 -26 37 -30 47 -3 9 -11 17 -16 17 -6 0 -8 -7 -5 -15 7 -18 -4 -19 -32
-2 -61 36 -114 104 -114 148 -1 30 -25 65 -35 49 -3 -5 -10 -8 -15 -5 -4 2
-13 -9 -21 -26 -11 -27 -10 -36 6 -65 9 -18 24 -35 31 -38 8 -3 14 -18 14 -34
0 -15 5 -33 10 -38 6 -6 12 -22 14 -35 4 -36 17 -59 33 -59 8 0 11 4 8 10 -3
6 1 7 9 4 50 -19 -14 -24 -309 -24 l-324 0 -3 236 c-2 130 -1 238 1 240 8 8
411 3 411 -5z m-3110 -51 c-20 -13 -33 -13 -25 0 3 6 14 10 23 10 15 0 15 -2
2 -10z m-56 -72 c-35 -49 -206 -303 -229 -342 -13 -21 -170 -37 -163 -16 2 7
19 21 38 31 19 10 38 25 42 34 5 8 17 15 27 15 14 0 26 17 44 63 14 34 29 62
35 62 6 0 14 4 19 9 5 6 2 6 -6 1 -11 -6 -13 -4 -8 9 4 10 7 22 7 27 0 5 5 9
11 9 6 0 8 -7 5 -16 -12 -31 36 9 54 44 8 17 23 32 32 32 9 0 34 20 55 45 21
24 46 44 56 45 16 0 12 -9 -19 -52z m3855 -107 c8 -14 7 -22 -4 -31 -8 -7 -15
-9 -15 -4 0 5 -3 19 -6 32 -8 27 11 30 25 3z m204 -70 c17 -41 47 -151 47
-170 0 -8 -18 -9 -57 -5 -67 8 -103 35 -103 75 0 15 -4 31 -10 34 -18 11 -10
35 14 41 28 7 41 30 23 41 -8 5 -3 10 13 14 48 14 58 10 73 -30z m140 -22 c-4
-15 -9 -17 -17 -9 -8 8 -7 13 4 20 8 5 16 10 17 10 0 0 -1 -9 -4 -21z m-4483
-228 c0 -5 -35 -78 -78 -162 -58 -115 -162 -355 -197 -456 -1 -1 -38 -5 -84
-9 l-84 -7 7 26 c20 84 20 84 3 62 -9 -11 -17 -34 -17 -51 0 -31 -1 -31 -61
-38 -72 -7 -149 -8 -149 -1 0 10 83 191 138 301 34 66 70 125 83 132 21 14 22
13 16 -26 -4 -21 -18 -64 -32 -95 -25 -53 -60 -205 -51 -215 13 -12 69 102
106 216 51 153 87 219 159 283 l55 49 93 0 c51 0 93 -4 93 -9z m250 -6 c0 -3
-16 -38 -36 -78 -49 -95 -153 -341 -189 -443 l-29 -82 -50 -6 c-64 -7 -176 -8
-176 0 0 19 143 352 203 471 l72 143 102 0 c57 0 103 -2 103 -5z m545 -12
c-48 -121 -104 -283 -144 -415 l-49 -163 -267 -8 c-147 -5 -269 -7 -271 -4
-10 10 109 312 210 530 l35 77 247 0 c230 0 246 -1 239 -17z m605 11 c0 -3
-15 -63 -34 -133 -30 -111 -83 -329 -101 -417 l-6 -31 -297 -5 c-163 -3 -299
-4 -301 -2 -10 10 102 365 179 569 l10 25 275 0 c151 0 275 -3 275 -6z m420
-9 c0 -9 -9 -57 -19 -108 -26 -123 -47 -244 -61 -347 -7 -47 -14 -90 -15 -96
-3 -11 -158 -24 -292 -24 -71 0 -73 1 -68 23 2 12 21 96 40 187 31 140 75 322
90 368 3 9 45 12 165 12 136 0 160 -2 160 -15z m1085 -112 c-1 -71 -2 -201 -3
-290 l-2 -163 -550 0 c-527 0 -550 1 -550 18 0 31 37 266 75 472 8 47 15 86
15 88 0 1 229 2 509 2 l508 0 -2 -127z m1075 112 c7 -8 16 -15 21 -15 5 0 9 7
9 15 0 8 7 15 16 15 10 0 14 -6 11 -14 -3 -8 1 -20 9 -26 8 -7 14 -18 14 -25
0 -6 9 -22 20 -35 13 -15 20 -18 20 -9 0 11 2 11 10 -1 7 -11 10 -7 10 19 0
59 12 26 35 -94 l22 -116 -25 -19 c-14 -11 -43 -23 -64 -27 -42 -6 -61 -27
-74 -76 -4 -19 -18 -34 -40 -44 -27 -13 -35 -25 -45 -65 l-13 -48 -433 0 -433
0 0 48 c0 26 -3 156 -6 290 l-6 242 465 0 c401 0 466 -2 477 -15z m282 -20
c-2 -16 -8 -34 -13 -39 -15 -16 -11 -83 6 -90 18 -7 19 -26 2 -50 -11 -16 -16
-5 -35 87 -28 133 -28 129 11 125 29 -3 32 -6 29 -33z m-4751 -174 c-17 -21
-29 -45 -26 -53 3 -7 -4 -26 -16 -43 -16 -24 -19 -26 -14 -7 10 35 -1 26 -34
-28 -35 -56 -50 -67 -25 -17 19 37 89 143 112 170 30 35 33 16 3 -22z m-141
-302 c-46 -105 -64 -135 -81 -137 -18 -3 -20 0 -14 20 18 58 141 265 152 255
2 -2 -24 -64 -57 -138z m-76 -33 c-19 -41 -34 -79 -34 -84 0 -13 -29 -36 -36
-29 -9 8 89 187 102 187 1 0 -13 -33 -32 -74z m7269 22 c9 -21 14 -38 12 -38
-7 0 -35 58 -35 71 0 18 6 9 23 -33z m104 -125 c-11 -10 -26 8 -51 63 -14 31
-26 59 -26 61 0 3 19 -22 41 -56 23 -34 39 -64 36 -68z m-4954 7 c-1 -8 -4
-36 -8 -62 l-6 -48 -179 0 c-98 0 -181 3 -183 8 -2 4 1 30 5 59 l9 52 67 4
c37 2 119 3 182 3 96 -1 115 -3 113 -16z m1185 -47 l-3 -68 -167 0 c-93 0
-343 1 -558 3 l-390 2 0 28 c0 15 3 44 6 65 l7 37 554 0 554 0 -3 -67z m992
59 c0 -4 -8 -12 -18 -18 -10 -7 -24 -31 -32 -54 -8 -23 -19 -44 -24 -45 -6 -2
-181 -6 -388 -9 l-378 -6 0 70 0 70 420 0 c231 0 420 -3 420 -8z m-2647 -34
c-3 -18 -9 -44 -13 -57 l-6 -23 -294 1 c-161 1 -297 4 -301 7 -4 2 -2 19 3 37
6 17 13 38 14 45 3 10 20 13 59 11 30 -1 58 0 62 4 3 4 113 7 244 7 l239 0 -7
-32z m-658 -10 c-13 -62 -6 -60 -211 -59 -104 1 -226 4 -270 7 l-81 7 10 33
10 33 136 4 c75 1 198 4 274 5 l139 2 -7 -32z m-617 -20 l-11 -31 -105 6 c-57
3 -106 8 -109 11 -3 2 0 14 6 25 10 18 22 21 114 23 56 2 105 2 109 0 4 -1 2
-16 -4 -34z m-265 1 c-6 -21 -9 -21 -122 -14 -64 4 -120 10 -126 13 -17 11 45
20 152 21 98 1 101 0 96 -20z m-491 -34 c9 -9 -68 -212 -91 -241 -19 -24 -21
-25 -21 -6 0 17 45 146 80 230 9 21 21 28 32 17z m58 -17 c0 -21 -14 -35 -32
-35 -19 0 -21 6 -12 31 7 19 44 22 44 4z m7505 -115 c56 -109 84 -187 121
-341 18 -78 -8 -51 -36 36 -12 37 -42 108 -66 157 -53 110 -113 263 -106 270
13 13 28 -8 87 -122z m-7461 105 c-5 -9 -2 -8 9 1 39 31 146 -24 132 -68 -3
-10 1 -24 10 -31 19 -16 19 -29 0 -50 -14 -16 -11 -17 37 -15 76 4 78 4 78 15
0 6 -9 19 -21 31 -11 11 -18 23 -15 26 3 3 -4 13 -14 22 -11 9 -21 27 -22 41
l-3 25 80 -4 c44 -2 82 -5 83 -6 10 -9 -11 -65 -24 -65 -8 0 -14 -5 -14 -11 0
-5 5 -7 11 -3 19 11 -1 -59 -21 -77 -13 -11 -16 -19 -9 -26 7 -7 7 -24 -2 -51
-11 -37 -14 -40 -36 -31 -28 11 -44 4 -37 -15 3 -8 15 -11 30 -8 30 5 30 -4 5
-123 -10 -50 -22 -106 -25 -126 l-6 -37 -78 -7 c-42 -4 -122 -13 -177 -21
-145 -20 -138 -21 -119 24 21 48 22 133 1 146 -17 11 -6 56 70 285 48 146 59
171 74 171 6 0 7 -6 3 -12z m623 -22 c0 0 -16 -62 -38 -136 -21 -74 -52 -193
-68 -264 -16 -70 -33 -132 -38 -136 -13 -13 -203 -24 -203 -11 0 6 9 56 20
111 19 103 49 160 80 158 8 -1 22 2 31 6 8 4 28 2 43 -3 36 -14 49 14 18 39
-12 10 -18 20 -15 24 4 3 1 6 -5 6 -7 0 -12 5 -12 11 0 17 -32 38 -57 39 l-21
0 19 62 c10 35 23 64 28 66 5 2 7 12 4 22 -5 18 0 19 103 13 60 -3 110 -6 111
-7z m457 -10 c102 -3 110 -5 133 -30 13 -14 22 -30 19 -34 -5 -9 -50 -270 -63
-367 l-8 -60 -120 -7 c-66 -4 -200 -12 -299 -18 -98 -6 -181 -9 -183 -6 -6 6
35 196 47 218 6 10 10 27 10 38 0 22 58 237 71 261 9 17 31 17 393 5z m642
-12 l180 -7 -27 -161 c-15 -89 -31 -189 -34 -223 l-7 -61 -67 -6 c-36 -3 -175
-9 -309 -12 l-243 -7 5 34 c3 19 17 104 30 189 14 85 30 179 36 208 l12 52
122 0 c68 0 204 -3 302 -6z m651 -71 c-4 -38 -12 -136 -19 -219 l-12 -151
-193 -8 c-107 -4 -197 -4 -201 -1 -5 6 27 256 50 389 l10 57 186 0 185 0 -6
-67z m721 57 l492 0 0 -205 c0 -156 -3 -207 -12 -210 -7 -2 -271 -6 -586 -8
l-572 -5 4 32 c3 17 10 105 17 196 7 91 16 176 21 189 8 23 11 24 76 17 37 -3
289 -6 560 -6z m1357 -45 c-3 -25 -3 -44 2 -43 4 1 24 -12 43 -30 30 -28 33
-35 22 -52 -14 -24 -16 -60 -2 -60 14 0 40 -67 40 -106 0 -18 -4 -44 -10 -58
l-10 -26 -385 0 c-322 0 -389 2 -401 14 -11 12 -14 54 -14 210 l0 196 361 0
361 0 -7 -45z m-4570 -117 c-24 -73 -48 -152 -55 -176 -8 -32 -15 -42 -28 -40
-21 5 -24 -6 44 173 50 132 69 175 79 175 2 0 -16 -60 -40 -132z m7759 -378
l6 -35 -14 35 c-7 19 -16 53 -19 75 l-6 40 13 -40 c7 -22 16 -56 20 -75z
m-4061 58 c3 -12 3 -104 0 -204 l-6 -183 -561 5 c-309 3 -571 7 -583 10 -22 4
-23 8 -23 112 0 59 3 144 7 189 l6 83 156 3 c86 1 346 4 577 5 l422 2 5 -22z
m947 -8 c0 -20 -11 -43 -35 -69 l-35 -38 21 -19 c30 -27 52 -73 42 -87 -5 -7
-8 -28 -7 -47 1 -19 2 -47 3 -61 1 -16 9 -30 24 -37 17 -8 -28 -11 -183 -11
-113 -1 -298 -4 -412 -8 l-208 -6 0 206 0 207 395 0 395 0 0 -30z m-2193 -102
c-4 -66 -7 -152 -7 -190 l0 -68 -154 0 c-84 0 -180 3 -213 6 l-59 6 13 132 c7
72 15 152 19 178 l6 47 121 4 c67 1 158 4 201 5 l79 2 -6 -122z m-523 -43 c-8
-77 -17 -155 -20 -174 l-5 -33 -142 6 c-78 3 -213 9 -300 12 l-158 6 7 87 c18
225 15 214 54 223 42 9 562 26 572 18 4 -3 0 -68 -8 -145z m-658 83 c-3 -24
-8 -79 -11 -123 -3 -44 -8 -93 -10 -110 l-5 -30 -67 3 c-174 7 -546 32 -550
36 -6 5 28 212 37 225 4 8 402 36 559 40 l53 1 -6 -42z m-676 -2 c0 -6 -30
-167 -36 -194 -4 -21 -9 -23 -66 -20 -57 3 -63 5 -69 28 l-7 25 -7 -22 c-4
-13 -15 -23 -26 -23 -23 0 -25 31 -8 127 12 70 12 70 104 76 97 6 115 7 115 3z
m-726 -30 c-6 -16 -24 -23 -24 -8 0 10 22 33 27 28 2 -2 1 -11 -3 -20z m466
-3 c0 -39 -24 -149 -34 -156 -12 -9 -92 -3 -246 19 -138 19 -130 15 -118 62 8
34 15 41 41 46 35 6 241 33 297 39 19 2 41 5 48 5 6 1 12 -6 12 -15z m-470
-78 c0 -26 -14 -33 -25 -15 -9 14 1 40 15 40 5 0 10 -11 10 -25z m-10 -80 c0
-1 -5 -26 -10 -56 -18 -96 -40 -301 -47 -441 -3 -81 -10 -138 -16 -138 -13 0
-2 275 18 460 19 174 23 190 41 183 8 -3 14 -6 14 -8z m200 -32 c69 -9 127
-18 129 -19 1 -2 -4 -13 -13 -26 -9 -12 -16 -34 -16 -48 0 -15 -12 -41 -27
-59 -16 -18 -31 -43 -34 -55 -4 -17 -9 -11 -22 29 -23 68 -45 81 -81 48 -15
-13 -32 -23 -38 -21 -21 7 -50 168 -30 168 4 0 63 -7 132 -17z m-161 -131 c1
-19 9 -39 21 -49 11 -10 20 -22 20 -28 0 -17 24 -65 33 -65 4 0 7 16 7 35 0
34 24 85 40 85 12 0 31 -52 25 -71 -3 -10 -1 -37 5 -60 8 -28 9 -78 5 -145
l-7 -103 -52 -11 c-28 -6 -80 -19 -115 -30 l-64 -19 7 112 c10 175 37 401 49
416 10 11 13 9 18 -10 4 -13 7 -39 8 -57z m651 63 c0 -10 -10 -15 -30 -15 -20
0 -30 5 -30 15 0 10 10 15 30 15 20 0 30 -5 30 -15z m564 -20 l139 -7 -6 -146
c-4 -79 -8 -147 -10 -149 -3 -2 -42 -6 -89 -10 l-84 -6 -25 39 c-13 21 -28 46
-34 56 -5 10 -15 18 -21 18 -7 0 -28 24 -47 53 -39 57 -70 87 -91 87 -19 0
-50 37 -37 45 6 3 11 10 11 16 0 11 -84 0 -88 -13 -2 -4 -12 -8 -22 -8 -10 0
-22 -4 -25 -10 -9 -14 -38 -12 -59 3 -13 10 -15 18 -8 37 l10 25 173 -11 c96
-6 237 -15 313 -19z m553 -24 c128 -4 235 -10 237 -12 4 -5 -13 -222 -19 -227
-3 -3 -180 -14 -452 -28 l-133 -7 0 85 c0 47 3 112 6 144 l6 60 62 -3 c33 -2
166 -7 293 -12z m720 -21 l63 0 0 -69 c0 -38 -3 -82 -6 -99 l-6 -30 -147 -6
c-80 -4 -177 -7 -215 -9 l-70 -2 2 60 c2 33 5 84 9 114 l6 54 150 -6 c83 -4
179 -7 214 -7z m865 -10 l448 0 0 -84 0 -83 -527 -9 c-291 -4 -555 -8 -588 -9
l-60 0 -3 84 c-2 46 0 91 3 99 5 13 26 14 142 9 75 -4 338 -7 585 -7z m1589
-37 c18 -18 38 -33 43 -33 23 0 101 -103 85 -113 -2 -1 -128 1 -279 4 -151 4
-400 7 -552 8 l-278 1 0 85 0 86 474 -3 473 -3 34 -32z m-1141 -381 c0 -141
-3 -201 -12 -210 -9 -9 -9 -12 0 -12 9 0 12 -30 12 -104 l0 -103 -67 -6 c-38
-4 -94 -7 -127 -7 -48 0 -57 3 -52 15 3 8 2 15 -3 15 -5 0 -14 -7 -21 -15 -10
-12 -45 -15 -194 -15 -99 -1 -293 -5 -431 -10 -174 -6 -252 -5 -256 2 -7 10
-17 261 -22 518 l-2 115 205 5 c113 3 377 7 588 8 l382 2 0 -198z m1037 191
c195 -5 230 -8 215 -19 -9 -7 -25 -14 -34 -14 -18 0 -23 -15 -19 -59 2 -25
-45 -101 -63 -101 -6 0 -22 16 -36 35 -14 19 -29 35 -35 35 -5 0 -19 12 -31
27 l-22 27 -53 -27 c-30 -15 -62 -27 -71 -27 -10 0 -47 -13 -83 -30 -36 -16
-71 -30 -78 -30 -7 0 -24 -8 -37 -17 -14 -10 -26 -16 -28 -15 -8 8 -72 -53
-72 -68 0 -18 -49 -50 -76 -50 -12 0 -34 -29 -34 -44 0 -3 9 -6 20 -6 29 0 25
-34 -7 -62 -16 -12 -34 -35 -40 -50 -8 -18 -20 -28 -33 -28 -13 0 -18 -4 -15
-11 4 -6 -2 -13 -14 -16 -12 -3 -21 -12 -21 -19 0 -8 -7 -17 -15 -20 -24 -10
-17 -27 8 -19 12 3 44 11 71 16 49 10 78 35 117 99 9 15 32 31 55 38 32 10 41
9 56 -5 10 -9 18 -22 18 -30 0 -21 61 -53 102 -53 20 0 40 -5 44 -11 4 -7 12
2 21 22 21 50 70 72 94 43 13 -15 89 -19 89 -5 0 5 -17 24 -37 42 -38 33 -44
58 -20 88 6 7 16 23 22 35 11 23 99 75 127 76 9 0 34 11 54 25 42 29 54 31 54
10 0 -8 7 -15 15 -15 9 0 15 10 15 26 0 17 6 28 20 31 23 6 27 23 6 23 -7 0
-27 7 -42 15 l-29 15 42 0 c31 0 45 5 52 19 12 21 54 35 82 26 15 -5 19 -16
19 -51 0 -32 -4 -44 -15 -44 -15 0 -40 -38 -31 -47 3 -3 12 0 21 7 9 7 18 10
22 7 6 -7 -14 -437 -21 -444 -2 -2 -133 1 -292 7 -159 5 -383 10 -499 10 -115
0 -261 3 -322 7 l-113 6 0 314 0 313 323 0 c177 0 427 -3 554 -7z m-2286 -268
c4 -137 10 -280 14 -318 l6 -69 -198 6 c-109 4 -217 9 -240 12 l-43 5 1 232
c1 128 4 264 8 302 l6 70 115 6 c63 3 162 5 220 5 l105 -1 6 -250z m-565 183
c-3 -29 -8 -164 -12 -300 -6 -226 -8 -248 -24 -248 -38 0 -80 13 -80 25 0 15
-24 68 -48 109 -10 17 -34 38 -52 49 -19 10 -36 23 -38 28 -2 5 -12 9 -22 9
-24 0 -50 42 -50 80 0 19 -8 38 -22 51 -46 40 -138 109 -147 109 -5 0 -28 12
-50 27 -41 27 -56 68 -28 78 13 5 434 32 526 34 l53 1 -6 -52z m-639 -4 c15
-39 -57 -54 -107 -22 l-35 22 30 7 c57 13 105 10 112 -7z m5083 -26 c0 -26
-35 -88 -49 -88 -15 0 -23 -32 -27 -124 -4 -79 -3 -88 11 -76 8 7 15 8 15 2 0
-5 8 -9 18 -8 15 1 17 -8 14 -84 -2 -47 -9 -90 -15 -96 -10 -9 -526 -45 -634
-44 -35 0 -32 53 5 86 16 15 21 24 12 23 -40 -4 -40 -3 -40 140 0 157 -9 142
93 156 45 7 47 6 47 -16 0 -18 3 -20 9 -10 7 11 14 10 39 -7 29 -21 30 -21 35
-2 4 17 12 19 66 16 47 -3 61 -1 61 10 0 8 10 14 24 14 31 0 56 10 56 22 0 15
27 38 46 38 10 0 27 9 38 19 16 15 114 44 169 50 4 1 7 -9 7 -21z m-1083 -62
c4 -6 7 -20 8 -31 0 -16 6 -19 29 -17 15 2 36 -3 45 -11 9 -8 40 -27 69 -41
33 -17 52 -32 49 -40 -6 -16 13 -46 19 -30 10 23 30 42 52 49 22 6 22 6 22
-114 l0 -121 -39 0 c-22 0 -43 5 -46 10 -3 6 -11 10 -16 10 -23 0 21 -29 60
-40 41 -11 42 -12 39 -48 l-3 -37 -65 0 c-59 0 -65 2 -68 22 -5 33 -80 89
-130 97 -52 8 -49 -2 10 -31 24 -12 55 -38 70 -56 l27 -34 -52 -7 c-29 -3 -73
-6 -99 -6 -57 0 -53 -27 -37 260 6 107 11 205 10 217 0 16 4 20 19 16 11 -3
23 -10 27 -17z m-5202 -58 c-4 -13 -15 -32 -25 -43 -10 -11 -21 -41 -25 -67
-4 -26 -13 -49 -21 -52 -8 -3 -14 -13 -14 -21 0 -18 -28 -15 -100 10 -34 12
-35 13 -38 73 l-3 61 68 20 c63 19 136 38 156 40 5 1 5 -9 2 -21z m6684 -86
c8 -15 8 -39 0 -89 -6 -37 -12 -86 -13 -107 -1 -35 -4 -40 -31 -47 -28 -7
-308 -30 -311 -26 -1 1 4 61 10 133 8 91 17 138 28 155 33 48 58 74 58 62 0
-22 59 -26 110 -7 28 10 50 22 50 26 0 12 85 -75 99 -100z m-6929 1 c0 -16 -5
-35 -10 -43 -7 -11 -10 -4 -10 28 0 23 5 42 10 42 6 0 10 -12 10 -27z m-43
-41 c-4 -2 -14 2 -23 8 -13 11 -12 15 3 33 18 19 18 19 23 -9 3 -16 2 -31 -3
-32z m143 -117 c39 -10 45 -15 42 -36 -6 -57 0 -132 13 -163 13 -30 12 -39 -2
-74 -14 -37 -14 -48 0 -114 8 -40 18 -80 21 -88 5 -11 -8 -22 -48 -41 l-54
-27 -6 23 c-12 48 -36 284 -43 414 -6 130 -6 134 13 127 10 -5 39 -14 64 -21z
m6787 -173 c-15 -17 -15 -22 4 -71 11 -30 19 -55 17 -56 -2 -2 -73 5 -158 16
-85 10 -163 18 -172 19 -14 0 -18 9 -18 40 0 24 5 43 13 45 15 6 204 22 276
24 52 1 53 0 38 -17z m-397 -48 l0 -37 -52 6 c-29 4 -123 11 -208 18 -85 6
-162 14 -170 17 -13 5 246 26 383 30 l47 2 0 -36z m-3822 -29 c5 -5 13 -53 16
-105 l7 -95 -70 -3 c-41 -2 -72 1 -76 7 -3 6 -18 11 -32 11 -14 0 -53 10 -85
22 -42 15 -62 18 -70 10 -13 -13 -58 13 -58 33 0 19 -40 66 -51 59 -15 -9 -59
24 -59 46 0 14 9 20 38 23 75 8 431 2 440 -8z m3069 -1 c6 -17 -12 -503 -20
-510 -2 -3 -17 1 -32 8 -33 15 -75 103 -68 141 6 31 -21 77 -30 52 -10 -24
-27 -18 -27 10 0 19 -5 25 -17 23 -14 -2 -17 3 -15 24 2 18 -4 31 -18 41 -13
9 -18 20 -14 31 4 11 1 16 -10 16 -10 0 -28 12 -42 27 l-24 26 -32 -23 -31
-23 7 78 c4 44 9 82 12 87 3 4 84 8 180 8 150 0 175 -2 181 -16z m-1999 -10
l162 -6 0 -279 0 -279 -222 0 c-202 0 -220 1 -201 15 27 19 67 74 60 82 -3 3
-29 -17 -57 -44 -51 -50 -52 -50 -133 -57 -45 -3 -103 -6 -128 -6 l-46 0 -23
73 c-12 39 -29 79 -37 88 -8 10 -37 19 -68 22 -66 7 -135 39 -178 84 -18 19
-46 41 -63 49 -31 15 -32 17 -38 102 -4 48 -9 106 -13 129 l-5 43 413 -5 c228
-3 487 -8 577 -11z m1542 -35 c0 -29 -4 -48 -10 -44 -5 3 -7 12 -4 20 3 8 -4
20 -15 27 -12 7 -21 18 -21 25 0 6 -15 14 -32 16 -20 2 -11 4 25 5 l57 2 0
-51z m935 20 c143 -11 262 -22 264 -24 14 -14 -111 -629 -131 -641 -5 -3 -102
4 -216 17 l-207 22 -40 42 c-22 23 -46 44 -53 46 -11 4 -11 42 -3 199 6 107
11 235 11 283 l0 88 58 -6 c31 -3 174 -14 317 -26z m-1619 -9 c-3 -16 -9 -44
-12 -61 -5 -25 -10 -30 -26 -26 -29 8 -56 -25 -64 -80 -3 -26 -12 -55 -20 -63
-7 -9 -19 -42 -26 -74 -8 -38 -20 -63 -32 -70 -39 -22 -101 -68 -101 -74 -1
-4 -11 -23 -23 -42 -12 -19 -22 -39 -22 -43 0 -4 -48 -6 -107 -5 -105 3 -108
4 -107 26 0 12 1 137 2 277 l2 254 98 4 c53 1 175 4 270 5 l174 2 -6 -30z
m350 6 c3 -14 12 -27 20 -30 7 -3 13 -18 13 -33 0 -15 2 -40 6 -55 6 -23 2
-30 -36 -54 -24 -15 -60 -38 -80 -51 -19 -13 -40 -23 -47 -23 -6 0 -22 -11
-36 -25 -43 -43 -66 -31 -86 44 -9 33 -16 196 -11 244 1 4 57 7 126 7 124 0
125 0 131 -24z m1819 -51 c189 -22 180 -19 223 -83 39 -59 67 -126 58 -140 -3
-4 0 -26 5 -48 38 -151 41 -175 24 -200 -16 -24 -15 -48 1 -126 3 -16 4 -28 2
-28 -2 0 -82 -11 -179 -23 l-176 -23 -147 21 c-80 12 -148 24 -151 27 -3 3 11
72 30 154 28 124 58 276 90 462 6 32 7 33 48 27 23 -3 101 -12 172 -20z
m-6547 -237 c6 -18 29 -82 51 -143 22 -60 41 -113 41 -117 0 -10 -172 50 -186
65 -16 17 -47 153 -39 167 7 11 102 60 116 60 3 0 11 -15 17 -32z m7758 -112
c-3 -14 -11 -26 -16 -26 -11 0 -14 53 -3 63 13 13 26 -12 19 -37z m-7596 -297
c22 -46 40 -91 40 -100 0 -8 14 -36 30 -62 17 -26 30 -50 30 -52 0 -3 -33 -21
-72 -41 -40 -20 -81 -43 -90 -52 -17 -14 -20 -11 -43 42 -20 46 -145 406 -145
419 0 2 47 -13 105 -33 l106 -36 39 -85z m3523 -16 c3 -71 3 -132 0 -136 -6
-10 -784 2 -858 13 -38 6 -45 9 -30 15 35 13 123 121 141 174 l18 50 81 4 c44
1 206 4 361 5 l281 2 6 -127z m307 110 c0 -10 -20 -40 -45 -67 -25 -26 -45
-53 -45 -58 0 -6 -8 -8 -17 -6 -16 4 -18 -2 -15 -59 3 -58 2 -63 -17 -63 -20
0 -21 5 -21 135 l0 135 80 0 c70 0 80 -2 80 -17z m1960 -89 c85 -9 159 -20
163 -24 5 -4 4 -17 -2 -27 -9 -18 -28 -21 -183 -32 -95 -7 -182 -14 -194 -16
-20 -4 -21 -1 -17 48 6 76 8 79 45 73 18 -3 103 -13 188 -22z m347 -47 c2 -2
-22 -7 -54 -10 -62 -7 -68 -5 -60 16 4 11 16 13 57 6 29 -4 54 -10 57 -12z
m553 -4 c-1 -41 -12 -44 -91 -26 l-74 17 75 12 c41 6 78 12 83 13 4 0 7 -7 7
-16z m-147 -59 c48 -10 87 -22 87 -29 0 -6 -6 -19 -13 -30 -7 -11 -19 -36 -26
-55 -8 -19 -28 -69 -46 -110 -57 -131 -75 -212 -56 -248 11 -21 23 -212 13
-212 -4 0 -57 13 -118 30 -117 31 -422 94 -511 106 -30 4 -53 12 -53 18 0 7
15 51 34 97 19 47 60 162 91 256 l56 170 142 16 c165 18 277 16 400 -9z m-613
-23 c0 -15 -99 -311 -136 -408 -30 -78 -40 -93 -58 -92 -11 0 -100 11 -196 23
l-175 23 3 57 c2 34 11 70 23 89 10 18 19 39 19 48 0 9 15 36 34 60 18 24 36
53 39 64 4 11 19 33 34 49 17 19 21 27 10 23 -19 -7 -30 5 -22 25 4 9 22 16
43 17 20 1 102 8 182 15 187 17 200 18 200 7z m-6067 -111 c14 -36 28 -73 32
-82 4 -11 3 -18 -3 -18 -9 0 -62 144 -62 167 0 14 10 -5 33 -67z m3653 25 c7
-2 12 -50 13 -138 l2 -135 -103 -6 c-57 -3 -227 -8 -378 -12 -151 -3 -327 -9
-390 -13 -63 -4 -118 -5 -122 -2 -3 3 -14 54 -24 112 l-18 106 26 32 c15 17
30 40 33 52 l7 20 471 -6 c260 -4 477 -8 483 -10z m183 -77 c13 -86 34 -150
59 -180 14 -17 12 -18 -36 -18 l-52 0 0 140 c0 77 4 140 8 140 5 0 14 -37 21
-82z m-3442 -76 c98 -99 111 -115 136 -183 15 -41 37 -98 48 -127 12 -29 20
-55 18 -57 -10 -10 -229 53 -335 96 l-71 29 -58 120 c-48 99 -56 122 -45 135
15 18 166 95 186 95 7 0 62 -49 121 -108z m-285 -122 c46 -100 48 -111 16 -86
-16 12 -78 151 -78 175 0 30 19 2 62 -89z m7378 25 c0 -25 -8 -38 -42 -65 -32
-26 -40 -29 -34 -14 44 119 51 132 63 122 7 -6 13 -25 13 -43z m-7426 -24 c24
-59 24 -62 5 -50 -33 23 -53 63 -45 94 9 34 8 34 40 -44z m4822 46 c4 -3 -13
-77 -18 -82 -2 -3 -43 -2 -91 2 -72 5 -87 9 -87 23 0 20 33 39 79 45 19 2 39
9 45 15 9 9 62 7 72 -3z m139 -46 c17 -3 46 -18 64 -32 l33 -26 -78 5 c-44 2
-83 8 -88 12 -5 5 -6 21 -2 35 5 20 11 25 24 20 9 -4 31 -10 47 -14z m-485
-11 c0 -5 -5 -10 -11 -10 -5 0 -7 5 -4 10 3 6 8 10 11 10 2 0 4 -4 4 -10z
m-870 -269 l0 -240 -282 6 c-306 6 -308 6 -330 63 l-10 25 -18 -23 c-11 -13
-21 -18 -25 -12 -12 20 -27 10 -21 -15 l6 -25 -105 0 c-58 0 -105 2 -105 4 0
1 -11 48 -24 102 -34 136 -66 285 -66 305 0 14 20 17 153 24 197 10 526 21
695 23 l132 2 0 -239z m275 192 c10 -27 23 -75 29 -108 12 -59 13 -60 49 -66
21 -3 50 -18 65 -32 35 -34 55 -34 82 0 l21 27 23 -29 c22 -28 26 -29 57 -18
19 6 48 14 65 18 36 7 69 39 77 75 8 35 46 73 64 66 11 -4 13 -2 9 9 -7 19 14
66 25 59 5 -3 9 -14 9 -25 0 -12 7 -19 18 -18 10 0 12 3 5 6 -7 2 -13 18 -13
34 0 24 4 29 24 29 17 0 28 -9 38 -30 16 -37 24 -38 35 -3 9 27 10 27 94 25
46 -2 97 -5 112 -8 26 -5 28 -9 22 -37 -16 -82 -88 -373 -94 -379 -3 -3 -142
-10 -309 -14 l-303 -7 17 36 c21 44 17 50 -24 36 -23 -8 -41 -8 -64 0 -38 13
-51 1 -44 -40 5 -24 1 -27 -32 -33 -57 -9 -190 -7 -197 3 -3 5 -2 113 1 240
l7 231 58 0 57 0 17 -47z m-1310 -70 c10 -43 32 -135 50 -205 l33 -128 -92 1
c-123 1 -141 7 -140 46 1 17 11 40 23 52 11 11 21 27 21 34 0 8 8 21 19 31 14
13 17 26 13 65 -4 41 -1 50 17 63 17 12 20 22 15 42 -7 30 2 76 16 76 5 0 16
-35 25 -77z m2470 60 c44 -4 87 -8 95 -9 8 0 27 -2 42 -3 17 0 42 -16 67 -41
22 -22 47 -40 55 -40 21 0 20 -22 -4 -155 -11 -60 -20 -110 -20 -111 0 -10
-487 -40 -497 -30 -4 4 65 298 93 394 3 9 16 12 46 8 24 -3 79 -9 123 -13z
m-4871 -141 c27 -48 78 -133 114 -189 61 -99 63 -104 52 -138 -6 -19 -13 -35
-15 -35 -11 0 -245 441 -245 463 0 4 10 2 23 -4 12 -6 44 -48 71 -97z m5406
88 c188 -23 230 -32 230 -49 -1 -9 -23 -63 -50 -121 l-49 -105 -113 -12 c-62
-6 -138 -12 -169 -12 l-56 -1 23 123 c12 67 25 139 29 160 6 36 8 37 38 32 18
-2 70 -9 117 -15z m-5372 -39 c34 -17 226 -78 312 -99 23 -5 36 -15 38 -28 2
-10 8 -29 14 -41 13 -27 18 -22 -59 -63 -34 -18 -80 -48 -102 -66 l-39 -34
-20 27 c-61 87 -198 323 -187 323 3 0 22 -8 43 -19z m5832 -31 c148 -27 423
-90 433 -99 11 -11 -220 -45 -650 -96 -24 -2 -43 -1 -43 4 0 4 22 56 50 115
45 95 52 106 72 101 13 -2 75 -14 138 -25z m1149 -141 c-51 -102 -120 -219
-129 -219 -20 0 -14 29 15 75 18 27 41 68 53 90 26 51 82 128 88 122 3 -3 -9
-34 -27 -68z m-640 -61 c-24 -46 -112 -181 -193 -293 -53 -72 -156 -205 -160
-205 -1 0 -36 11 -77 25 -109 38 -247 74 -392 104 -70 15 -129 29 -130 32 -2
5 61 124 130 246 14 26 33 44 46 47 12 2 123 16 247 31 124 15 297 39 385 54
117 19 161 23 163 14 2 -6 -7 -31 -19 -55z m-5926 -64 c10 -27 32 -88 47 -136
16 -48 36 -98 45 -111 9 -14 17 -33 19 -44 3 -11 25 -51 51 -89 32 -48 42 -70
32 -72 -8 -2 -49 10 -93 26 l-79 28 -87 109 c-48 60 -104 133 -125 163 l-37
55 32 26 c44 37 155 102 167 98 5 -2 18 -26 28 -53z m5002 -112 c-32 -60 -65
-119 -75 -132 l-17 -23 -112 18 c-90 15 -111 21 -106 33 3 8 14 55 25 105 11
50 21 91 22 92 9 7 314 29 316 23 2 -4 -22 -57 -53 -116z m-359 71 c-2 -10
-12 -53 -21 -95 -15 -68 -20 -78 -39 -78 -11 0 -104 9 -206 20 -102 11 -203
21 -225 22 -38 3 -40 4 -38 35 6 76 12 80 115 87 51 4 149 10 218 15 204 13
202 13 196 -6z m-2597 -19 c9 -11 34 -94 29 -99 -2 -2 -97 -13 -212 -25 -115
-11 -238 -25 -275 -30 -99 -14 -99 -14 -110 28 -23 92 -23 87 14 102 19 7 36
18 38 24 6 14 504 14 516 0z m319 -17 c6 -5 12 -14 12 -20 0 -7 15 -19 33 -26
32 -14 31 -14 -53 -22 -137 -12 -210 -13 -220 -3 -5 5 -12 27 -15 49 l-7 40
119 -5 c65 -3 124 -9 131 -13z m1695 16 c3 -5 -2 -30 -10 -57 l-14 -48 -42 6
c-48 6 -387 22 -680 32 -195 6 -198 7 -195 28 3 20 9 21 127 24 69 1 132 0
140 -4 9 -4 21 -6 26 -4 6 2 150 9 320 15 171 7 313 13 317 13 4 1 9 -1 11 -5z
m-1073 -37 c0 -22 -4 -23 -82 -29 -46 -4 -141 -7 -211 -7 -129 0 -152 5 -217
49 -10 8 65 11 248 11 l262 0 0 -24z m-1604 -103 l6 -40 -42 -7 c-22 -3 -45
-4 -51 -1 -20 13 -7 49 28 82 41 39 48 35 59 -34z m1607 -15 c3 -35 6 -151 7
-259 l2 -196 -179 -7 c-98 -4 -249 -11 -337 -17 -87 -6 -162 -7 -167 -2 -7 8
-139 397 -157 465 -10 35 -9 37 16 42 15 3 82 8 150 12 l123 6 38 -41 c37 -40
81 -55 96 -31 3 6 15 10 25 10 28 0 34 18 16 45 l-16 25 167 3 c93 1 178 4
189 5 20 2 22 -4 27 -60z m555 47 c209 -5 471 -21 479 -28 4 -5 -96 -307 -137
-415 -18 -46 -38 -86 -46 -89 -7 -3 -91 0 -186 6 -95 6 -258 13 -361 17 l-188
7 6 246 c4 135 8 252 11 259 2 9 28 11 101 7 54 -2 198 -7 321 -10z m2283 -9
c-18 -47 -141 -285 -150 -290 -8 -5 -52 8 -70 21 -2 1 16 26 41 55 24 29 75
95 112 146 37 50 69 92 72 92 2 0 -1 -11 -5 -24z m48 -164 c-17 -83 -25 -102
-52 -128 -35 -35 -74 -48 -97 -34 -11 7 1 38 65 167 l80 158 12 -33 c9 -27 7
-51 -8 -130z m-3744 18 c57 -172 69 -204 104 -293 17 -43 31 -81 31 -86 0 -20
-214 -23 -429 -7 -118 10 -216 18 -218 19 -3 4 -110 369 -117 403 l-7 31 143
17 c216 26 400 44 427 43 22 -2 29 -14 66 -127z m2230 99 c116 -12 215 -24
221 -28 12 -6 -15 -124 -75 -328 -27 -91 -37 -112 -55 -117 -11 -3 -109 -10
-217 -17 -183 -11 -329 -7 -329 10 0 4 21 58 46 121 26 63 66 173 90 243 24
71 46 132 48 136 3 4 18 6 33 5 15 -2 123 -13 238 -25z m430 -55 c55 -9 101
-18 103 -19 6 -5 -200 -317 -237 -362 -23 -27 -108 -35 -98 -9 16 40 77 242
97 319 13 48 26 87 29 87 3 0 50 -7 106 -16z m-3365 -81 c13 -49 39 -133 57
-187 18 -55 31 -101 29 -103 -8 -9 -185 267 -195 304 -16 55 -14 61 17 66 69
10 66 13 92 -80z m3900 -33 c63 -18 139 -41 167 -52 l53 -19 -46 -54 c-31 -35
-56 -55 -78 -59 -110 -23 -651 -96 -708 -96 -12 0 5 31 62 110 43 61 99 143
124 184 l46 74 133 -28 c72 -16 184 -43 247 -60z m-3975 -91 c25 -39 64 -95
86 -125 21 -29 39 -57 39 -62 0 -7 -196 9 -277 23 -46 8 -43 35 12 88 33 33
45 53 45 74 0 29 24 73 40 73 5 0 30 -32 55 -71z m4697 -16 c-33 -38 -78 -85
-100 -107 l-40 -38 -36 38 c-19 22 -36 42 -36 46 0 9 145 78 164 78 7 0 24 8
37 19 24 18 46 29 63 30 4 1 -19 -29 -52 -66z m-5890 26 c59 -20 68 -27 87
-64 23 -47 25 -63 11 -85 -8 -12 -18 -6 -60 35 -68 66 -138 150 -120 142 8 -3
45 -16 82 -28z m5487 -33 c11 -12 11 -15 -5 -24 -11 -5 -37 -12 -59 -16 -22
-4 -49 -10 -59 -13 -16 -4 -13 3 14 37 29 37 37 41 64 36 17 -4 37 -13 45 -20z
m134 -75 c56 -39 101 -87 93 -100 -13 -20 -262 -235 -357 -307 -74 -56 -110
-76 -157 -88 -84 -22 -87 -21 -52 22 104 122 203 252 281 369 82 122 92 133
120 133 17 0 48 -12 72 -29z m-163 3 c0 -14 -174 -267 -247 -359 -109 -137
-104 -135 -156 -98 -23 17 -62 40 -87 53 l-44 22 39 32 c48 37 243 215 247
225 2 3 26 28 54 54 42 39 62 49 115 61 79 17 79 17 79 10z m-210 -43 c0 -5
-62 -68 -137 -139 -168 -157 -209 -193 -215 -187 -12 12 -215 77 -329 106 -68
17 -126 32 -128 35 -2 2 12 23 32 47 l36 44 113 12 c140 15 601 81 607 87 8 7
21 4 21 -5z m-5081 -87 c8 -10 0 -5 -18 12 -22 21 -31 36 -25 45 6 10 11 7 18
-12 6 -15 17 -35 25 -45z m1100 0 c87 -7 112 -21 142 -77 12 -20 18 -18 -116
-47 -55 -12 -157 -41 -227 -65 l-127 -42 -36 29 c-32 27 -34 33 -29 67 5 34 3
40 -24 60 -27 19 -29 24 -19 45 11 22 16 24 65 20 46 -4 56 -1 74 19 20 22 21
22 117 10 53 -7 134 -15 180 -19z m1571 -19 l0 -25 -147 1 c-82 1 -222 5 -313
8 -150 6 -159 7 -99 15 36 4 164 11 285 15 120 4 231 9 247 9 23 2 27 -2 27
-23z m521 9 c97 -3 192 -9 210 -13 34 -7 -303 -21 -513 -21 -98 0 -108 2 -108
18 0 10 3 22 7 26 5 4 57 5 118 2 60 -3 189 -8 286 -12z m1080 -21 c-5 -10
-21 -29 -35 -42 -34 -32 -50 -18 -31 27 12 26 20 32 45 32 26 0 29 -3 21 -17z
m-2783 -3 c71 0 39 -16 -59 -30 -86 -13 -93 -12 -105 5 -25 33 -17 38 54 32
37 -4 86 -7 110 -7z m2636 -12 c-3 -13 -7 -24 -8 -25 -4 -6 -146 22 -146 28 0
5 28 10 63 12 34 2 70 4 80 5 15 2 17 -3 11 -20z m-2236 -14 c56 -4 92 -11 92
-18 0 -6 43 -96 95 -201 52 -104 93 -190 92 -190 -1 -1 -90 -14 -197 -29 -107
-16 -210 -31 -229 -34 -33 -4 -40 1 -198 162 -172 174 -221 243 -185 258 26
11 330 56 388 57 28 1 92 -2 142 -5z m2040 -18 c90 -13 166 -26 168 -29 6 -5
-42 -139 -67 -189 -26 -51 -196 -215 -237 -229 -42 -14 -103 -4 -96 15 7 19
-27 29 -57 18 -13 -5 -40 -8 -59 -8 -114 6 -105 4 -84 27 l19 21 -33 -19 c-27
-15 -34 -16 -41 -4 -7 10 -21 12 -55 7 -25 -4 -46 -5 -46 -3 0 2 36 71 79 152
44 82 90 172 101 201 l22 53 56 4 c132 8 175 6 330 -17z m-1537 -2 l276 -6 7
-97 c3 -53 6 -132 6 -177 l0 -81 -120 -7 c-66 -3 -173 -9 -238 -12 l-118 -7
-82 172 c-46 95 -85 186 -89 202 l-6 31 44 -6 c24 -3 168 -8 320 -12z m1099
11 c0 -2 -20 -51 -45 -107 -56 -128 -127 -259 -147 -271 -22 -15 -91 1 -84 19
7 19 0 18 -24 -6 -23 -23 -56 -24 -284 -13 l-137 6 6 176 c3 96 7 176 8 177 1
2 144 7 317 12 173 5 332 10 353 10 20 1 37 0 37 -3z m700 -64 c0 -5 -7 -14
-15 -21 -16 -14 -18 -10 -9 14 6 17 24 22 24 7z m-2905 -48 c10 -27 53 -119
96 -206 l79 -159 -38 6 c-20 3 -95 13 -165 21 -123 15 -131 17 -191 58 -78 52
-255 190 -256 198 0 8 234 84 335 108 118 29 119 29 140 -26z m3047 27 c167
-39 358 -103 358 -119 0 -9 -171 -141 -250 -193 -53 -34 -62 -37 -230 -57
-208 -25 -210 -25 -210 -6 0 8 25 66 55 129 30 62 55 117 55 121 0 9 123 145
132 145 4 0 45 -9 90 -20z m-3623 -56 c36 -30 38 -40 13 -48 -10 -4 -45 -22
-78 -42 -49 -29 -62 -34 -77 -24 -24 15 -32 7 -13 -13 8 -8 12 -17 9 -21 -3
-3 -32 22 -64 57 -32 34 -56 63 -54 65 2 2 21 -6 44 -17 64 -33 97 -23 67 21
-29 41 -21 48 53 48 60 0 74 -3 100 -26z m154 -127 c45 -34 110 -82 145 -106
34 -24 62 -46 62 -48 0 -7 -337 53 -437 78 l-47 12 37 32 c30 26 141 94 155
95 2 0 41 -28 85 -63z m739 -124 c48 -44 84 -83 81 -87 -4 -3 -37 -6 -75 -6
l-69 0 -64 133 c-36 72 -65 137 -65 142 0 6 24 -15 53 -45 28 -30 91 -92 139
-137z m3194 141 c32 -19 70 -46 83 -58 l23 -24 -68 -15 c-101 -23 -342 -67
-367 -67 -16 0 -4 12 43 44 36 25 97 69 135 99 39 30 75 56 81 56 5 1 37 -15
70 -35z m210 -89 c-23 -17 -36 -19 -36 -6 0 11 18 19 40 20 11 0 10 -3 -4 -14z
m-1057 -67 c-19 -38 -34 -57 -38 -49 -4 6 -15 9 -24 5 -9 -3 -17 -2 -17 4 0
12 91 102 103 102 4 0 -7 -28 -24 -62z m-3194 17 c61 -13 169 -33 240 -45 126
-21 133 -23 230 -82 55 -34 104 -65 109 -69 4 -4 -6 -15 -24 -24 -18 -9 -52
-37 -76 -62 -33 -33 -49 -43 -63 -38 -13 4 -18 12 -14 21 4 12 0 15 -18 13
-30 -3 -42 2 -159 58 -176 84 -283 149 -340 209 -52 54 -54 56 -25 49 17 -4
80 -17 140 -30z m4175 20 c10 -12 0 -22 -59 -60 -39 -25 -74 -45 -78 -45 -4 0
19 27 52 60 33 33 62 60 66 60 4 0 12 -7 19 -15z m-4344 -22 c-7 -7 -26 7 -26
19 0 6 6 6 15 -2 9 -7 13 -15 11 -17z m4194 -59 c-82 -82 -91 -89 -265 -174
-99 -48 -190 -91 -201 -94 -17 -5 -26 0 -41 27 -11 18 -41 47 -67 63 -25 16
-46 31 -46 34 1 3 55 36 120 74 117 69 122 70 252 92 73 13 174 32 223 43 50
10 94 19 100 20 5 1 -29 -38 -75 -85z m-2098 10 c3 -29 0 -38 -16 -45 -12 -5
-34 -17 -51 -27 -26 -16 -52 -19 -179 -18 l-149 1 -30 48 c-16 26 -27 51 -24
54 8 8 189 20 328 22 l117 1 4 -36z m254 21 c-10 -8 -23 -12 -28 -9 -5 3 -14
1 -21 -4 -12 -10 -63 -16 -99 -13 -11 0 -18 9 -18 21 0 19 7 20 93 20 82 -1
90 -2 73 -15z m-723 -42 c13 -21 27 -44 32 -52 7 -12 -14 -13 -143 -8 -241 11
-354 20 -345 27 8 8 217 43 348 59 39 5 73 9 77 10 4 0 18 -16 31 -36z m-858
-24 c64 -7 116 -17 124 -25 18 -17 19 -16 -56 -46 l-62 -25 -86 52 c-104 64
-110 69 -65 62 19 -4 85 -11 145 -18z m2975 18 c0 -2 -33 -24 -72 -49 -86 -53
-155 -65 -165 -28 -6 22 -11 24 -45 11 -15 -5 -34 -3 -58 7 l-35 16 50 8 c154
25 325 43 325 35z m-3594 -58 c10 -12 64 -55 119 -96 55 -42 102 -78 105 -80
12 -11 -58 23 -90 44 -19 13 -38 23 -42 23 -27 0 -128 100 -128 126 0 11 19 2
36 -17z m1129 -84 c61 -45 146 -104 189 -131 44 -27 79 -53 78 -59 -3 -12 -45
-14 -53 -2 -4 5 -21 4 -42 -1 -20 -6 -38 -8 -41 -5 -3 3 -45 6 -93 6 -138 -1
-172 19 -256 144 -37 55 -67 105 -67 111 0 18 61 31 120 25 50 -5 66 -14 165
-88z m190 64 c157 -8 222 -15 227 -24 16 -27 103 -142 131 -172 l30 -32 -34
-5 c-191 -32 -204 -33 -229 -23 -64 28 -367 239 -386 268 -3 6 4 8 18 5 12 -3
122 -10 243 -17z m-1123 -62 c79 -40 168 -84 199 -96 44 -17 58 -28 62 -47 5
-29 -5 -30 -82 -10 -65 18 -153 76 -315 208 -37 31 -10 20 136 -55z m1528 43
c8 -5 11 -10 7 -10 -18 0 57 -58 82 -63 39 -8 91 -64 91 -98 0 -28 -1 -29 -40
-23 -23 4 -60 1 -85 -6 -36 -10 -48 -10 -61 0 -31 26 -144 186 -144 204 0 10
134 7 150 -4z m-891 -75 l52 -76 -105 53 c-58 29 -106 56 -106 59 0 8 69 38
91 38 8 1 39 -33 68 -74z m1091 65 c0 -5 -7 -10 -16 -10 -8 0 -12 5 -9 10 3 6
10 10 16 10 5 0 9 -4 9 -10z m-1141 -105 c92 -45 137 -74 155 -98 29 -38 32
-49 12 -41 -11 4 -13 0 -9 -17 6 -22 5 -22 -67 -15 -40 4 -101 16 -134 27 -72
22 -69 22 -60 8 4 -7 0 -9 -12 -6 -11 3 -50 11 -87 17 -41 8 -71 18 -74 27
-10 25 4 25 63 4 31 -12 58 -20 61 -18 2 2 -24 14 -57 26 -33 12 -60 26 -60
32 0 21 34 60 78 89 25 16 49 30 54 30 4 0 66 -29 137 -65z m2674 6 c16 -14
33 -35 39 -45 9 -17 7 -17 -21 3 -17 12 -35 20 -41 16 -5 -3 -39 -8 -75 -11
-79 -7 -85 6 -24 60 40 37 41 37 67 20 15 -9 40 -28 55 -43z m-3023 -116 c27
-8 70 -43 70 -57 0 -9 -105 46 -125 65 -10 9 -6 9 55 -8z m606 -10 c16 -12 16
-14 3 -15 -9 0 -22 7 -29 15 -16 19 0 19 26 0z m2574 11 c0 -2 -20 -16 -45
-29 -49 -28 -60 -21 -19 12 23 18 64 29 64 17z m-260 -141 c-30 -17 -40 -18
-40 -6 0 8 22 16 55 19 6 1 -1 -5 -15 -13z"/>
<path d="M6140 9896 c0 -2 7 -7 16 -10 8 -3 12 -2 9 4 -6 10 -25 14 -25 6z"/>
<path d="M5325 9950 c-3 -5 1 -10 9 -10 8 0 18 5 21 10 3 6 -1 10 -9 10 -8 0
-18 -4 -21 -10z"/>
<path d="M4490 9695 c7 -8 24 -15 39 -15 25 1 25 1 7 15 -11 8 -29 15 -39 15
-16 0 -17 -3 -7 -15z"/>
<path d="M4346 9536 c7 -18 49 -22 59 -6 3 6 -3 10 -14 10 -10 0 -27 3 -35 6
-12 5 -15 2 -10 -10z"/>
<path d="M5150 9700 c0 -5 5 -10 10 -10 6 0 10 5 10 10 0 6 -4 10 -10 10 -5 0
-10 -4 -10 -10z"/>
<path d="M5195 9680 c3 -5 8 -10 11 -10 2 0 4 5 4 10 0 6 -5 10 -11 10 -5 0
-7 -4 -4 -10z"/>
<path d="M4844 9603 c-17 -16 -28 -27 -26 -26 3 2 11 -2 17 -7 13 -11 47 20
51 45 3 22 -8 18 -42 -12z"/>
<path d="M7386 8404 c-9 -22 3 -32 14 -14 12 19 12 30 1 30 -5 0 -12 -7 -15
-16z"/>
<path d="M7185 8397 c-14 -11 -15 -16 -5 -22 11 -7 29 9 30 28 0 10 -3 9 -25
-6z"/>
<path d="M7266 8373 c-11 -11 -6 -23 9 -23 8 0 15 4 15 9 0 13 -16 22 -24 14z"/>
<path d="M2907 8453 c-4 -3 -7 -11 -7 -17 0 -6 5 -5 12 2 6 6 9 14 7 17 -3 3
-9 2 -12 -2z"/>
<path d="M4110 8039 c0 -5 5 -7 10 -4 6 3 10 8 10 11 0 2 -4 4 -10 4 -5 0 -10
-5 -10 -11z"/>
<path d="M2837 7694 c-14 -14 14 -44 36 -40 12 3 24 5 26 5 2 1 -4 10 -14 21
-18 20 -36 25 -48 14z"/>
<path d="M3560 7485 c-8 -9 -8 -15 -2 -15 12 0 26 19 19 26 -2 2 -10 -2 -17
-11z"/>
<path d="M6700 7420 c0 -5 5 -10 10 -10 6 0 10 5 10 10 0 6 -4 10 -10 10 -5 0
-10 -4 -10 -10z"/>
<path d="M6630 7346 c0 -8 5 -18 10 -21 6 -3 10 1 10 9 0 8 -4 18 -10 21 -5 3
-10 -1 -10 -9z"/>
<path d="M3570 7356 c0 -9 5 -16 10 -16 6 0 10 4 10 9 0 6 -4 13 -10 16 -5 3
-10 -1 -10 -9z"/>
<path d="M3514 7042 c-18 -12 -24 -52 -8 -52 8 0 17 6 20 14 8 22 1 47 -12 38z"/>
<path d="M6279 6278 c-12 -23 -12 -23 10 -4 23 21 26 26 11 26 -5 0 -15 -10
-21 -22z"/>
<path d="M6117 6265 c-4 -11 -10 -27 -13 -35 -5 -12 -3 -12 11 1 9 9 15 25 13
35 -4 18 -4 18 -11 -1z"/>
<path d="M6151 6209 c-13 -5 -22 -12 -19 -14 6 -6 58 12 58 20 0 7 -11 5 -39
-6z"/>
<path d="M7430 6725 c-8 -9 -8 -15 -2 -15 12 0 26 19 19 26 -2 2 -10 -2 -17
-11z"/>
<path d="M6541 6541 c-6 -11 -7 -22 -2 -25 5 -3 11 4 14 16 8 30 1 35 -12 9z"/>
<path d="M6573 6513 c-4 -9 -1 -19 5 -21 7 -2 12 -9 12 -16 0 -15 78 -66 102
-66 23 0 93 29 86 35 -2 3 -31 6 -64 6 -49 1 -63 6 -81 26 -13 13 -23 31 -23
39 0 20 -29 18 -37 -3z"/>
<path d="M7490 6421 c0 -11 -3 -26 -6 -35 -4 -10 0 -18 10 -22 24 -9 28 -1 21
40 -8 38 -25 50 -25 17z"/>
<path d="M7640 6325 c0 -18 19 -40 26 -32 4 4 0 15 -9 24 -9 10 -17 13 -17 8z"/>
<path d="M8884 6602 c-3 -9 -10 -25 -15 -34 -13 -26 -11 -38 6 -32 8 4 15 13
15 20 0 8 7 17 15 20 20 8 19 30 0 38 -10 3 -18 -1 -21 -12z"/>
<path d="M8790 6540 c0 -13 5 -20 13 -17 6 2 12 10 12 17 0 7 -6 15 -12 18 -8
2 -13 -5 -13 -18z"/>
<path d="M8795 6333 c-11 -3 -25 -11 -30 -18 -6 -7 -29 -15 -52 -17 -35 -4
-44 -2 -48 13 -4 12 -11 16 -18 12 -21 -13 -40 -16 -89 -15 -48 1 -67 -14 -25
-20 36 -5 27 -33 -11 -33 -18 0 -36 -6 -41 -14 -5 -8 -15 -11 -23 -8 -8 3 -21
1 -29 -4 -12 -8 -12 -10 1 -18 9 -7 19 -6 28 1 10 9 16 8 22 -1 5 -8 13 -10
21 -5 8 4 39 7 70 6 37 -2 74 4 106 16 26 11 56 16 66 13 25 -9 107 11 107 26
0 6 8 14 19 18 13 4 17 12 13 30 -3 21 -10 25 -36 24 -17 -1 -40 -3 -51 -6z"/>
<path d="M8380 6210 c0 -11 5 -20 10 -20 6 0 10 9 10 20 0 11 -4 20 -10 20 -5
0 -10 -9 -10 -20z"/>
<path d="M8310 6210 c-11 -7 -9 -11 14 -19 32 -13 48 -7 39 14 -6 17 -31 19
-53 5z"/>
<path d="M7890 6290 c0 -4 9 -10 20 -13 11 -3 20 -2 20 3 0 4 -9 10 -20 13
-11 3 -20 2 -20 -3z"/>
<path d="M7975 6250 c3 -5 16 -10 28 -10 18 0 19 2 7 10 -20 13 -43 13 -35 0z"/>
<path d="M9286 6451 c-4 -7 -5 -15 -2 -18 9 -9 19 4 14 18 -4 11 -6 11 -12 0z"/>
<path d="M5823 5874 c-15 -15 -17 -34 -4 -34 8 0 24 41 18 46 -1 1 -8 -4 -14
-12z"/>
<path d="M5785 5790 c3 -5 8 -10 11 -10 2 0 4 5 4 10 0 6 -5 10 -11 10 -5 0
-7 -4 -4 -10z"/>
<path d="M7360 5925 c0 -8 5 -15 10 -15 6 0 10 7 10 15 0 8 -4 15 -10 15 -5 0
-10 -7 -10 -15z"/>
<path d="M5598 4683 c-9 -10 -16 -33 -16 -51 0 -18 -6 -40 -13 -49 -12 -13
-14 -13 -20 4 -6 15 -8 13 -8 -8 -1 -14 -10 -34 -21 -44 -17 -15 -24 -16 -46
-6 -15 6 -29 10 -31 7 -10 -9 23 -61 46 -72 13 -7 30 -25 37 -41 6 -15 26 -43
44 -62 37 -39 56 -32 38 16 -11 29 -9 33 18 57 29 25 29 26 7 32 -47 13 -53
106 -13 185 25 47 10 68 -22 32z"/>
<path d="M7185 4650 c-4 -6 5 -10 20 -10 15 0 24 4 20 10 -3 6 -12 10 -20 10
-8 0 -17 -4 -20 -10z"/>
<path d="M8895 3559 c-4 -6 -5 -12 -2 -15 7 -7 37 7 37 17 0 13 -27 11 -35 -2z"/>
<path d="M6940 10562 c8 -5 42 -12 75 -16 75 -7 43 9 -35 18 -35 4 -50 3 -40
-2z"/>
<path d="M7395 10461 c28 -5 66 -11 85 -15 30 -5 32 -5 11 4 -14 6 -52 13 -85
15 -61 4 -61 4 -11 -4z"/>
<path d="M3295 3860 c10 -11 20 -20 23 -20 3 0 -3 9 -13 20 -10 11 -20 20 -23
20 -3 0 3 -9 13 -20z"/>
<path d="M3345 3800 c10 -11 20 -20 23 -20 3 0 -3 9 -13 20 -10 11 -20 20 -23
20 -3 0 3 -9 13 -20z"/>
<path d="M3370 3766 c0 -2 8 -10 18 -17 15 -13 16 -12 3 4 -13 16 -21 21 -21
13z"/>
<path d="M9319 3603 l-34 -38 38 34 c20 19 37 36 37 38 0 8 -8 0 -41 -34z"/>
<path d="M3640 3475 c13 -14 26 -25 28 -25 3 0 -5 11 -18 25 -13 14 -26 25
-28 25 -3 0 5 -11 18 -25z"/>
<path d="M9169 3453 c-13 -16 -12 -17 4 -4 9 7 17 15 17 17 0 8 -8 3 -21 -13z"/>
</g>
</svg>
