<?xml version="1.0" encoding="UTF-8"?>
<svg id="Capa_1" xmlns="http://www.w3.org/2000/svg" version="1.1" viewBox="0 0 4251.97 3242.44">
  <!-- Generator: Adobe Illustrator 29.2.1, SVG Export Plug-In . SVG Version: 2.1.0 Build 116)  -->
  <defs>
    <style>
      .st0 {
        fill: #e4913e;
      }

      .st1 {
        fill: #e884a1;
      }

      .st2 {
        fill: #bc7a4a;
      }

      .st3 {
        fill: #b4bcbe;
      }

      .st4, .st5, .st6, .st7, .st8, .st9, .st10, .st11, .st12, .st13 {
        stroke: #31283e;
        stroke-miterlimit: 10;
      }

      .st4, .st5, .st13 {
        stroke-width: 2.63px;
      }

      .st4, .st14 {
        fill: #a66349;
      }

      .st15 {
        fill: #fff;
      }

      .st16 {
        fill: #536669;
      }

      .st17 {
        fill: #839194;
      }

      .st5, .st6, .st9 {
        fill: none;
      }

      .st18 {
        fill: #b1375c;
      }

      .st6, .st10 {
        stroke-width: 1.43px;
      }

      .st19 {
        fill: #f8e0e3;
      }

      .st7 {
        stroke-width: 2.07px;
      }

      .st7, .st20, .st8, .st10, .st11, .st12, .st13 {
        fill: #ecc542;
      }

      .st21 {
        fill: #edb1ba;
      }

      .st8 {
        stroke-width: 2.94px;
      }

      .st22 {
        fill: #3b5054;
      }

      .st23 {
        fill: #e6e8e9;
      }

      .st24 {
        fill: #0b2429;
      }

      .st25 {
        fill: #68509c;
      }

      .st9, .st12 {
        stroke-width: 2.8px;
      }

      .st26 {
        fill: #54398d;
      }

      .st27 {
        fill: #213a3e;
      }

      .st28 {
        fill: #ced3d3;
      }

      .st11 {
        stroke-width: 4.55px;
      }

      .st29 {
        fill: #9ba6a8;
      }

      .st30 {
        fill: #ce3e6b;
      }

      .st31 {
        fill: #6b7d80;
      }

      .st32 {
        fill: #31283e;
      }
    </style>
  </defs>
  <g>
    <g>
      <path class="st17" d="M3312.47,1530.6c0-24.44-19.61-44.27-43.95-44.68.26,0,.51-.04.77-.04h49.08c-4.93-1.98-10.27-3.15-15.88-3.24.26,0,.51-.04.77-.04h-34.4c-24.7,0-44.72,20.02-44.72,44.72v34.3h88.34v-31.02Z"/>
      <g>
        <polygon class="st17" points="3573.89 2353.69 3197.3 2353.69 3142.35 1654.9 3628.84 1654.9 3573.89 2353.69"/>
        <polygon class="st16" points="3261.22 2355.26 3206.02 1653.32 3695.91 1653.32 3640.7 2355.26 3261.22 2355.26"/>
        <polygon class="st24" points="3621.13 2039.52 3645.33 1731.81 3256.59 1731.81 3280.79 2039.52 3621.13 2039.52"/>
        <polygon class="st32" points="3622.49 2040.99 3280.79 2040.99 3280.79 2038.05 3619.77 2038.05 3643.87 1731.7 3646.8 1731.93 3622.49 2040.99"/>
        <path class="st15" d="M3529.35,1788.06c-.41.73-.82,1.46-1.24,2.18-18.31,31.25-37.65,61.9-55.08,93.66-6.76,12.32-11.77,26.73-20.47,37.81-2.4,3.05-5.37,5.93-9.14,6.88-7.37,1.87-14.23-4.02-19.56-9.43-11.1-11.28-21.93-22.94-33.36-33.89-8.19-7.84-22.54-16.98-21.93-29.99.17-3.69,1.94-7.27,4.77-9.64,2.83-2.37,6.66-3.5,10.32-3.03,4.46.57,8.35,3.34,11.57,6.48,14.26,13.88,28.09,28.28,42.16,42.38,22.28-38.35,44.56-76.7,66.83-115.05,1.06-1.83,2.18-3.67,3.4-5.41-16.56-9.93-35.93-15.65-56.65-15.65-60.93,0-110.32,49.39-110.32,110.32s49.39,110.32,110.32,110.32,110.32-49.39,110.32-110.32c0-30.27-12.2-57.68-31.94-77.62Z"/>
        <g>
          <g>
            <path class="st24" d="M3353.79,2126.89h-41.44c-12.02,0-21.86-9.84-21.86-21.86h0c0-12.02,9.84-21.86,21.86-21.86h41.44c12.02,0,21.86,9.84,21.86,21.86h0c0,12.02-9.84,21.86-21.86,21.86Z"/>
            <g>
              <path class="st28" d="M3325.98,2128.46c-12.92,0-23.44-10.51-23.44-23.43s10.51-23.43,23.44-23.43h27.81c12.92,0,23.43,10.51,23.43,23.43s-10.51,23.43-23.43,23.43h-27.81Z"/>
              <path class="st32" d="M3353.79,2083.16c12.02,0,21.86,9.84,21.86,21.86s-9.84,21.86-21.86,21.86h-27.81c-12.02,0-21.86-9.84-21.86-21.86s9.84-21.86,21.86-21.86h27.81M3353.79,2080.02h-27.81c-13.79,0-25.01,11.22-25.01,25s11.22,25.01,25.01,25.01h27.81c13.79,0,25-11.22,25-25.01s-11.22-25-25-25h0Z"/>
            </g>
          </g>
          <g>
            <path class="st24" d="M3471.68,2126.89h-41.44c-12.02,0-21.86-9.84-21.86-21.86h0c0-12.02,9.84-21.86,21.86-21.86h41.44c12.02,0,21.86,9.84,21.86,21.86h0c0,12.02-9.84,21.86-21.86,21.86Z"/>
            <g>
              <path class="st28" d="M3443.86,2128.46c-12.92,0-23.43-10.51-23.43-23.43s10.51-23.43,23.43-23.43h27.81c12.92,0,23.44,10.51,23.44,23.43s-10.51,23.43-23.44,23.43h-27.81Z"/>
              <path class="st32" d="M3471.68,2083.16c12.02,0,21.86,9.84,21.86,21.86s-9.84,21.86-21.86,21.86h-27.81c-12.02,0-21.86-9.84-21.86-21.86s9.84-21.86,21.86-21.86h27.81M3471.68,2080.02h-27.81c-13.79,0-25.01,11.22-25.01,25s11.22,25.01,25.01,25.01h27.81c13.79,0,25-11.22,25-25.01s-11.22-25-25-25h0Z"/>
            </g>
          </g>
          <g>
            <path class="st24" d="M3589.57,2126.89h-41.44c-12.02,0-21.86-9.84-21.86-21.86h0c0-12.02,9.84-21.86,21.86-21.86h41.44c12.02,0,21.86,9.84,21.86,21.86h0c0,12.02-9.84,21.86-21.86,21.86Z"/>
            <g>
              <path class="st28" d="M3561.75,2128.46c-12.92,0-23.44-10.51-23.44-23.43s10.51-23.43,23.44-23.43h27.81c12.92,0,23.43,10.51,23.43,23.43s-10.51,23.43-23.43,23.43h-27.81Z"/>
              <path class="st32" d="M3589.57,2083.16c12.02,0,21.86,9.84,21.86,21.86s-9.84,21.86-21.86,21.86h-27.81c-12.02,0-21.86-9.84-21.86-21.86s9.84-21.86,21.86-21.86h27.81M3589.57,2080.02h-27.81c-13.79,0-25.01,11.22-25.01,25s11.22,25.01,25.01,25.01h27.81c13.79,0,25-11.22,25-25.01s-11.22-25-25-25h0Z"/>
            </g>
          </g>
        </g>
        <g>
          <g>
            <path class="st24" d="M3353.79,2191.95h-41.44c-12.02,0-21.86-9.84-21.86-21.86h0c0-12.02,9.84-21.86,21.86-21.86h41.44c12.02,0,21.86,9.84,21.86,21.86h0c0,12.02-9.84,21.86-21.86,21.86Z"/>
            <g>
              <path class="st28" d="M3325.98,2193.52c-12.92,0-23.44-10.51-23.44-23.43s10.51-23.43,23.44-23.43h27.81c12.92,0,23.43,10.51,23.43,23.43s-10.51,23.43-23.43,23.43h-27.81Z"/>
              <path class="st32" d="M3353.79,2148.23c12.02,0,21.86,9.84,21.86,21.86s-9.84,21.86-21.86,21.86h-27.81c-12.02,0-21.86-9.84-21.86-21.86s9.84-21.86,21.86-21.86h27.81M3353.79,2145.09h-27.81c-13.79,0-25.01,11.22-25.01,25s11.22,25.01,25.01,25.01h27.81c13.79,0,25-11.22,25-25.01s-11.22-25-25-25h0Z"/>
            </g>
          </g>
          <g>
            <path class="st24" d="M3471.68,2191.95h-41.44c-12.02,0-21.86-9.84-21.86-21.86h0c0-12.02,9.84-21.86,21.86-21.86h41.44c12.02,0,21.86,9.84,21.86,21.86h0c0,12.02-9.84,21.86-21.86,21.86Z"/>
            <g>
              <path class="st28" d="M3443.86,2193.52c-12.92,0-23.43-10.51-23.43-23.43s10.51-23.43,23.43-23.43h27.81c12.92,0,23.44,10.51,23.44,23.43s-10.51,23.43-23.44,23.43h-27.81Z"/>
              <path class="st32" d="M3471.68,2148.23c12.02,0,21.86,9.84,21.86,21.86s-9.84,21.86-21.86,21.86h-27.81c-12.02,0-21.86-9.84-21.86-21.86s9.84-21.86,21.86-21.86h27.81M3471.68,2145.09h-27.81c-13.79,0-25.01,11.22-25.01,25s11.22,25.01,25.01,25.01h27.81c13.79,0,25-11.22,25-25.01s-11.22-25-25-25h0Z"/>
            </g>
          </g>
          <g>
            <path class="st24" d="M3589.57,2191.95h-41.44c-12.02,0-21.86-9.84-21.86-21.86h0c0-12.02,9.84-21.86,21.86-21.86h41.44c12.02,0,21.86,9.84,21.86,21.86h0c0,12.02-9.84,21.86-21.86,21.86Z"/>
            <g>
              <path class="st28" d="M3561.75,2193.52c-12.92,0-23.44-10.51-23.44-23.43s10.51-23.43,23.44-23.43h27.81c12.92,0,23.43,10.51,23.43,23.43s-10.51,23.43-23.43,23.43h-27.81Z"/>
              <path class="st32" d="M3589.57,2148.23c12.02,0,21.86,9.84,21.86,21.86s-9.84,21.86-21.86,21.86h-27.81c-12.02,0-21.86-9.84-21.86-21.86s9.84-21.86,21.86-21.86h27.81M3589.57,2145.09h-27.81c-13.79,0-25.01,11.22-25.01,25s11.22,25.01,25.01,25.01h27.81c13.79,0,25-11.22,25-25.01s-11.22-25-25-25h0Z"/>
            </g>
          </g>
        </g>
        <g>
          <g>
            <path class="st24" d="M3353.79,2257.02h-41.44c-12.02,0-21.86-9.84-21.86-21.86h0c0-12.02,9.84-21.86,21.86-21.86h41.44c12.02,0,21.86,9.84,21.86,21.86h0c0,12.02-9.84,21.86-21.86,21.86Z"/>
            <g>
              <path class="st28" d="M3325.98,2258.59c-12.92,0-23.44-10.51-23.44-23.44s10.51-23.43,23.44-23.43h27.81c12.92,0,23.43,10.51,23.43,23.43s-10.51,23.44-23.43,23.44h-27.81Z"/>
              <path class="st32" d="M3353.79,2213.29c12.02,0,21.86,9.84,21.86,21.86s-9.84,21.86-21.86,21.86h-27.81c-12.02,0-21.86-9.84-21.86-21.86s9.84-21.86,21.86-21.86h27.81M3353.79,2210.15h-27.81c-13.79,0-25.01,11.22-25.01,25s11.22,25,25.01,25h27.81c13.79,0,25-11.22,25-25s-11.22-25-25-25h0Z"/>
            </g>
          </g>
          <g>
            <path class="st24" d="M3471.68,2257.02h-41.44c-12.02,0-21.86-9.84-21.86-21.86h0c0-12.02,9.84-21.86,21.86-21.86h41.44c12.02,0,21.86,9.84,21.86,21.86h0c0,12.02-9.84,21.86-21.86,21.86Z"/>
            <g>
              <path class="st28" d="M3443.86,2258.59c-12.92,0-23.43-10.51-23.43-23.44s10.51-23.43,23.43-23.43h27.81c12.92,0,23.44,10.51,23.44,23.43s-10.51,23.44-23.44,23.44h-27.81Z"/>
              <path class="st32" d="M3471.68,2213.29c12.02,0,21.86,9.84,21.86,21.86s-9.84,21.86-21.86,21.86h-27.81c-12.02,0-21.86-9.84-21.86-21.86s9.84-21.86,21.86-21.86h27.81M3471.68,2210.15h-27.81c-13.79,0-25.01,11.22-25.01,25s11.22,25,25.01,25h27.81c13.79,0,25-11.22,25-25s-11.22-25-25-25h0Z"/>
            </g>
          </g>
          <g>
            <path class="st24" d="M3589.57,2257.02h-41.44c-12.02,0-21.86-9.84-21.86-21.86h0c0-12.02,9.84-21.86,21.86-21.86h41.44c12.02,0,21.86,9.84,21.86,21.86h0c0,12.02-9.84,21.86-21.86,21.86Z"/>
            <g>
              <path class="st28" d="M3561.75,2258.59c-12.92,0-23.44-10.51-23.44-23.44s10.51-23.43,23.44-23.43h27.81c12.92,0,23.43,10.51,23.43,23.43s-10.51,23.44-23.43,23.44h-27.81Z"/>
              <path class="st32" d="M3589.57,2213.29c12.02,0,21.86,9.84,21.86,21.86s-9.84,21.86-21.86,21.86h-27.81c-12.02,0-21.86-9.84-21.86-21.86s9.84-21.86,21.86-21.86h27.81M3589.57,2210.15h-27.81c-13.79,0-25.01,11.22-25.01,25s11.22,25,25.01,25h27.81c13.79,0,25-11.22,25-25s-11.22-25-25-25h0Z"/>
            </g>
          </g>
        </g>
        <g>
          <g>
            <path class="st15" d="M3353.79,2322.08h-41.44c-12.02,0-21.86-9.84-21.86-21.86h0c0-12.02,9.84-21.86,21.86-21.86h41.44c12.02,0,21.86,9.84,21.86,21.86h0c0,12.02-9.84,21.86-21.86,21.86Z"/>
            <g>
              <path class="st15" d="M3325.98,2323.65c-12.92,0-23.44-10.51-23.44-23.44s10.51-23.43,23.44-23.43h27.81c12.92,0,23.43,10.51,23.43,23.43s-10.51,23.44-23.43,23.44h-27.81Z"/>
              <path class="st32" d="M3353.79,2278.36c12.02,0,21.86,9.84,21.86,21.86h0c0,12.02-9.84,21.86-21.86,21.86h-27.81c-12.02,0-21.86-9.84-21.86-21.86h0c0-12.02,9.84-21.86,21.86-21.86h27.81M3353.79,2275.21h-27.81c-13.79,0-25.01,11.22-25.01,25.01s11.22,25.01,25.01,25.01h27.81c13.79,0,25-11.22,25-25s-11.22-25.01-25-25.01h0Z"/>
            </g>
          </g>
          <g>
            <path class="st24" d="M3471.68,2322.08h-41.44c-12.02,0-21.86-9.84-21.86-21.86h0c0-12.02,9.84-21.86,21.86-21.86h41.44c12.02,0,21.86,9.84,21.86,21.86h0c0,12.02-9.84,21.86-21.86,21.86Z"/>
            <g>
              <path class="st28" d="M3443.86,2323.65c-12.92,0-23.43-10.51-23.43-23.44s10.51-23.43,23.43-23.43h27.81c12.92,0,23.44,10.51,23.44,23.43s-10.51,23.44-23.44,23.44h-27.81Z"/>
              <path class="st32" d="M3471.68,2278.36c12.02,0,21.86,9.84,21.86,21.86h0c0,12.02-9.84,21.86-21.86,21.86h-27.81c-12.02,0-21.86-9.84-21.86-21.86h0c0-12.02,9.84-21.86,21.86-21.86h27.81M3471.68,2275.21h-27.81c-13.79,0-25.01,11.22-25.01,25.01s11.22,25.01,25.01,25.01h27.81c13.79,0,25-11.22,25-25s-11.22-25.01-25-25.01h0Z"/>
            </g>
          </g>
          <g>
            <path class="st15" d="M3589.57,2322.08h-41.44c-12.02,0-21.86-9.84-21.86-21.86h0c0-12.02,9.84-21.86,21.86-21.86h41.44c12.02,0,21.86,9.84,21.86,21.86h0c0,12.02-9.84,21.86-21.86,21.86Z"/>
            <g>
              <path class="st15" d="M3561.75,2323.65c-12.92,0-23.44-10.51-23.44-23.44s10.51-23.43,23.44-23.43h27.81c12.92,0,23.43,10.51,23.43,23.43s-10.51,23.44-23.43,23.44h-27.81Z"/>
              <path class="st32" d="M3589.57,2278.36c12.02,0,21.86,9.84,21.86,21.86h0c0,12.02-9.84,21.86-21.86,21.86h-27.81c-12.02,0-21.86-9.84-21.86-21.86h0c0-12.02,9.84-21.86,21.86-21.86h27.81M3589.57,2275.21h-27.81c-13.79,0-25.01,11.22-25.01,25.01s11.22,25.01,25.01,25.01h27.81c13.79,0,25-11.22,25-25s-11.22-25.01-25-25.01h0Z"/>
            </g>
          </g>
        </g>
        <path class="st17" d="M3602.18,1697.48h-302.44c-4.59,0-8.34-3.75-8.34-8.34h0c0-4.59,3.75-8.34,8.34-8.34h302.44c4.59,0,8.34,3.75,8.34,8.34h0c0,4.59-3.75,8.34-8.34,8.34Z"/>
      </g>
      <g>
        <path class="st15" d="M3310.9,1690.71v-160.11c0-23.37-19.03-42.71-42.41-43.11v-3.14s277-.04,277-.04c25.53,0,46.29,20.76,46.29,46.29v160.11h-280.89Z"/>
        <path class="st16" d="M3545.5,1485.88c24.7,0,44.72,20.02,44.72,44.72v158.54h-277.74v-158.54c0-24.44-19.61-44.27-43.95-44.68.26,0,.51-.04.77-.04h276.21M3545.5,1482.74h-276.32l-.52.03-.18,6.3c22.53.38,40.86,19.02,40.86,41.54v161.68h284.03v-161.68c0-26.39-21.47-47.86-47.86-47.86h0Z"/>
      </g>
      <path class="st24" d="M3550.57,1537.24h-185.59c-4.58,0-8.3-3.72-8.3-8.3s3.72-8.3,8.3-8.3h185.59c4.58,0,8.3,3.72,8.3,8.3s-3.72,8.3-8.3,8.3ZM3364.98,1523.59c-2.95,0-5.36,2.4-5.36,5.36s2.4,5.36,5.36,5.36h185.59c2.95,0,5.36-2.4,5.36-5.36s-2.4-5.36-5.36-5.36h-185.59Z"/>
      <path class="st24" d="M3550.57,1579.51h-185.59c-4.58,0-8.3-3.72-8.3-8.3s3.72-8.3,8.3-8.3h185.59c4.58,0,8.3,3.72,8.3,8.3s-3.72,8.3-8.3,8.3ZM3364.98,1565.85c-2.95,0-5.36,2.4-5.36,5.36s2.4,5.36,5.36,5.36h185.59c2.95,0,5.36-2.4,5.36-5.36s-2.4-5.36-5.36-5.36h-185.59Z"/>
      <path class="st24" d="M3550.57,1621.77h-185.59c-4.58,0-8.3-3.72-8.3-8.3s3.72-8.3,8.3-8.3h185.59c4.58,0,8.3,3.72,8.3,8.3s-3.72,8.3-8.3,8.3ZM3364.98,1608.11c-2.95,0-5.36,2.4-5.36,5.36s2.4,5.36,5.36,5.36h185.59c2.95,0,5.36-2.4,5.36-5.36s-2.4-5.36-5.36-5.36h-185.59Z"/>
      <path class="st24" d="M3550.57,1664.03h-185.59c-4.58,0-8.3-3.72-8.3-8.3s3.72-8.3,8.3-8.3h185.59c4.58,0,8.3,3.72,8.3,8.3s-3.72,8.3-8.3,8.3ZM3364.98,1650.37c-2.95,0-5.36,2.4-5.36,5.36s2.4,5.36,5.36,5.36h185.59c2.95,0,5.36-2.4,5.36-5.36s-2.4-5.36-5.36-5.36h-185.59Z"/>
      <g>
        <g>
          <line class="st8" x1="3629.6" y1="2147.98" x2="3643.12" y2="2134.97"/>
          <line class="st8" x1="3629.6" y1="2160.99" x2="3643.12" y2="2147.98"/>
        </g>
        <g>
          <line class="st8" x1="3240.3" y1="1697.48" x2="3253.83" y2="1684.47"/>
          <line class="st8" x1="3240.3" y1="1710.49" x2="3253.83" y2="1697.48"/>
        </g>
      </g>
    </g>
    <g>
      <g>
        <rect class="st16" x="1497.09" y="2275.65" width="98.29" height="68.55"/>
        <g>
          <rect class="st17" x="1813.63" y="2056.5" width="183.91" height="221.59"/>
          <path class="st32" d="M1995.11,2058.93v216.72h-179.05v-216.72h179.05M1999.98,2054.06h-188.78v226.46h188.78v-226.46h0Z"/>
        </g>
        <rect class="st16" x="1816.06" y="2058.93" width="179.05" height="132.93"/>
        <rect class="st17" x="781.29" y="842.8" width="170.07" height="1239.88" transform="translate(1732.65 2925.48) rotate(180)"/>
        <rect class="st16" x="948.09" y="840.37" width="1914.99" height="1244.75"/>
        <rect class="st15" x="1021.92" y="920.03" width="1767.33" height="967.15"/>
        <rect class="st19" x="2606.88" y="1940.5" width="85.18" height="85.18"/>
        <g>
          <rect class="st17" x="1584.18" y="2273.22" width="732.33" height="73.42"/>
          <path class="st32" d="M2314.08,2275.65v68.55h-727.46v-68.55h727.46M2318.94,2270.78h-737.2v78.29h737.2v-78.29h0Z"/>
        </g>
      </g>
      <g>
        <line class="st11" x1="1067.55" y1="1031.52" x2="1093.38" y2="1005.7"/>
        <line class="st11" x1="1067.55" y1="1057.35" x2="1093.38" y2="1031.52"/>
      </g>
      <g>
        <line class="st11" x1="2452.28" y1="1940.5" x2="2478.11" y2="1914.67"/>
        <line class="st11" x1="2452.28" y1="1966.33" x2="2478.11" y2="1940.5"/>
      </g>
    </g>
    <g>
      <path class="st32" d="M3117.29,1486.32c-6.7,25.52-24.25,43.03-39.19,39.11-14.94-3.92-21.62-27.8-14.91-53.32,6.7-25.52,24.25-43.03,39.19-39.11,14.94,3.92,21.62,27.8,14.91,53.32Z"/>
      <g>
        <path class="st2" d="M2821.34,1598.83l5.28-51.54,175.63,18.01c14.23,1.46,24.59,14.18,23.13,28.41h0c-1.46,14.23-14.18,24.59-28.41,23.13l-175.63-18.01Z"/>
        <g>
          <path class="st14" d="M2865.29,1723.9c-8.09,0-15.31-7.17-16.79-16.7-1.63-10.48,4.2-20.12,13-21.49.71-.11,1.41-.16,2.11-.16,8.09,0,15.3,7.17,16.78,16.7.78,5.03-.11,10.02-2.5,14.06-2.45,4.12-6.18,6.76-10.49,7.43-.7.11-1.41.16-2.11.16Z"/>
          <path class="st32" d="M2863.61,1686.96c7.33,0,14.01,6.54,15.4,15.51,1.51,9.73-3.78,18.64-11.82,19.89-.63.1-1.27.15-1.89.15-7.33,0-14.01-6.54-15.4-15.51-1.51-9.73,3.78-18.64,11.82-19.89.63-.1,1.27-.15,1.89-.15M2863.61,1684.15c-.77,0-1.55.06-2.33.18-4.73.74-8.81,3.61-11.48,8.1-2.57,4.32-3.52,9.64-2.69,14.99,1.59,10.2,9.4,17.89,18.18,17.89.77,0,1.55-.06,2.33-.18,4.73-.74,8.81-3.61,11.48-8.1,2.57-4.32,3.52-9.64,2.69-14.99-1.59-10.2-9.4-17.89-18.18-17.89h0Z"/>
        </g>
        <polygon class="st14" points="2769.75 1437.5 2817.52 1422.22 2865.16 1571.18 2821.34 1598.83 2769.75 1437.5"/>
        <path class="st14" d="M2817.65,1608.77c-10.3-3.82-15.54-15.27-11.72-25.57,3.82-10.3,15.27-15.54,25.57-11.72,10.3,3.82,15.55,15.27,11.72,25.57-3.82,10.3-15.27,15.54-25.57,11.72Z"/>
        <path class="st14" d="M2779.44,1445.5l-3.39,11.71-28.2-14.06c-5.93-2.97-8.35-10.26-5.37-16.19h0c2.97-5.93,10.26-8.35,16.19-5.37l15.4,7.72c5.93,2.97,8.35,10.26,5.37,16.19Z"/>
        <line class="st5" x1="2757.18" y1="1420.63" x2="2751.77" y2="1403.7"/>
        <path class="st5" d="M2744.86,1423.78s7.51-7.75,16.19-.99l16.69,9.45"/>
        <g>
          <path class="st28" d="M2997.03,1621.69c-1.14,0-2.29-.06-3.45-.18l-38.64-3.97,6.82-66.46,38.64,3.96c8.88.91,16.87,5.22,22.5,12.14,5.64,6.92,8.24,15.62,7.33,24.5-1.75,17.11-16.02,30-33.19,30Z"/>
          <path class="st32" d="M2963.01,1552.62l37.25,3.82c17.58,1.8,30.37,17.52,28.57,35.1-1.69,16.47-15.59,28.74-31.79,28.74-1.09,0-2.19-.06-3.3-.17l-37.25-3.82,6.53-63.67M2960.5,1549.54l-.29,2.8-6.53,63.67-.29,2.8,2.8.29,37.25,3.82c1.21.12,2.4.18,3.59.18,17.89,0,32.76-13.44,34.59-31.26,1.96-19.09-11.98-36.22-31.08-38.18l-37.25-3.82-2.8-.29h0Z"/>
        </g>
      </g>
      <g>
        <g>
          <rect class="st19" x="2136.08" y="1400.05" width="724.53" height="491.52" rx="40.79" ry="40.79" transform="translate(4996.68 3291.62) rotate(180)"/>
          <path class="st24" d="M2376.36,1569.36c0-12.51,2.35-24.24,7.04-35.19,4.69-10.95,11.1-20.53,19.23-28.74,8.13-8.22,17.72-14.67,28.74-19.36,11.02-4.69,22.8-7.04,35.31-7.04s24.25,2.35,35.2,7.04c10.94,4.69,20.53,11.14,28.74,19.36,8.21,8.21,14.67,17.79,19.36,28.74,4.7,10.95,7.04,22.68,7.04,35.19s-2.34,24.29-7.04,35.31c-4.69,11.02-11.14,20.61-19.36,28.74-8.21,8.13-17.79,14.54-28.74,19.24-10.95,4.69-22.68,7.03-35.2,7.03s-24.29-2.34-35.31-7.03c-11.03-4.7-20.61-11.11-28.74-19.24-8.13-8.13-14.54-17.72-19.23-28.74-4.7-11.03-7.04-22.8-7.04-35.31ZM2439.24,1569.36c0,7.98,2.59,14.55,7.75,19.71,5.16,5.16,11.72,7.74,19.71,7.74,3.75,0,7.31-.71,10.68-2.11,3.36-1.41,6.25-3.33,8.68-5.75,2.42-2.42,4.34-5.31,5.75-8.68,1.41-3.36,2.11-6.99,2.11-10.91s-.71-7.51-2.11-10.79c-1.41-3.28-3.33-6.14-5.75-8.56-2.43-2.42-5.32-4.34-8.68-5.75-3.37-1.41-6.93-2.11-10.68-2.11-4.07,0-7.74.67-11.03,2-3.28,1.33-6.19,3.21-8.68,5.63-2.51,2.43-4.42,5.32-5.75,8.68-1.33,3.37-1.99,7-1.99,10.91ZM2620.38,1499.2c1.25-2.81,3.08-5.24,5.51-7.28,2.42-2.03,5.59-3.04,9.5-3.04h50.92c3.13,0,5.9.62,8.32,1.87,2.43,1.26,3.64,3.05,3.64,5.4,0,1.73-.16,2.74-.47,3.05l-148.28,327.77c-1.72,3.92-3.37,6.61-4.93,8.1-1.56,1.49-4.07,2.23-7.51,2.23h-56.07c-6.57,0-9.85-2.03-9.85-6.1l.47-.94.71-3.28,148.05-327.77ZM2610.99,1751.66c0-12.51,2.35-24.24,7.03-35.19,4.7-10.95,11.11-20.53,19.24-28.74,8.13-8.21,17.72-14.66,28.74-19.36,11.02-4.69,22.79-7.03,35.31-7.03s24.24,2.34,35.19,7.03c10.95,4.7,20.53,11.15,28.74,19.36,8.21,8.22,14.67,17.79,19.36,28.74,4.69,10.95,7.04,22.68,7.04,35.19s-2.35,24.29-7.04,35.31c-4.69,11.03-11.14,20.61-19.36,28.74-8.22,8.13-17.79,14.54-28.74,19.24-10.95,4.69-22.68,7.03-35.19,7.03s-24.29-2.35-35.31-7.03c-11.03-4.7-20.61-11.11-28.74-19.24-8.13-8.13-14.54-17.71-19.24-28.74-4.69-11.02-7.03-22.79-7.03-35.31ZM2673.86,1751.66c0,7.98,2.59,14.55,7.74,19.71,5.16,5.16,11.73,7.74,19.71,7.74,3.75,0,7.31-.71,10.68-2.11,3.36-1.41,6.25-3.32,8.68-5.75,2.42-2.43,4.34-5.32,5.75-8.68,1.41-3.37,2.11-7,2.11-10.92s-.71-7.5-2.11-10.79c-1.41-3.28-3.33-6.14-5.75-8.56-2.43-2.43-5.32-4.35-8.68-5.75-3.37-1.41-6.93-2.11-10.68-2.11-4.07,0-7.74.67-11.03,2-3.28,1.33-6.18,3.21-8.68,5.63-2.5,2.43-4.41,5.32-5.75,8.68-1.33,3.37-2,7-2,10.91Z"/>
          <path class="st24" d="M2179.67,1400.05h404.34c-247.38,0-447.93,200.54-447.93,447.93v-404.34c0-24.07,19.51-43.59,43.59-43.59Z"/>
          <g>
            <g>
              <line class="st5" x1="2845.53" y1="1843.44" x2="2641.17" y2="1843.44"/>
              <line class="st5" x1="2411.91" y1="1724.85" x2="2207.55" y2="1724.85"/>
            </g>
            <g>
              <g>
                <line class="st13" x1="2179.35" y1="1828.53" x2="2194.26" y2="1813.62"/>
                <line class="st13" x1="2179.35" y1="1843.44" x2="2194.26" y2="1828.53"/>
              </g>
              <g>
                <line class="st13" x1="2792.89" y1="1465.88" x2="2807.8" y2="1450.97"/>
                <line class="st13" x1="2792.89" y1="1480.8" x2="2807.8" y2="1465.88"/>
              </g>
            </g>
          </g>
          <path class="st5" d="M2136.08,1847.98v-404.34c0-24.07,19.51-43.59,43.59-43.59h404.34"/>
        </g>
        <path class="st15" d="M2157.97,1453.01c0-3.2.6-6.19,1.8-8.99,1.2-2.8,2.83-5.24,4.91-7.34,2.08-2.1,4.52-3.75,7.34-4.94,2.82-1.2,5.82-1.8,9.02-1.8s6.19.6,8.99,1.8c2.79,1.2,5.24,2.85,7.34,4.94,2.1,2.1,3.75,4.54,4.94,7.34,1.2,2.8,1.8,5.79,1.8,8.99s-.6,6.2-1.8,9.02c-1.2,2.82-2.85,5.26-4.94,7.34-2.1,2.08-4.54,3.71-7.34,4.91-2.8,1.2-5.79,1.8-8.99,1.8s-6.2-.6-9.02-1.8c-2.82-1.2-5.26-2.84-7.34-4.91-2.08-2.08-3.71-4.52-4.91-7.34-1.2-2.82-1.8-5.82-1.8-9.02ZM2174.03,1453.01c0,2.04.66,3.72,1.98,5.03,1.32,1.32,2.99,1.98,5.03,1.98.96,0,1.87-.18,2.73-.54.86-.36,1.6-.85,2.22-1.47s1.11-1.36,1.47-2.22c.36-.86.54-1.79.54-2.79s-.18-1.92-.54-2.76-.85-1.57-1.47-2.19c-.62-.62-1.36-1.11-2.22-1.47-.86-.36-1.77-.54-2.73-.54-1.04,0-1.98.17-2.82.51-.84.34-1.58.82-2.22,1.44-.64.62-1.13,1.36-1.47,2.22-.34.86-.51,1.79-.51,2.79ZM2220.28,1435.09c.32-.72.79-1.34,1.41-1.86.62-.52,1.43-.78,2.42-.78h13c.8,0,1.51.16,2.13.48.62.32.93.78.93,1.38,0,.44-.04.7-.12.78l-37.87,83.7c-.44,1-.86,1.69-1.26,2.07-.4.38-1.04.57-1.92.57h-14.32c-1.68,0-2.52-.52-2.52-1.56l.12-.24.18-.84,37.81-83.7ZM2217.88,1499.56c0-3.19.6-6.19,1.8-8.98,1.2-2.8,2.84-5.24,4.91-7.34,2.08-2.1,4.53-3.74,7.34-4.94,2.82-1.2,5.82-1.8,9.02-1.8s6.19.6,8.99,1.8c2.8,1.2,5.24,2.85,7.34,4.94,2.1,2.1,3.75,4.54,4.94,7.34,1.2,2.8,1.8,5.79,1.8,8.98s-.6,6.2-1.8,9.02c-1.2,2.82-2.85,5.26-4.94,7.34-2.1,2.08-4.54,3.71-7.34,4.91-2.8,1.2-5.79,1.8-8.99,1.8s-6.2-.6-9.02-1.8c-2.82-1.2-5.26-2.84-7.34-4.91-2.08-2.08-3.71-4.52-4.91-7.34-1.2-2.82-1.8-5.82-1.8-9.02ZM2233.94,1499.56c0,2.04.66,3.72,1.98,5.03,1.32,1.32,3,1.98,5.03,1.98.96,0,1.87-.18,2.73-.54.86-.36,1.6-.85,2.22-1.47.62-.62,1.11-1.36,1.47-2.22.36-.86.54-1.79.54-2.79s-.18-1.91-.54-2.76c-.36-.84-.85-1.57-1.47-2.19s-1.36-1.11-2.22-1.47c-.86-.36-1.77-.54-2.73-.54-1.04,0-1.98.17-2.82.51-.84.34-1.58.82-2.22,1.44-.64.62-1.13,1.36-1.47,2.22-.34.86-.51,1.79-.51,2.79Z"/>
      </g>
      <g>
        <polygon class="st17" points="2901.05 1983.45 2988.71 1982.58 2989.57 2323.02 2901.53 2324.26 2901.05 1983.45"/>
        <polygon class="st17" points="2988.83 2027.55 2901.05 1983.45 2985.86 1843.96 3103.31 1853.42 2988.83 2027.55"/>
        <polygon class="st17" points="3010.13 1855.33 3043.88 1943.82 3043.88 1848.64 3010.13 1855.33"/>
        <path class="st16" d="M2989.67,2278.92c-.2,14.87-11.75,28.09-26.71,28.3-15.22.21-27.74-11.95-27.95-27.17l-35.37-12.42-3.53,12.97-28.21.4c-28.77.41-62.25,7.93-61.73,44.89.16,11.47,4.81,27.96,16.28,27.8l169.87-2.4c9.25-.13,16.65-7.74,16.52-16.99l-.44-31.39c-.16-11.15-8.36-21.49-18.72-23.99Z"/>
        <line class="st5" x1="2812.7" y1="2332.94" x2="3005.62" y2="2330.21"/>
        <path class="st5" d="M2880.89,2331.97c-.35-24.61-21.23-44.24-46.68-43.88"/>
        <path class="st17" d="M2965.84,1999.07c.32,22.3-17.5,40.62-39.8,40.94-22.3.32-40.62-17.5-40.94-39.8-.31-22.3,17.5-40.62,39.8-40.94,22.3-.31,40.63,17.5,40.94,39.8Z"/>
      </g>
      <path class="st17" d="M3119.49,1752.89l-99.64-.66c-20.78-.14-37.74,16.6-37.88,37.38l-.43,65.52,139.45.92c18.8-9.58,31.74-29.06,31.89-51.62l.12-17.6c.12-18.63-14.88-33.83-33.5-33.95Z"/>
      <g>
        <polygon class="st17" points="3046.01 1999.36 3136.87 2002.76 3134.16 2369.85 3046.15 2372.36 3046.01 1999.36"/>
        <path class="st17" d="M3101.59,2012.42c11.75,18.95,5.9,43.84-13.05,55.59-18.95,11.74-43.84,5.9-55.58-13.05-11.75-18.95-5.9-43.84,13.05-55.59s43.84-5.9,55.58,13.05Z"/>
        <polygon class="st17" points="3136.87 2002.76 3046.01 1999.36 3038.87 1813.36 3144.5 1816.79 3136.87 2002.76"/>
        <path class="st16" d="M3134.26,2324.9c.01,14.87-11.35,28.25-26.3,28.68-15.22.43-27.9-11.55-28.34-26.77l-35.55-11.91-3.34,13.02-28.2.8c-28.76.82-62.13,8.83-61.08,45.78.33,11.46,5.21,27.89,16.68,27.56l169.82-4.84c9.25-.26,16.54-7.98,16.27-17.23l-.89-31.38c-.32-11.14-8.67-21.37-19.07-23.72Z"/>
        <line class="st5" x1="2958.09" y1="2381.45" x2="3150.95" y2="2375.95"/>
        <path class="st5" d="M3026.26,2379.51c-.7-24.61-21.86-43.93-47.31-43.21"/>
      </g>
      <path class="st28" d="M3161.65,1780.16c-104.2-18.65-113.42,36.64-174.22-1.15l1.22-184.49c.14-21.58,17.75-38.96,39.33-38.82l96.07.64c21.58.14,38.96,17.75,38.82,39.33l-1.22,184.49Z"/>
      <g>
        <line class="st13" x1="2997.96" y1="1688.63" x2="3010.12" y2="1676.62"/>
        <line class="st13" x1="2997.88" y1="1700.72" x2="3010.05" y2="1688.71"/>
      </g>
      <g>
        <path class="st2" d="M3072.62,1754.16l-45.8-24.22,82.54-156.07c6.69-12.65,22.36-17.48,35.01-10.79h0c12.65,6.69,17.48,22.36,10.79,35.01l-82.54,156.07Z"/>
        <g>
          <path class="st28" d="M3081,1606.09l18.16-34.35c5.81-10.97,17.13-17.79,29.56-17.79,5.4,0,10.79,1.34,15.59,3.88,7.89,4.17,13.67,11.17,16.3,19.69,2.63,8.53,1.78,17.57-2.39,25.45l-18.16,34.35-59.06-31.24Z"/>
          <path class="st32" d="M3128.71,1555.36c5.05,0,10.16,1.2,14.93,3.72,15.62,8.26,21.59,27.63,13.33,43.25l-17.51,33.1-56.58-29.92,17.51-33.1c5.74-10.85,16.84-17.05,28.32-17.05M3128.72,1552.55h0c-12.95,0-24.75,7.11-30.8,18.54l-17.51,33.1-1.31,2.48,2.48,1.31,56.58,29.92,2.48,1.31,1.31-2.48,17.51-33.1c8.97-16.97,2.47-38.07-14.5-47.05-5-2.65-10.62-4.05-16.25-4.05h0Z"/>
        </g>
        <polygon class="st2" points="2897.12 1755.16 2897.54 1705.01 3053.92 1706.31 3066.49 1756.57 2897.12 1755.16"/>
        <path class="st2" d="M3066.4,1767.17c-10.98-.09-19.81-9.07-19.72-20.05.09-10.98,9.07-19.81,20.05-19.72,10.98.09,19.81,9.07,19.72,20.05-.09,10.98-9.07,19.81-20.05,19.72Z"/>
        <path class="st2" d="M2813.63,1752.87l.31-37.76c.04-5.37,4.47-9.72,9.84-9.68l75.95-.71c15.75.13,28.53,13.13,28.4,28.88h0c-.13,15.75-13.13,28.53-28.88,28.4l-75.95.71c-5.37-.04-9.72-4.47-9.68-9.84Z"/>
        <line class="st5" x1="2874.16" y1="1723.65" x2="2813.86" y2="1724.49"/>
        <line class="st5" x1="2874" y1="1742.96" x2="2813.7" y2="1743.8"/>
        <line class="st5" x1="2886.41" y1="1761.9" x2="2828" y2="1762.75"/>
        <path class="st5" d="M2872.82,1723.64c.03-3.84,3.17-6.93,7.01-6.9,3.84.03,6.93,3.17,6.9,7.01"/>
        <path class="st5" d="M2872.66,1742.95c.03-3.84,3.17-6.93,7.01-6.9s6.93,3.17,6.9,7.01"/>
        <line class="st4" x1="2852.85" y1="1704.84" x2="2876.06" y2="1704.95"/>
      </g>
      <g>
        <path class="st2" d="M3029.45,1521.95l-.46,68.84c-.07,10.69,8.54,19.41,19.23,19.48h0c10.69.07,19.41-8.54,19.48-19.23l.52-79.13-38.78,10.03Z"/>
        <path class="st32" d="M3029.32,1541.62c5.56,1.94,11.53,3.03,17.75,3.07,7.42.05,14.5-1.38,20.97-4l.19-28.77-38.78,10.03-.13,19.67Z"/>
        <path class="st14" d="M3108.28,1463.12c-2.48-.02-4.86.38-7.08,1.12-5.42-24.49-27.17-42.88-53.32-43.06-30.37-.2-55.16,24.26-55.36,54.63-.2,30.37,24.26,55.16,54.63,55.36,20.72.14,38.83-11.21,48.32-28.07,3.54,2.5,7.85,3.98,12.51,4.01,12.15.08,22.06-9.7,22.15-21.85.08-12.15-9.7-22.06-21.85-22.14Z"/>
        <path class="st2" d="M3108.28,1463.12c-2.48-.02-4.86.38-7.08,1.12-5.42-24.49-27.17-42.88-53.32-43.06-30.37-.2-55.16,24.26-55.36,54.63-.2,30.37,24.26,55.16,54.63,55.36,20.72.14,38.83-11.21,48.32-28.07,3.54,2.5,7.85,3.98,12.51,4.01,12.15.08,22.06-9.7,22.15-21.85.08-12.15-9.7-22.06-21.85-22.14Z"/>
        <path class="st5" d="M3120.61,1482.6c-.06,8.37-7.4,15.09-16.42,15.03"/>
        <path class="st5" d="M3044.88,1508.66c-4.83,6.84-14.7,8.16-22.07,2.95"/>
        <path class="st5" d="M3113.7,1492c.05-7.46-5.17-13.54-11.66-13.58"/>
        <path class="st15" d="M3062.78,1475.83c-.03,5.01-6.97,9.03-15.5,8.98-8.53-.06-15.41-4.17-15.38-9.18.03-5.01,6.97-9.03,15.5-8.98,8.53.06,15.41,4.17,15.38,9.18Z"/>
        <path class="st15" d="M3023.4,1475.57c-.03,5.01-6.97,9.03-15.5,8.98-8.53-.06-15.41-4.17-15.38-9.18.03-5.01,6.97-9.03,15.5-8.98,8.53.06,15.41,4.17,15.38,9.18Z"/>
        <path class="st5" d="M3023.4,1475.57l-5.18,26.4c-.08,3.29,6.45,4.27,9.57,5.29,2.64.86,5.44-.1,6.12-7.37"/>
        <path class="st32" d="M3040.01,1470.87c-.59,2,.55,4.1,2.54,4.69,1.6.48,3.25-.17,4.16-1.47.37,1.33.4,2.77-.02,4.19-1.19,4-5.39,6.28-9.39,5.09s-6.28-5.39-5.09-9.39c1.17-3.96,5.3-6.22,9.26-5.12-.68.47-1.21,1.15-1.46,2.01Z"/>
        <path class="st32" d="M3000.97,1470.61c-.59,2,.54,4.1,2.54,4.69,1.6.48,3.25-.17,4.16-1.47.38,1.33.4,2.77-.02,4.19-1.19,4-5.39,6.28-9.39,5.09-4-1.19-6.27-5.39-5.09-9.39,1.17-3.96,5.3-6.22,9.26-5.12-.68.47-1.21,1.15-1.46,2.01Z"/>
      </g>
      <path class="st5" d="M3104.69,2317.78c1.68-4.76-2.28-486.8-2.28-486.8"/>
      <g>
        <line class="st13" x1="3074.38" y1="1950.29" x2="3084.67" y2="1936.64"/>
        <line class="st13" x1="3076.06" y1="1962.26" x2="3086.35" y2="1948.61"/>
      </g>
      <path class="st32" d="M3100.15,1390.19c-1.45,0-2.87.11-4.27.27-5.04-14.24-18.58-24.46-34.55-24.46-8.07,0-15.5,2.63-21.56,7.05-6.06-4.41-13.49-7.05-21.56-7.05-15.87,0-29.34,10.09-34.45,24.19-2.5,0-5.04.24-7.59.77-19.84,4.12-32.57,23.54-28.46,43.37,4.12,19.84,23.54,32.57,43.37,28.45,12.92-2.68,22.79-11.88,26.99-23.43.04,0,.09,0,.13,0,8.07,0,15.5-2.63,21.56-7.05,6.06,4.41,13.49,7.05,21.56,7.05,1.45,0,2.87-.11,4.27-.27,5.04,14.24,18.59,24.46,34.55,24.46,20.26,0,36.68-16.42,36.68-36.68s-16.42-36.68-36.68-36.68Z"/>
      <g>
        <path class="st2" d="M2752.58,1431.34c-5.73,0-10.39-4.66-10.39-10.39v-27.15c0-5.73,4.66-10.39,10.39-10.39s10.39,4.66,10.39,10.39v27.15c0,5.73-4.66,10.39-10.39,10.39Z"/>
        <path class="st32" d="M2752.58,1384.82c4.94,0,8.99,4.04,8.99,8.99v27.15c0,4.94-4.04,8.99-8.99,8.99s-8.99-4.04-8.99-8.99v-27.15c0-4.94,4.04-8.99,8.99-8.99M2752.58,1382.01c-6.51,0-11.8,5.29-11.8,11.8v27.15c0,6.5,5.29,11.8,11.8,11.8s11.8-5.29,11.8-11.8v-27.15c0-6.5-5.29-11.8-11.8-11.8h0Z"/>
      </g>
      <g>
        <path class="st2" d="M2769.75,1431.34c-5.73,0-10.39-4.66-10.39-10.39v-27.15c0-5.73,4.66-10.39,10.39-10.39s10.39,4.66,10.39,10.39v27.15c0,5.73-4.66,10.39-10.39,10.39Z"/>
        <path class="st32" d="M2769.75,1384.82c4.94,0,8.99,4.04,8.99,8.99v27.15c0,4.94-4.05,8.99-8.99,8.99s-8.99-4.04-8.99-8.99v-27.15c0-4.94,4.04-8.99,8.99-8.99M2769.75,1382.01c-6.5,0-11.8,5.29-11.8,11.8v27.15c0,6.5,5.29,11.8,11.8,11.8s11.8-5.29,11.8-11.8v-27.15c0-6.5-5.29-11.8-11.8-11.8h0Z"/>
      </g>
      <g>
        <path class="st2" d="M2786.92,1431.34c-5.73,0-10.39-4.66-10.39-10.39v-27.15c0-5.73,4.66-10.39,10.39-10.39s10.39,4.66,10.39,10.39v27.15c0,5.73-4.66,10.39-10.39,10.39Z"/>
        <path class="st32" d="M2786.92,1384.82c4.94,0,8.99,4.04,8.99,8.99v27.15c0,4.94-4.04,8.99-8.99,8.99s-8.99-4.04-8.99-8.99v-27.15c0-4.94,4.04-8.99,8.99-8.99M2786.92,1382.01c-6.51,0-11.8,5.29-11.8,11.8v27.15c0,6.5,5.29,11.8,11.8,11.8s11.8-5.29,11.8-11.8v-27.15c0-6.5-5.29-11.8-11.8-11.8h0Z"/>
      </g>
    </g>
    <g>
      <path class="st25" d="M1106.35,1476.98h466.8c16.35,0,29.62,13.27,29.62,29.62v243.16c0,16.35-13.27,29.62-29.62,29.62h-466.8c-16.35,0-29.62-13.27-29.62-29.62v-243.17c0-16.35,13.27-29.62,29.62-29.62Z" transform="translate(-288.43 2967.94) rotate(-90)"/>
      <path class="st26" d="M1411.96,1891.2h47.35c17.48,0,31.65-14.17,31.65-31.65v-462.75c0-17.48-14.17-31.65-31.65-31.65h-47.35v526.04Z"/>
      <rect class="st20" x="1314.44" y="1364.46" width="50.63" height="302.4" transform="translate(-175.9 2855.41) rotate(-90)"/>
      <g>
        <rect class="st20" x="1187.79" y="1489.58" width="303.92" height="52.16"/>
        <path class="st32" d="M1490.96,1490.34v50.63h-302.4v-50.63h302.4M1492.48,1488.81h-305.45v53.69h305.45v-53.69h0Z"/>
      </g>
      <rect class="st0" x="1411.36" y="1490.34" width="79.59" height="50.63"/>
      <g>
        <rect class="st20" x="1313.67" y="1363.7" width="52.16" height="528.27"/>
        <path class="st32" d="M1365.07,1364.46v526.74h-50.63v-526.74h50.63M1366.6,1362.93h-53.69v529.8h53.69v-529.8h0Z"/>
      </g>
      <g>
        <line class="st10" x1="1210.59" y1="1534.88" x2="1204.03" y2="1528.32"/>
        <line class="st10" x1="1217.15" y1="1534.88" x2="1210.59" y2="1528.32"/>
      </g>
      <g>
        <line class="st10" x1="1478.77" y1="1503" x2="1472.2" y2="1496.44"/>
        <line class="st10" x1="1485.33" y1="1503" x2="1478.77" y2="1496.44"/>
      </g>
      <g>
        <g>
          <g>
            <g>
              <path class="st20" d="M1314.34,1607.85c-5.69,0-10.97-2.19-13.76-5.72-1.77-2.24-2.41-4.88-1.8-7.43l16.06-67.64.96,1.66c1.34,2.32,4.69,3.88,8.36,3.88h31.18c3.66,0,7.02-1.56,8.36-3.88l.96-1.66,16.06,67.64c.61,2.56-.03,5.2-1.8,7.43-2.79,3.53-8.07,5.72-13.76,5.72h-50.82Z"/>
              <path class="st32" d="M1364.36,1529.09l15.62,65.77c1.52,6.4-5.54,12.22-14.82,12.22h-50.82c-9.28,0-16.34-5.82-14.82-12.22l15.62-65.77c1.44,2.49,4.93,4.26,9.02,4.26h31.18c4.09,0,7.58-1.76,9.02-4.26M1364.96,1525.01l-1.92,3.33c-1.21,2.09-4.3,3.5-7.7,3.5h-31.18c-3.4,0-6.49-1.41-7.7-3.5l-1.92-3.32-.89,3.73-15.62,65.77c-.66,2.79.03,5.66,1.94,8.08,2.93,3.71,8.43,6.01,14.36,6.01h50.82c5.92,0,11.43-2.3,14.36-6.02,1.92-2.42,2.61-5.29,1.94-8.08l-15.62-65.77-.89-3.74h0Z"/>
            </g>
            <g>
              <line class="st10" x1="1365.07" y1="1596.35" x2="1358.51" y2="1591.76"/>
              <line class="st10" x1="1371.64" y1="1596.35" x2="1365.07" y2="1591.76"/>
            </g>
          </g>
          <path class="st0" d="M1323.58,1535.37c4.5.4,5.46,15.38,2.15,33.45-3.31,18.07-9.63,32.39-14.13,31.99s-5.46-15.38-2.15-33.45c3.31-18.07,9.63-32.39,14.13-31.99Z"/>
        </g>
        <g>
          <g>
            <g>
              <path class="st20" d="M1363.7,1502.6c-1.34-2.32-4.7-3.88-8.36-3.88h-31.18c-3.66,0-7.02,1.56-8.36,3.88l-.96,1.66-16.06-67.64c-.61-2.56.03-5.2,1.8-7.43,2.79-3.53,8.06-5.72,13.76-5.72h50.82c5.7,0,10.97,2.19,13.76,5.72,1.77,2.23,2.41,4.87,1.8,7.43l-16.06,67.64-.96-1.66Z"/>
              <path class="st32" d="M1365.17,1424.24c9.28,0,16.34,5.82,14.82,12.22l-15.62,65.77c-1.44-2.5-4.93-4.26-9.02-4.26h-31.18c-4.09,0-7.58,1.76-9.02,4.26l-15.62-65.77c-1.52-6.4,5.54-12.22,14.82-12.22h50.82M1365.17,1422.71h-50.82c-5.92,0-11.43,2.3-14.36,6.02-1.92,2.42-2.61,5.29-1.94,8.08l15.62,65.77.89,3.74,1.92-3.33c1.21-2.09,4.3-3.5,7.7-3.5h31.18c3.4,0,6.49,1.4,7.7,3.5l1.92,3.33.89-3.74,15.62-65.77c.66-2.79-.03-5.66-1.94-8.08-2.93-3.71-8.43-6.02-14.36-6.02h0Z"/>
            </g>
            <g>
              <line class="st10" x1="1336.3" y1="1429.35" x2="1329.73" y2="1433.94"/>
              <line class="st10" x1="1342.86" y1="1429.35" x2="1336.3" y2="1433.94"/>
            </g>
          </g>
          <path class="st0" d="M1323.58,1495.95c4.5-.4,5.46-15.38,2.15-33.45-3.31-18.07-9.63-32.39-14.13-31.99-4.5.4-5.46,15.38-2.15,33.45,3.31,18.07,9.63,32.39,14.13,31.99Z"/>
        </g>
      </g>
      <g>
        <path class="st20" d="M1324.17,1489.58h31.18c5.79,0,10.49,4.7,10.49,10.49v31.18c0,5.79-4.7,10.49-10.49,10.49h-31.18c-5.79,0-10.49-4.7-10.49-10.49v-31.18c0-5.79,4.7-10.49,10.49-10.49Z"/>
        <path class="st32" d="M1355.34,1490.34c5.37,0,9.73,4.36,9.73,9.73v31.18c0,5.37-4.35,9.73-9.73,9.73h-31.18c-5.37,0-9.73-4.36-9.73-9.73v-31.18c0-5.37,4.36-9.73,9.73-9.73h31.18M1355.34,1488.81h-31.18c-6.21,0-11.26,5.05-11.26,11.26v31.18c0,6.21,5.05,11.25,11.26,11.25h31.18c6.21,0,11.25-5.05,11.25-11.25v-31.18c0-6.21-5.05-11.26-11.25-11.26h0Z"/>
      </g>
      <line class="st6" x1="1207.31" y1="1726.64" x2="1207.31" y2="1678.82"/>
      <line class="st6" x1="1213.87" y1="1707.41" x2="1213.87" y2="1659.59"/>
      <g>
        <line class="st10" x1="1349.42" y1="1879.48" x2="1342.86" y2="1872.92"/>
        <line class="st10" x1="1355.99" y1="1879.48" x2="1349.42" y2="1872.92"/>
      </g>
    </g>
    <g>
      <g>
        <path class="st15" d="M1953.59,1592.32v-83.03c0-23.58-19.18-42.77-42.77-42.77s-42.77,19.19-42.77,42.77v83.03h-15.96v-83.03c0-32.39,26.35-58.74,58.74-58.74s58.73,26.35,58.73,58.74v83.03h-15.96Z"/>
        <path class="st32" d="M1910.82,1451.66c31.78,0,57.63,25.85,57.63,57.63v81.92h-13.76v-81.92c0-24.19-19.68-43.87-43.87-43.87s-43.87,19.68-43.87,43.87v81.92h-13.76v-81.92c0-31.78,25.85-57.63,57.63-57.63M1910.82,1449.44c-33,0-59.84,26.85-59.84,59.84v84.14h18.19v-84.14c0-22.97,18.69-41.66,41.66-41.66s41.66,18.69,41.66,41.66v84.14h18.18v-84.14c0-33-26.85-59.84-59.84-59.84h0Z"/>
      </g>
      <polygon class="st0" points="2064.61 1891.31 1744.73 1891.31 1790.67 1548.47 2018.67 1548.47 2064.61 1891.31"/>
      <g>
        <polygon class="st20" points="1800.36 1892.41 1846.6 1547.36 2076.54 1547.36 2122.78 1892.41 1800.36 1892.41"/>
        <path class="st32" d="M2075.57,1548.47l45.94,342.84h-319.88l45.94-342.84h228M2077.51,1546.25h-231.88l-.26,1.92-45.94,342.84-.34,2.51h324.95l-.34-2.51-45.94-342.84-.26-1.92h0Z"/>
      </g>
      <g>
        <polygon class="st20" points="1800.36 1892.41 1846.6 1547.36 2076.54 1547.36 2122.78 1892.41 1800.36 1892.41"/>
        <path class="st32" d="M2075.57,1548.47l45.94,342.84h-319.88l45.94-342.84h228M2077.51,1546.25h-231.88l-.26,1.92-45.94,342.84-.34,2.51h324.95l-.34-2.51-45.94-342.84-.26-1.92h0Z"/>
      </g>
      <g>
        <path class="st15" d="M2004.34,1592.32v-83.03c0-23.58-19.18-42.77-42.76-42.77s-42.77,19.19-42.77,42.77v83.03h-15.97v-83.03c0-32.39,26.35-58.74,58.74-58.74s58.73,26.35,58.73,58.74v83.03h-15.97Z"/>
        <path class="st32" d="M1961.57,1451.66c31.78,0,57.63,25.85,57.63,57.63v81.92h-13.75v-81.92c0-24.19-19.68-43.87-43.87-43.87s-43.87,19.68-43.87,43.87v81.92h-13.76v-81.92c0-31.78,25.85-57.63,57.63-57.63M1961.57,1449.44c-33,0-59.84,26.85-59.84,59.84v84.14h18.18v-84.14c0-22.97,18.69-41.66,41.66-41.66s41.66,18.69,41.66,41.66v84.14h18.18v-84.14c0-33-26.85-59.84-59.84-59.84h0Z"/>
      </g>
      <g>
        <line class="st7" x1="1798.92" y1="1598.71" x2="1810.68" y2="1586.96"/>
        <line class="st7" x1="1798.92" y1="1610.47" x2="1810.68" y2="1598.71"/>
      </g>
      <g>
        <line class="st7" x1="2084.13" y1="1858.15" x2="2095.88" y2="1846.4"/>
        <line class="st7" x1="2084.13" y1="1869.91" x2="2095.88" y2="1858.15"/>
      </g>
    </g>
    <g>
      <g>
        <g>
          <g>
            <g>
              <path class="st15" d="M1517.08,1593.79v-72.2c0-9.33,5.44-16.91,12.13-16.91.69,0,1.4.08,2.09.24l71.17,40.37-1.68.96c-2.35,1.35-3.93,4.78-3.93,8.53v32.8c0,1.63.31,3.25.9,4.69l.62,1.52h-81.29Z"/>
              <path class="st32" d="M1529.21,1505.79c.6,0,1.21.07,1.83.22l69.2,39.29c-2.63,1.52-4.48,5.19-4.48,9.49v32.8c0,1.87.37,3.6.98,5.11h-78.54v-71.1c0-8.87,5.05-15.81,11.02-15.81M1529.21,1503.57c-7.3,0-13.24,8.09-13.24,18.02v73.31h84.05l-1.24-3.05c-.53-1.31-.81-2.79-.81-4.27v-32.8c0-3.36,1.36-6.41,3.37-7.57l3.35-1.93-3.36-1.91-69.2-39.29-.27-.16-.31-.07c-.77-.18-1.56-.28-2.34-.28h0Z"/>
            </g>
            <g>
              <line class="st7" x1="1529.48" y1="1574.27" x2="1534.3" y2="1567.37"/>
              <line class="st7" x1="1529.48" y1="1581.18" x2="1534.3" y2="1574.27"/>
            </g>
          </g>
          <g>
            <g>
              <path class="st15" d="M1630.37,1593.79l.62-1.52c.59-1.44.9-3.06.9-4.69v-32.8c0-3.75-1.58-7.18-3.93-8.53l-1.68-.96,70.88-40.25c.98-.28,1.69-.36,2.38-.36,6.69,0,12.13,7.59,12.13,16.91v72.2h-81.29Z"/>
              <path class="st32" d="M1699.53,1505.79c5.97,0,11.02,6.94,11.02,15.81v71.1h-78.54c.61-1.5.98-3.24.98-5.11v-32.8c0-4.3-1.86-7.98-4.48-9.49l69.2-39.29c.62-.15,1.23-.22,1.83-.22M1699.53,1503.57c-.78,0-1.57.09-2.34.28l-.31.07-.27.16-69.2,39.29-3.36,1.91,3.35,1.93c2.02,1.17,3.37,4.21,3.37,7.57v32.8c0,1.48-.28,2.96-.81,4.27l-1.24,3.05h84.05v-73.31c0-9.94-5.94-18.02-13.24-18.02h0Z"/>
            </g>
            <g>
              <line class="st7" x1="1698.43" y1="1529.66" x2="1693.61" y2="1522.76"/>
              <line class="st7" x1="1698.43" y1="1536.57" x2="1693.61" y2="1529.66"/>
            </g>
          </g>
        </g>
        <g>
          <path class="st15" d="M1588.51,1593.79l-.32-.55c-1.03-1.79-1.56-3.69-1.56-5.66v-32.8c0-6.25,5.09-11.34,11.34-11.34h32.81c6.25,0,11.34,5.09,11.34,11.34v32.8c0,1.97-.52,3.87-1.55,5.66l-.32.55h-51.72Z"/>
          <path class="st32" d="M1630.77,1544.55c5.65,0,10.24,4.58,10.24,10.24v32.8c0,1.87-.54,3.6-1.41,5.11h-50.45c-.88-1.51-1.41-3.24-1.41-5.11v-32.8c0-5.65,4.58-10.24,10.24-10.24h32.8M1630.77,1542.33h-32.8c-6.87,0-12.45,5.58-12.45,12.45v32.8c0,2.17.58,4.26,1.71,6.22l.64,1.1h53l.64-1.1c1.14-1.96,1.71-4.05,1.71-6.22v-32.8c0-6.87-5.58-12.45-12.45-12.45h0Z"/>
        </g>
      </g>
      <rect class="st18" x="1696.02" y="1640.23" width="75.95" height="251.08" transform="translate(3467.99 3531.54) rotate(180)"/>
      <rect class="st25" x="1428.85" y="1592.69" width="365.15" height="47.54"/>
      <rect class="st26" x="1671.09" y="1592.69" width="122.91" height="47.54"/>
      <g>
        <rect class="st30" x="1446.05" y="1641.34" width="251.07" height="251.07"/>
        <path class="st32" d="M1696.02,1642.45v248.86h-248.86v-248.86h248.86M1698.23,1640.23h-253.29v253.29h253.29v-253.29h0Z"/>
      </g>
      <g>
        <rect class="st15" x="1538.32" y="1591.58" width="47.89" height="299.09"/>
        <path class="st32" d="M1585.11,1592.69v296.88h-45.68v-296.88h45.68M1587.32,1590.47h-50.11v301.31h50.11v-301.31h0Z"/>
      </g>
      <g>
        <rect class="st15" x="1446.05" y="1742.06" width="327.03" height="47.89"/>
        <path class="st32" d="M1771.97,1743.17v45.68h-324.81v-45.68h324.81M1774.19,1740.95h-329.24v50.11h329.24v-50.11h0Z"/>
      </g>
      <g>
        <line class="st7" x1="1473" y1="1673.4" x2="1482.1" y2="1664.3"/>
        <line class="st7" x1="1473" y1="1682.51" x2="1482.1" y2="1673.4"/>
      </g>
      <g>
        <line class="st7" x1="1745.05" y1="1866.54" x2="1754.16" y2="1857.44"/>
        <line class="st7" x1="1745.05" y1="1875.65" x2="1754.16" y2="1866.54"/>
      </g>
      <g>
        <line class="st7" x1="1589.24" y1="1770.77" x2="1598.34" y2="1761.66"/>
        <line class="st7" x1="1589.24" y1="1779.87" x2="1598.34" y2="1770.77"/>
      </g>
    </g>
    <g>
      <g>
        <g>
          <g>
            <path class="st21" d="M1385.41,1612.72l3.91-53.81-183.37-13.32c-14.86-1.08-27.78,10.09-28.86,24.95h0c-1.08,14.86,10.09,27.78,24.95,28.86l183.37,13.32Z"/>
            <polygon class="st21" points="1547.08 1542.2 1526.2 1494.32 1376.93 1559.44 1385.41 1612.72 1547.08 1542.2"/>
            <path class="st21" d="M1379.31,1616.89c11.25-2.06,18.7-12.85,16.65-24.1s-12.85-18.7-24.1-16.65c-11.25,2.06-18.71,12.85-16.65,24.1,2.06,11.25,12.85,18.7,24.1,16.65Z"/>
          </g>
          <path class="st21" d="M1524.3,1497.58l8.19,8.01,29.32-29.68c4.4-4.51,4.32-11.79-.19-16.2h0c-4.5-4.4-11.79-4.32-16.2.18l-21.32,21.48c-4.4,4.51-4.32,11.79.18,16.2Z"/>
          <path class="st21" d="M1559.36,1500.15l3.31,10.96,65.07-14.17c6.03-1.82,9.48-8.24,7.66-14.27h0c-1.82-6.03-8.24-9.48-14.27-7.66l-67.69,12.98c-6.03,1.82,4.11,6.12,5.93,12.15Z"/>
          <path class="st21" d="M1570.43,1514.53l1.29,11.38,66.56-2.29c6.26-.71,10.8-6.41,10.09-12.67h0c-.71-6.26-6.41-10.8-12.67-10.09l-55.18,1c-6.26.71-10.8,6.41-10.09,12.67Z"/>
          <path class="st21" d="M1562.62,1528.94l-4.34,13.82,69.88,5.96c6.29.3,11.68-4.61,11.98-10.9h0c.3-6.29-4.61-11.68-10.9-11.98l-54.63-7.81c-6.29-.29-11.68,4.61-11.98,10.9Z"/>
          <path class="st21" d="M1581.24,1498.75l-1.59,35.82c-.23,5.09-4.58,9.08-9.67,8.85l-29.66-1.69c-14.94-.66-26.63-13.43-25.97-28.38h0c.66-14.95,13.43-26.63,28.38-25.97l29.66,1.69c5.09.23,9.08,4.58,8.85,9.67Z"/>
          <line class="st9" x1="1604.72" y1="1501.42" x2="1571.27" y2="1509.17"/>
          <line class="st9" x1="1611.13" y1="1524.56" x2="1577.25" y2="1525.72"/>
          <path class="st9" d="M1551.57,1495.22c.77,1.04,2.78,18.01-15.6,22.03"/>
          <path class="st9" d="M1563.67,1524.34c-1.76-1.25-9.35-12.51-18.53-9.8"/>
        </g>
        <path class="st32" d="M1039.49,1508.43c11.19,25.87,41.24,37.76,67.11,26.56,25.87-11.19,37.76-41.24,26.56-67.11-11.19-25.87-41.24-37.76-67.11-26.56-25.87,11.19-37.76,41.24-26.56,67.11Z"/>
        <path class="st32" d="M998.48,1501.46c6.1,14.09,22.46,20.57,36.55,14.47,14.09-6.1,20.57-22.46,14.47-36.55-6.1-14.09-22.46-20.56-36.55-14.47-14.09,6.1-20.56,22.46-14.47,36.55Z"/>
        <g>
          <polygon class="st28" points="1070.59 2013.02 1046.81 1924.88 705.22 2019.77 728.74 2108.39 1070.59 2013.02"/>
          <polygon class="st28" points="995.75 1944.24 1070.59 2013.02 1221.3 1825.4 1144.08 1773.65 995.75 1944.24"/>
          <path class="st16" d="M749.41,2007.26c-14.85,4.39-24.86,19.68-20.86,34.74,4.07,15.32,19.78,24.45,35.11,20.38l22.4,31.97-12.01,7.18,7.53,28.4c7.68,28.96,9.55,64.65-27.65,74.52-11.55,3.06-29.39,3.04-32.45-8.5l-45.37-171c-2.47-9.32,3.08-18.87,12.39-21.34l31.6-8.38c11.22-2.98,23.9,2.34,29.32,12.03Z"/>
          <line class="st9" x1="745.02" y1="2199.89" x2="693.5" y2="2005.69"/>
          <path class="st9" d="M726.81,2131.25c24.78-6.57,50.33,8.84,57.13,34.47"/>
          <path class="st28" d="M1036.71,1952.45c-22.44,5.95-35.81,28.98-29.85,51.42,5.95,22.44,28.98,35.81,51.42,29.86,22.44-5.96,35.81-28.98,29.86-51.42-5.95-22.44-28.98-35.81-51.42-29.86Z"/>
        </g>
        <rect class="st21" x="1078.01" y="1599.51" width="109.2" height="157.54" transform="translate(2265.22 3356.56) rotate(180)"/>
        <path class="st24" d="M1041.9,1698.26c108.63-18.71,117.85,38.94,181.42,0v-113.21c0-22.47-18.22-40.69-40.69-40.69h-100.04c-22.47,0-40.69,18.22-40.69,40.69v113.21Z"/>
        <path class="st21" d="M1174.22,1509.21v71.69c0,11.13-9.02,20.16-20.16,20.16h0c-11.13,0-20.16-9.03-20.16-20.16v-82.4l40.32,10.71Z"/>
        <path class="st32" d="M1174.22,1529.69c-5.81,1.98-12.03,3.07-18.5,3.07-7.73,0-15.09-1.54-21.81-4.31v-29.96l40.32,10.71v20.48Z"/>
        <path class="st21" d="M1083.28,1476.05c2.37-1.02,4.81-1.61,7.24-1.81-4.78-25.68,8.58-52.17,33.56-62.98,29.03-12.56,62.75.78,75.31,29.81,12.56,29.03-.78,62.75-29.81,75.31-19.8,8.57-41.78,5.08-57.74-7.22-2.38,3.84-5.9,7.01-10.36,8.94-11.61,5.03-25.1-.31-30.12-11.93s.31-25.1,11.92-30.12Z"/>
        <path class="st21" d="M1083.28,1476.05c2.37-1.02,4.81-1.61,7.24-1.81-4.78-25.68,8.58-52.17,33.56-62.98,29.03-12.56,62.75.78,75.31,29.81,12.56,29.03-.78,62.75-29.81,75.31-19.8,8.57-41.78,5.08-57.74-7.22-2.38,3.84-5.9,7.01-10.36,8.94-11.61,5.03-25.1-.31-30.12-11.93s.31-25.1,11.92-30.12Z"/>
        <path class="st9" d="M1164.21,1498.56s12.78,4.99,20.03-9.32"/>
        <path class="st1" d="M1181.47,1468.98c5.87.86,3.09-5.55,8.34-9.46,5.25-3.91,9.68.19,10.68-4.71,1.32-6.42-11.35-6.34-16.6-2.42-5.25,3.91-8.91,15.65-2.42,16.6Z"/>
        <path class="st1" d="M1147.18,1493.81c5.87.86,3.09-5.55,8.34-9.46s9.68.19,10.68-4.71c1.32-6.42-11.35-6.34-16.6-2.43-5.25,3.91-8.91,15.65-2.43,16.6Z"/>
        <path class="st32" d="M1125.81,1414.06c7.54,17.43,27.79,25.44,45.22,17.9,17.43-7.54,25.44-27.79,17.9-45.22-7.54-17.43-27.79-25.44-45.22-17.9-17.43,7.54-25.44,27.79-17.9,45.22Z"/>
        <path class="st32" d="M1044.89,1441.03c11.2,25.87,41.24,37.76,67.11,26.56,25.87-11.19,37.76-41.24,26.57-67.11-11.2-25.87-41.24-37.76-67.11-26.56-25.87,11.19-37.76,41.24-26.57,67.11Z"/>
        <path class="st32" d="M1109.5,1455.78l4.8,11.1c5.3,12.25-.33,26.49-12.58,31.79l-1.41.61-14.41-33.29,23.59-10.21Z"/>
        <path class="st9" d="M1079.4,1499.74c3.46,8,13.24,11.45,21.86,7.72"/>
        <path class="st9" d="M1089.85,1505.93c-3.09-7.13-.56-15.08,5.65-17.77"/>
        <polyline class="st9" points="1164.19 1457.32 1180.18 1476.41 1177.77 1484.19"/>
        <path class="st9" d="M1165.26,1739.69c3.61,0,6.53-2.92,6.53-6.53"/>
        <path class="st28" d="M1078.87,1749.07h103.76c21.64,0,39.19,17.54,39.19,39.19l-.51,37.14-144.71,31.09c-19.51-10.11-32.85-30.48-32.85-53.97v-18.33c0-19.4,15.73-35.12,35.12-35.12Z"/>
        <polygon class="st32" points="1202.6 1848.69 1186.43 1868.81 1145.43 1787.28 1202.6 1848.69"/>
        <g>
          <polygon class="st28" points="1268.36 2009.99 1181.83 2069.85 1309.85 2373.06 1395.83 2341.22 1268.36 2009.99"/>
          <polygon class="st28" points="1181.83 2069.85 1273.83 2026.63 1157.24 1816.1 1066.86 1841.69 1181.83 2069.85"/>
          <path class="st16" d="M1292.25,2329.69c5.78,14.37,21.96,22.87,36.57,17.46,14.87-5.5,22.46-22.02,16.95-36.89l29.7-25.34,8.29,11.27,27.55-10.2c28.1-10.4,63.44-15.66,76.81,20.44,4.15,11.2,5.82,28.96-5.38,33.11l-165.91,61.44c-9.04,3.35-19.08-1.27-22.42-10.3l-11.35-30.66c-4.03-10.89.06-24.02,9.18-30.33Z"/>
          <line class="st9" x1="1490.64" y1="2319.01" x2="1301.02" y2="2385.44"/>
          <path class="st9" d="M1423.61,2342.49c-8.47-24.19,4.91-50.86,29.93-59.63"/>
          <path class="st28" d="M1202.15,2015.16c-3.96,22.88,11.37,44.64,34.25,48.61,22.88,3.97,44.64-11.37,48.61-34.25,3.97-22.88-11.37-44.64-34.25-48.61-22.88-3.97-44.64,11.37-48.61,34.25Z"/>
        </g>
        <line class="st9" x1="1166.11" y1="2038.66" x2="1071.23" y2="1850.37"/>
        <line class="st9" x1="1192.77" y1="1759.59" x2="1079.74" y2="1759.59"/>
        <g>
          <line class="st9" x1="1186.18" y1="1751.06" x2="1186.18" y2="1759.59"/>
          <line class="st9" x1="1173.7" y1="1751.06" x2="1173.7" y2="1759.59"/>
          <line class="st9" x1="1161.22" y1="1751.06" x2="1161.22" y2="1759.59"/>
          <line class="st9" x1="1148.74" y1="1751.06" x2="1148.74" y2="1759.59"/>
          <line class="st9" x1="1136.26" y1="1751.06" x2="1136.26" y2="1759.59"/>
          <line class="st9" x1="1123.77" y1="1751.06" x2="1123.77" y2="1759.59"/>
          <line class="st9" x1="1111.29" y1="1751.06" x2="1111.29" y2="1759.59"/>
          <line class="st9" x1="1098.81" y1="1751.06" x2="1098.81" y2="1759.59"/>
          <line class="st9" x1="1086.33" y1="1751.06" x2="1086.33" y2="1759.59"/>
        </g>
        <g>
          <g>
            <path class="st21" d="M893,1612.72l-3.91-53.81,183.37-13.32c14.86-1.08,27.78,10.09,28.86,24.95h0c1.08,14.86-10.09,27.78-24.95,28.86l-183.37,13.32Z"/>
            <polygon class="st21" points="731.33 1542.2 752.21 1494.32 901.49 1559.44 893 1612.72 731.33 1542.2"/>
            <path class="st21" d="M899.1,1616.89c-11.25-2.06-18.7-12.85-16.65-24.1,2.06-11.25,12.85-18.7,24.1-16.65,11.25,2.06,18.7,12.85,16.65,24.1-2.06,11.25-12.85,18.7-24.1,16.65Z"/>
          </g>
          <path class="st21" d="M754.11,1497.58l-8.19,8.01-29.32-29.68c-4.4-4.51-4.32-11.79.19-16.2h0c4.51-4.4,11.79-4.32,16.2.18l21.32,21.48c4.4,4.51,4.32,11.79-.19,16.2Z"/>
          <path class="st21" d="M719.06,1500.15l-3.31,10.96-65.08-14.17c-6.03-1.82-9.48-8.24-7.66-14.27h0c1.82-6.03,8.24-9.48,14.27-7.66l67.69,12.98c6.03,1.82-4.11,6.12-5.93,12.15Z"/>
          <path class="st21" d="M707.98,1514.53l-1.29,11.38-66.56-2.29c-6.26-.71-10.8-6.41-10.09-12.67h0c.71-6.26,6.41-10.8,12.67-10.09l55.18,1c6.26.71,10.8,6.41,10.09,12.67Z"/>
          <path class="st21" d="M715.8,1528.94l4.34,13.82-69.88,5.96c-6.29.3-11.68-4.61-11.98-10.9h0c-.29-6.29,4.61-11.68,10.9-11.98l54.63-7.81c6.29-.29,11.68,4.61,11.98,10.9Z"/>
          <path class="st21" d="M697.17,1498.75l1.59,35.82c.23,5.09,4.58,9.08,9.67,8.85l29.66-1.69c14.94-.66,26.63-13.43,25.97-28.38h0c-.66-14.95-13.43-26.63-28.38-25.97l-29.66,1.69c-5.09.23-9.08,4.58-8.85,9.67Z"/>
          <line class="st9" x1="673.69" y1="1501.42" x2="707.14" y2="1509.17"/>
          <line class="st9" x1="667.28" y1="1524.56" x2="701.16" y2="1525.72"/>
          <path class="st9" d="M726.84,1495.22c-.77,1.04-2.78,18.01,15.6,22.03"/>
          <path class="st9" d="M714.74,1524.34c1.76-1.25,9.36-12.51,18.53-9.8"/>
        </g>
      </g>
      <path class="st9" d="M1111.29,1771.77s18.75,39.37-33.28,58.74"/>
      <polyline class="st9" points="1111.29 1813.1 1202.15 2015.16 1300.52 2252.03"/>
      <g>
        <path class="st9" d="M1180.27,1635.82c-13.95,0-25.26-11.31-25.26-25.26"/>
        <path class="st9" d="M1129.75,1635.82c13.95,0,25.26-11.31,25.26-25.26"/>
      </g>
      <g>
        <rect class="st30" x="744.16" y="1530.5" width="63.5" height="9.81" transform="translate(2486.88 1356.28) rotate(110.83)"/>
        <rect class="st30" x="763.67" y="1534.88" width="63.5" height="9.81" transform="translate(2524.8 1426.27) rotate(113.56)"/>
      </g>
      <g>
        <line class="st12" x1="1215.5" y1="1682.97" x2="1202.57" y2="1670.2"/>
        <line class="st12" x1="1215.59" y1="1695.81" x2="1202.65" y2="1683.05"/>
      </g>
      <g>
        <line class="st12" x1="1230.58" y1="1964.27" x2="1217.64" y2="1951.51"/>
        <line class="st12" x1="1230.66" y1="1977.12" x2="1217.72" y2="1964.36"/>
      </g>
      <g>
        <path class="st15" d="M1189.22,1444.18c-1.79,2.03-4.38,4.14-7.37,6.29l-.04.04c-7.21,5.22-13.94,8.8-17.01,4.58s.28-11.87,7.49-17.09c7.17-5.22,15.49-5.97,18.56-1.75,1.79,2.47.88,5.1-1.63,7.93Z"/>
        <path class="st32" d="M1189.22,1444.18c-1.79,2.03-4.38,4.14-7.37,6.29l-.04.04c-2.47.08-4.98-1-6.57-3.15.84.04,1.71-.2,2.47-.72,1.75-1.27,2.15-3.74.88-5.5-1.04-1.39-2.79-1.91-4.38-1.43.56-1.31,1.43-2.55,2.71-3.43,3.5-2.55,8.4-1.75,10.95,1.75,1.35,1.83,1.75,4.06,1.35,6.13Z"/>
        <path class="st15" d="M1157.32,1465.41c-1.91,2.83-6.17,5.86-10.59,9.08-7.21,5.22-12.11,8.88-15.17,4.66-3.07-4.22.28-11.87,7.49-17.09,7.21-5.22,15.49-5.97,18.56-1.75,1.19,1.63.92,3.31-.28,5.1Z"/>
        <path class="st32" d="M1157.32,1465.41c-1.91,2.83-6.17,5.86-10.59,9.08-1.27-.48-2.43-1.35-3.35-2.55.88.04,1.75-.2,2.47-.72,1.79-1.27,2.15-3.74.92-5.5-1.04-1.43-2.83-1.95-4.38-1.43.52-1.35,1.43-2.55,2.67-3.47,3.55-2.51,8.44-1.75,10.99,1.79.64.88,1.04,1.79,1.27,2.79Z"/>
      </g>
    </g>
  </g>
  <rect class="st24" x="-118.41" y="-586.94" width="287.87" height="287.87"/>
  <rect class="st27" x="267.79" y="-586.94" width="287.87" height="287.87"/>
  <rect class="st22" x="653.99" y="-586.94" width="287.87" height="287.87"/>
  <rect class="st16" x="1040.2" y="-586.94" width="287.87" height="287.87"/>
  <rect class="st31" x="1426.4" y="-586.94" width="287.87" height="287.87"/>
  <rect class="st17" x="1812.61" y="-586.94" width="287.87" height="287.87"/>
  <rect class="st29" x="2198.81" y="-586.94" width="287.87" height="287.87"/>
  <rect class="st3" x="2585.02" y="-586.94" width="287.87" height="287.87"/>
  <rect class="st28" x="2971.22" y="-586.94" width="287.87" height="287.87"/>
  <rect class="st23" x="3357.42" y="-586.94" width="287.87" height="287.87"/>
  <rect class="st15" x="3743.63" y="-586.94" width="287.87" height="287.87"/>
</svg>