<?xml version="1.0" encoding="UTF-8"?> <svg xmlns="http://www.w3.org/2000/svg" width="385" height="447" viewBox="0 0 385 447" fill="none"><g opacity="0.8"><g filter="url(#filter0_f_9872_40333)"><path d="M331.578 146.176C331.436 141.811 327.789 138.389 323.432 138.531C319.076 138.674 315.66 142.328 315.802 146.693C315.945 151.057 319.592 154.48 323.948 154.337C328.305 154.194 331.721 150.54 331.578 146.176Z" fill="#99FAF4" fill-opacity="0.5"></path></g><path d="M326.321 146.348C326.369 147.803 325.23 149.021 323.778 149.069C322.326 149.116 321.11 147.975 321.063 146.521C321.015 145.066 322.154 143.848 323.606 143.8C325.058 143.752 326.274 144.893 326.321 146.348Z" fill="#99FAF4"></path><path fill-rule="evenodd" clip-rule="evenodd" d="M357.699 278.248C359.816 278.149 361.61 279.792 361.699 281.911L362.679 305.221C362.766 307.309 361.165 309.081 359.081 309.203L316.411 311.701C314.968 311.786 313.6 311.049 312.877 309.796L311.39 307.223C310.947 306.457 310.105 306.014 309.223 306.083L239.712 311.551C237.489 311.726 235.588 309.967 235.588 307.735V295.063C235.588 293.036 237.168 291.36 239.191 291.242L309.273 287.18C310.094 287.133 310.826 286.65 311.194 285.914L312.997 282.3C313.616 281.06 314.857 280.252 316.24 280.187L357.699 278.248ZM360.171 281.975C360.117 280.704 359.041 279.718 357.771 279.778L316.312 281.716C315.481 281.755 314.737 282.24 314.366 282.984L312.562 286.598C311.95 287.824 310.729 288.629 309.362 288.709L239.28 292.771C238.066 292.841 237.118 293.847 237.118 295.063V307.735C237.118 309.074 238.258 310.129 239.592 310.025L309.103 304.557C310.572 304.441 311.977 305.18 312.714 306.456L314.201 309.03C314.635 309.781 315.456 310.223 316.322 310.173L358.992 307.674C360.242 307.601 361.203 306.538 361.15 305.285L360.171 281.975Z" fill="#E9EEF1"></path><path fill-rule="evenodd" clip-rule="evenodd" d="M361.115 2.4273L361.111 2.42723L358.317 2.39962C356.487 2.38156 353.801 2.35513 350.378 2.32159C343.532 2.25451 333.739 2.15903 321.951 2.04542C298.374 1.81821 266.817 1.51848 234.893 1.22841C171.06 0.648427 105.722 0.106598 99.8362 0.261758C88.0541 0.572371 80.2186 1.19786 67.7341 6.82648C55.4104 12.3826 28.4993 22.8791 15.0475 26.8946C12.0327 27.5778 6.05176 30.9452 5.52307 39.0149C4.90518 44.4323 3.97958 52.841 3.208 60.4864C2.43804 68.1157 1.81445 75.0488 1.81445 77.4489C1.81445 82.1621 5.31451 254.132 7.06432 339.52V361.197L7.06626 361.224C7.17842 362.797 8.11666 366.474 11.0503 368.878C11.3487 369.123 12.2567 370.019 13.7057 371.502C15.1356 372.966 17.0546 374.961 19.3468 377.364C23.9309 382.169 30.0015 388.595 36.6252 395.636C49.8487 409.693 65.2725 426.195 75.4635 437.127C77.3628 440.24 84.1375 445.361 96.8724 443.61C109.466 441.878 273.604 421.232 354.107 411.124L354.113 411.123C354.997 411.005 356.294 410.59 357.387 409.708C358.506 408.805 359.409 407.41 359.409 405.414C359.409 402.034 360.4 378.889 360.924 367.103L376.391 365.017L376.432 365.007C378.764 364.423 383.188 361.587 383.188 354.982C383.188 348.782 377.835 124.047 375.159 12.465C375.156 10.7248 374.416 8.20723 372.271 6.12405C370.107 4.02361 366.582 2.42804 361.118 2.4273C361.117 2.4273 361.116 2.4273 361.115 2.4273ZM361.115 3.19275L361.107 3.95816L361.111 3.95819H361.115C366.273 3.95819 369.386 5.45633 371.205 7.22285C373.039 9.00328 373.629 11.1212 373.629 12.4746V12.4838L373.629 12.493C376.306 124.095 381.658 348.806 381.658 354.982C381.658 360.711 377.903 363.04 376.1 363.511L359.453 365.757L359.424 366.396C358.91 377.931 357.879 401.927 357.879 405.414C357.879 406.884 357.238 407.861 356.427 408.516C355.59 409.191 354.571 409.518 353.911 409.606C273.415 419.713 109.269 440.36 96.6641 442.094C84.3003 443.794 78.1932 438.738 76.7358 436.274L76.6935 436.202L76.6369 436.142C66.4455 425.209 50.9884 408.671 37.7391 394.587C31.1146 387.545 25.0411 381.115 20.4533 376.307C18.1596 373.903 16.2358 371.902 14.7995 370.432C13.3823 368.981 12.4007 368.006 12.0197 367.694C9.53461 365.657 8.6969 362.472 8.59413 361.142V339.504L8.59397 339.496C6.84381 254.092 3.34425 82.1413 3.34425 77.4489C3.34425 75.1461 3.95593 68.3108 4.73006 60.6402C5.50167 52.9945 6.42774 44.5822 7.04511 39.1699L7.04725 39.1512L7.04846 39.1324C7.51458 31.8938 12.8564 28.9506 15.4069 28.3829L15.4333 28.377L15.4593 28.3692C28.9859 24.3345 55.9887 13.801 68.3625 8.22226C80.5834 2.71249 88.1887 2.10025 99.8765 1.79212C105.726 1.63791 171.017 2.17898 234.879 2.75924C266.803 3.0493 298.36 3.34903 321.936 3.57625C333.724 3.68985 343.517 3.78533 350.363 3.85241C353.785 3.88594 356.472 3.91238 358.302 3.93043L361.104 3.95813C361.106 3.95815 361.107 3.95816 361.115 3.19275Z" fill="#E9EEF1"></path><path fill-rule="evenodd" clip-rule="evenodd" d="M78.4008 13.1175C78.1425 4.83659 82.8585 1.68579 85.5135 1.20215L85.7875 2.70829C83.9132 3.04972 79.6941 5.5094 79.9299 13.0698C80.1768 20.9862 89.7082 264.696 94.4435 385.575C94.5392 387.174 95.2675 389.567 97.1417 391.464C98.9926 393.337 102.032 394.798 106.903 394.441C114.66 393.872 212.505 382.64 293.899 373.296C318.569 370.464 341.729 367.805 360.41 365.669L360.583 367.19C341.935 369.322 318.814 371.977 294.178 374.805C212.767 384.151 114.806 395.397 107.014 395.968C101.756 396.353 98.2588 394.772 96.0539 392.54C93.8752 390.335 93.028 387.566 92.9159 385.658L92.9155 385.65L92.9152 385.643C88.1802 264.774 78.648 21.0423 78.4008 13.1175Z" fill="#E9EEF1"></path><path fill-rule="evenodd" clip-rule="evenodd" d="M72.4258 14.0218C72.4258 8.77795 74.0859 5.55627 74.9606 4.57031L75.3419 4.90911C74.5697 5.77956 72.9357 8.86967 72.9357 14.0218C72.9357 19.2132 81.5821 248.016 85.9058 361.779L85.9095 361.877L85.847 361.952C85.5743 362.28 85.0994 362.725 84.5507 362.993C84.0004 363.261 83.321 363.374 82.7186 362.921C82.2477 362.567 81.2413 362.036 80.1511 361.508C79.0725 360.986 77.9371 360.478 77.219 360.17C76.6884 359.978 75.921 359.89 75.3017 360.193C74.7086 360.482 74.171 361.171 74.171 362.717V434.189H73.661V362.717C73.661 361.045 74.2557 360.136 75.0781 359.734C75.8716 359.347 76.7987 359.474 77.4002 359.693L77.4069 359.695L77.4135 359.698C78.1369 360.009 79.2831 360.521 80.3733 361.049C81.455 361.573 82.5075 362.124 83.0248 362.513C83.4106 362.803 83.8635 362.76 84.3271 362.534C84.7544 362.326 85.1442 361.979 85.3924 361.699C81.068 247.914 72.4258 19.2246 72.4258 14.0218Z" fill="#E9EEF1"></path><path fill-rule="evenodd" clip-rule="evenodd" d="M353.958 44.8712C353.919 43.6273 352.897 42.6413 351.653 42.6476L115.983 43.8538C114.688 43.8605 113.656 44.9366 113.701 46.2312L120.89 249.999C120.936 251.296 122.045 252.298 123.339 252.209L357.809 236.227C359.041 236.143 359.986 235.098 359.947 233.863L353.958 44.8712ZM351.645 41.1168C353.718 41.1061 355.422 42.7496 355.487 44.8226L361.476 233.814C361.541 235.873 359.967 237.614 357.913 237.754L123.443 253.737C121.287 253.884 119.437 252.215 119.361 250.053L112.172 46.2852C112.096 44.1276 113.818 42.334 115.975 42.323L351.645 41.1168Z" fill="#E9EEF1"></path><path fill-rule="evenodd" clip-rule="evenodd" d="M90.2403 27.8947C90.119 24.5719 92.7779 21.812 96.1006 21.812H368.298C371.483 21.812 374.085 24.3552 374.161 27.541L381.629 342.081C381.701 345.131 379.426 347.728 376.394 348.055L109.267 376.868C105.884 377.233 102.902 374.65 102.778 371.247L90.2403 27.8947ZM96.1006 22.3223C93.0669 22.3223 90.6391 24.8422 90.7499 27.8761L103.288 371.229C103.401 374.335 106.124 376.694 109.212 376.36L376.34 347.547C379.107 347.249 381.185 344.878 381.119 342.093L373.651 27.5532C373.582 24.6444 371.206 22.3223 368.298 22.3223H96.1006Z" fill="#E9EEF1"></path><path fill-rule="evenodd" clip-rule="evenodd" d="M321.856 53.463C297.961 52.1901 253.932 50.0586 227.087 50.0592C200.692 50.0598 156.509 52.1201 131.63 53.3987C121.792 53.9044 114.218 62.2324 114.583 72.0897L120.029 219.15C120.386 228.789 128.198 236.43 137.824 236.427C161.551 236.42 205.678 235.971 250.511 233.242C287.21 231.009 311.237 229.062 325.345 227.772C334.289 226.955 341.041 219.529 341.222 210.523L342.746 134.704L338.825 70.3819C338.267 61.2308 330.997 53.9499 321.856 53.463ZM227.087 48.5283C253.98 48.5277 298.049 50.6617 321.937 51.9342C331.862 52.4629 339.747 60.3685 340.352 70.2887L344.276 134.673L342.752 210.553C342.555 220.319 335.224 228.407 325.484 229.297C311.359 230.588 287.316 232.536 250.604 234.77C205.727 237.501 161.565 237.951 137.824 237.958C127.362 237.961 118.887 229.655 118.5 219.206L113.055 72.1463C112.659 61.4581 120.873 52.4187 131.552 51.8698C156.423 50.5915 200.646 48.5289 227.087 48.5283Z" fill="#E9EEF1"></path><path fill-rule="evenodd" clip-rule="evenodd" d="M339.968 379.814C339.968 378.429 338.752 377.359 337.379 377.537L295.632 382.934C294.488 383.082 293.631 384.057 293.631 385.211V404.385C293.631 405.776 294.857 406.848 296.235 406.661L337.982 400.994C339.119 400.839 339.968 399.867 339.968 398.718V379.814ZM337.183 376.018C339.471 375.723 341.498 377.506 341.498 379.814V398.718C341.498 400.633 340.084 402.253 338.187 402.511L296.44 408.178C294.145 408.489 292.102 406.703 292.102 404.385V385.211C292.102 383.287 293.529 381.662 295.436 381.415L337.183 376.018Z" fill="#E9EEF1"></path><path fill-rule="evenodd" clip-rule="evenodd" d="M337.08 384.129C337.08 382.441 335.602 381.135 333.928 381.344L323.371 382.664C321.968 382.839 320.914 384.033 320.914 385.449V396.95C320.914 398.652 322.417 399.963 324.102 399.73L334.659 398.274C336.047 398.082 337.08 396.895 337.08 395.493V384.129ZM333.865 380.838C335.843 380.59 337.59 382.134 337.59 384.129V395.493C337.59 397.15 336.369 398.553 334.728 398.779L324.172 400.236C322.18 400.51 320.404 398.962 320.404 396.95V385.449C320.404 383.776 321.649 382.365 323.308 382.157L333.865 380.838Z" fill="#E9EEF1"></path><path fill-rule="evenodd" clip-rule="evenodd" d="M350.798 288.079C350.738 287.401 350.156 286.889 349.477 286.917L320.911 288.061C320.466 288.079 320.063 288.328 319.847 288.717L317.58 292.805C317.286 293.335 316.743 293.68 316.138 293.72L243.974 298.52C243.304 298.565 242.783 299.121 242.783 299.793V302.287C242.783 303.027 243.41 303.612 244.148 303.56L316.238 298.465C316.755 298.428 317.261 298.618 317.627 298.984L320.353 301.716C320.611 301.974 320.966 302.109 321.33 302.088L350.57 300.364C351.288 300.322 351.828 299.695 351.765 298.978L350.798 288.079ZM349.456 286.407C350.408 286.369 351.221 287.084 351.306 288.033L352.273 298.933C352.362 299.936 351.605 300.815 350.6 300.874L321.36 302.597C320.851 302.627 320.353 302.437 319.993 302.076L317.266 299.345C317.005 299.083 316.643 298.948 316.274 298.974L244.184 304.069C243.151 304.142 242.273 303.323 242.273 302.287V299.793C242.273 298.853 243.002 298.073 243.94 298.011L316.104 293.211C316.536 293.182 316.924 292.936 317.135 292.557L319.401 288.47C319.703 287.924 320.268 287.576 320.89 287.552L349.456 286.407Z" fill="#E9EEF1"></path><path fill-rule="evenodd" clip-rule="evenodd" d="M139.405 329.177C141.234 329.099 142.781 330.519 142.859 332.349L143.527 347.973C143.604 349.767 142.239 351.297 140.449 351.423L124.677 352.536C122.795 352.669 121.183 351.206 121.13 349.319L120.685 333.251C120.635 331.439 122.047 329.923 123.856 329.845L139.405 329.177ZM142.349 332.371C142.283 330.823 140.975 329.621 139.427 329.687L123.878 330.355C122.347 330.421 121.152 331.704 121.195 333.237L121.64 349.305C121.684 350.901 123.049 352.139 124.641 352.027L140.413 350.914C141.928 350.807 143.083 349.513 143.018 347.994L142.349 332.371Z" fill="#E9EEF1"></path><path fill-rule="evenodd" clip-rule="evenodd" d="M67.556 413.634L14.1309 357.323L14.5007 356.971L67.9258 413.282L67.556 413.634Z" fill="#E9EEF1"></path><path fill-rule="evenodd" clip-rule="evenodd" d="M67.556 407.447L14.1309 351.136L14.5007 350.784L67.9258 407.095L67.556 407.447Z" fill="#E9EEF1"></path><path fill-rule="evenodd" clip-rule="evenodd" d="M67.556 401.258L14.1309 344.947L14.5007 344.596L67.9258 400.907L67.556 401.258Z" fill="#E9EEF1"></path><path fill-rule="evenodd" clip-rule="evenodd" d="M67.556 395.069L14.1309 338.758L14.5007 338.407L67.9258 394.718L67.556 395.069Z" fill="#E9EEF1"></path><path fill-rule="evenodd" clip-rule="evenodd" d="M174.538 184.585C172.608 171.381 170.795 156.93 170.187 152.006C170.124 151.491 169.728 151.185 169.317 151.134C168.913 151.084 168.46 151.276 168.25 151.73L166.144 156.289L162.383 142.638C162.083 141.549 160.498 141.683 160.385 142.808L158.108 165.496L154.94 156.21C154.792 155.777 154.374 155.495 153.917 155.521L126.381 157.078C126.1 157.094 125.884 157.335 125.9 157.616C125.916 157.897 126.157 158.113 126.438 158.097L153.975 156.54L157.143 165.826C157.497 166.863 159.013 166.689 159.123 165.598L161.4 142.909L165.161 156.56C165.413 157.477 166.671 157.58 167.07 156.717L169.176 152.159C169.177 152.157 169.177 152.156 169.178 152.154C169.789 157.101 171.6 171.538 173.529 184.733C174.494 191.34 175.49 197.642 176.381 202.288C176.826 204.609 177.247 206.529 177.628 207.87C177.817 208.537 178.002 209.083 178.183 209.469C178.272 209.659 178.374 209.838 178.492 209.976C178.595 210.097 178.808 210.298 179.122 210.281C179.439 210.263 179.595 210.015 179.644 209.927C179.71 209.809 179.753 209.671 179.786 209.54C179.853 209.272 179.904 208.902 179.944 208.456C180.026 207.555 180.074 206.252 180.093 204.614C180.132 201.333 180.057 196.661 179.908 191.066C179.61 179.874 179.012 164.966 178.414 150.062L178.414 150.059C177.816 135.152 177.219 120.25 176.921 109.066C176.772 103.474 176.698 98.8173 176.736 95.5574C176.756 93.9253 176.803 92.6552 176.881 91.7962C176.885 91.7565 176.888 91.7178 176.892 91.6802C177.005 92.0234 177.127 92.4536 177.256 92.9678C177.647 94.5294 178.086 96.7861 178.553 99.5312C179.485 105.017 180.522 112.408 181.508 119.986C183.479 135.139 185.241 151.014 185.551 153.829C185.617 154.424 186.135 154.722 186.618 154.695L193.749 154.292C195.607 154.187 197.467 154.609 199.286 155.234C200.624 155.693 202.176 156.104 203.71 156.278C205.236 156.452 206.787 156.395 208.095 155.874C208.748 155.614 209.353 155.37 209.919 155.141C211.209 154.619 212.295 154.18 213.274 153.833C214.674 153.337 215.812 153.045 216.946 152.981L227.239 152.399L233.751 162.649C234.261 163.451 235.493 163.181 235.622 162.24L237.968 145.112L240.824 150.111C241.294 150.934 242.534 150.726 242.711 149.795L246.701 128.855C246.702 128.852 246.702 128.85 246.703 128.848C247.666 136.247 250.177 155.379 252.607 172.659C253.822 181.306 255.018 189.492 255.99 195.514C256.475 198.524 256.906 200.998 257.256 202.721C257.43 203.581 257.587 204.264 257.723 204.737C257.789 204.97 257.857 205.171 257.926 205.322C257.959 205.394 258.004 205.483 258.067 205.56C258.108 205.611 258.273 205.807 258.557 205.791C258.801 205.777 258.934 205.613 258.978 205.552C259.029 205.479 259.058 205.404 259.075 205.356C259.11 205.254 259.134 205.132 259.153 205.009C259.192 204.756 259.223 204.4 259.249 203.957C259.302 203.066 259.336 201.77 259.355 200.133C259.392 196.857 259.369 192.185 259.306 186.586C259.199 176.993 258.977 164.668 258.748 151.952C258.709 149.821 258.671 147.679 258.632 145.536C258.366 130.611 258.114 115.689 258.049 104.491C258.017 98.8917 258.031 94.2288 258.114 90.9644C258.152 89.4484 258.205 88.2423 258.273 87.3867C258.364 87.6972 258.462 88.0602 258.565 88.4734C258.973 90.1018 259.456 92.4473 259.987 95.2882C261.049 100.967 262.296 108.588 263.5 116.326C265.908 131.8 268.143 147.721 268.385 149.448C268.442 149.855 268.801 150.05 269.11 150.032C272.377 149.848 275.564 150.901 278.804 151.973C279.329 152.146 279.855 152.32 280.384 152.49C282.658 153.219 285.346 153.561 288.04 152.822C290.721 152.086 292.938 151.218 294.945 150.432C295.453 150.233 295.947 150.04 296.432 149.855C298.843 148.937 301.036 148.228 303.603 148.082L323.342 146.967C323.623 146.951 323.838 146.71 323.822 146.428C323.806 146.147 323.566 145.932 323.284 145.948L303.546 147.063C300.818 147.218 298.505 147.973 296.069 148.901C295.571 149.091 295.067 149.288 294.553 149.489C292.551 150.273 290.395 151.117 287.77 151.838C285.323 152.509 282.845 152.207 280.695 151.518C280.185 151.354 279.67 151.184 279.151 151.012C276.017 149.973 272.725 148.881 269.352 149C268.957 146.185 266.812 130.974 264.508 116.169C263.303 108.429 262.055 100.795 260.99 95.1003C260.458 92.2548 259.97 89.8846 259.554 88.2255C259.348 87.3987 259.155 86.7322 258.979 86.2675C258.893 86.0387 258.801 85.8334 258.702 85.6778C258.653 85.6009 258.587 85.512 258.499 85.4382C258.414 85.3658 258.259 85.268 258.049 85.2798C257.859 85.2906 257.73 85.3921 257.662 85.4642C257.596 85.5351 257.555 85.6118 257.529 85.6662C257.478 85.7768 257.443 85.9077 257.416 86.034C257.359 86.2946 257.313 86.658 257.274 87.1032C257.194 87.9997 257.135 89.3 257.094 90.9388C257.011 94.2198 256.997 98.8958 257.029 104.497C257.094 115.702 257.346 130.631 257.613 145.555C257.651 147.697 257.69 149.84 257.728 151.972C257.957 164.688 258.18 177.009 258.287 186.597C258.349 192.195 258.372 196.858 258.335 200.122C258.324 201.1 258.307 201.95 258.284 202.66C258.275 202.613 258.265 202.566 258.255 202.518C257.91 200.816 257.482 198.358 256.997 195.351C256.027 189.34 254.832 181.162 253.616 172.517C251.186 155.227 248.673 136.081 247.712 128.696C247.636 128.116 247.16 127.821 246.716 127.821C246.278 127.821 245.806 128.104 245.699 128.664L241.71 149.604L238.853 144.606C238.37 143.76 237.089 144.008 236.957 144.974L234.612 162.101L228.1 151.851C227.902 151.539 227.551 151.359 227.182 151.38L216.889 151.962C215.616 152.034 214.374 152.36 212.933 152.871C211.933 153.226 210.815 153.678 209.513 154.204C208.951 154.432 208.354 154.673 207.718 154.926C206.631 155.359 205.27 155.428 203.825 155.264C202.387 155.101 200.909 154.712 199.617 154.268C197.739 153.624 195.736 153.157 193.692 153.273L186.561 153.676C186.561 153.676 186.561 153.676 186.56 153.676C186.238 150.748 184.482 134.945 182.519 119.854C181.533 112.274 180.494 104.866 179.558 99.3599C179.09 96.6087 178.646 94.3205 178.245 92.7195C178.045 91.9223 177.851 91.2752 177.663 90.8216C177.571 90.5981 177.469 90.3931 177.351 90.2365C177.257 90.1111 177.037 89.859 176.688 89.8788C176.371 89.8967 176.215 90.1444 176.165 90.2327C176.1 90.3503 176.056 90.4887 176.024 90.6191C175.957 90.8873 175.906 91.257 175.865 91.7036C175.783 92.6044 175.736 93.9074 175.717 95.5455C175.678 98.8261 175.752 103.499 175.901 109.094C176.199 120.285 176.797 135.193 177.395 150.096L177.395 150.1C177.993 165.007 178.591 179.909 178.889 191.093C179.038 196.686 179.112 201.342 179.073 204.602C179.054 206.234 179.007 207.504 178.929 208.363C178.923 208.428 178.917 208.491 178.91 208.55C178.816 208.288 178.715 207.968 178.609 207.591C178.241 206.294 177.826 204.409 177.383 202.095C176.496 197.473 175.503 191.188 174.538 184.585ZM179.281 209.327C179.281 209.327 179.278 209.324 179.274 209.321C179.278 209.325 179.281 209.327 179.281 209.327ZM258.11 205.026C258.11 205.025 258.11 205.025 258.11 205.025C258.109 205.028 258.109 205.029 258.11 205.026ZM176.512 90.8216C176.512 90.8221 176.515 90.8262 176.522 90.8322C176.515 90.8241 176.512 90.8211 176.512 90.8216Z" fill="url(#paint0_linear_9872_40333)"></path></g><defs><filter id="filter0_f_9872_40333" x="300.799" y="123.527" width="45.7832" height="45.8145" filterUnits="userSpaceOnUse" color-interpolation-filters="sRGB"><feFlood flood-opacity="0" result="BackgroundImageFix"></feFlood><feBlend mode="normal" in="SourceGraphic" in2="BackgroundImageFix" result="shape"></feBlend><feGaussianBlur stdDeviation="7.5" result="effect1_foregroundBlur_9872_40333"></feGaussianBlur></filter><linearGradient id="paint0_linear_9872_40333" x1="127.219" y1="181.033" x2="325.143" y2="169.888" gradientUnits="userSpaceOnUse"><stop stop-color="#0D99FF"></stop><stop offset="1" stop-color="#99FAF4"></stop></linearGradient></defs></svg> 