<?xml version="1.0" encoding="UTF-8"?>
<svg xmlns="http://www.w3.org/2000/svg" version="1.1" xmlns:xlink="http://www.w3.org/1999/xlink" viewBox="0 0 4142.85 3300">
  <!-- Generator: Adobe Illustrator 29.2.1, SVG Export Plug-In . SVG Version: 2.1.0 Build 116)  -->
  <defs>
    <style>
      .st0 {
        fill: #092429;
      }

      .st1 {
        fill: url(#linear-gradient2);
      }

      .st2 {
        fill: #ff9581;
      }

      .st3 {
        fill: url(#linear-gradient10);
      }

      .st4, .st5 {
        fill: #c3c;
      }

      .st6 {
        fill: #c7f9f8;
      }

      .st7 {
        fill: url(#linear-gradient21);
      }

      .st8 {
        fill: #fff;
      }

      .st9 {
        fill: url(#linear-gradient1);
      }

      .st10 {
        fill: url(#linear-gradient9);
      }

      .st11 {
        fill: url(#linear-gradient18);
      }

      .st12 {
        fill: #db7d71;
      }

      .st13 {
        fill: url(#linear-gradient8);
      }

      .st14 {
        fill: #056fc6;
        opacity: .32;
      }

      .st14, .st15, .st5 {
        isolation: isolate;
      }

      .st14, .st5 {
        mix-blend-mode: multiply;
      }

      .st16 {
        fill: #69c;
      }

      .st17 {
        fill: url(#linear-gradient11);
      }

      .st18 {
        fill: url(#radial-gradient);
      }

      .st19 {
        fill: url(#linear-gradient16);
      }

      .st20 {
        fill: #301803;
      }

      .st21 {
        fill: #0c9;
      }

      .st22 {
        fill: #8cede8;
      }

      .st23 {
        fill: url(#linear-gradient19);
      }

      .st24 {
        fill: url(#linear-gradient12);
      }

      .st25 {
        fill: #d3d3d3;
      }

      .st26 {
        fill: #3f7399;
      }

      .st27 {
        fill: #3a5054;
      }

      .st28 {
        fill: url(#linear-gradient7);
      }

      .st29 {
        fill: #150400;
      }

      .st30 {
        fill: url(#linear-gradient20);
      }

      .st31 {
        fill: url(#linear-gradient4);
      }

      .st32 {
        fill: #333;
      }

      .st33 {
        fill: #091213;
      }

      .st34 {
        fill: url(#linear-gradient14);
      }

      .st35 {
        fill: url(#linear-gradient5);
      }

      .st36 {
        fill: url(#linear-gradient3);
      }

      .st37 {
        fill: #325a7c;
      }

      .st38 {
        fill: #07996b;
      }

      .st39 {
        fill: url(#linear-gradient15);
      }

      .st40 {
        fill: url(#linear-gradient17);
      }

      .st41 {
        fill: #ccc;
      }

      .st42 {
        fill: url(#linear-gradient6);
      }

      .st43 {
        fill: url(#linear-gradient13);
      }

      .st44 {
        fill: #1c302f;
      }

      .st45 {
        fill: url(#linear-gradient);
      }
    </style>
    <radialGradient id="radial-gradient" cx="2072.14" cy="2093.46" fx="2072.14" fy="2093.46" r="2362.44" gradientTransform="translate(0 3194.6) scale(1 -.74)" gradientUnits="userSpaceOnUse">
      <stop offset="0" stop-color="#849294"/>
      <stop offset=".1" stop-color="#748183"/>
      <stop offset=".53" stop-color="#374143"/>
      <stop offset=".84" stop-color="#111a1b"/>
      <stop offset="1" stop-color="#030b0c"/>
    </radialGradient>
    <linearGradient id="linear-gradient" x1="574.72" y1="2550.4" x2="3568.12" y2="2550.4" gradientTransform="translate(0 3299) scale(1 -1)" gradientUnits="userSpaceOnUse">
      <stop offset="0" stop-color="#092429"/>
      <stop offset=".51" stop-color="#849294" stop-opacity=".7"/>
      <stop offset=".53" stop-color="#7c8a8d" stop-opacity=".72"/>
      <stop offset=".66" stop-color="#4a5e61" stop-opacity=".84"/>
      <stop offset=".79" stop-color="#263e42" stop-opacity=".93"/>
      <stop offset=".9" stop-color="#102a2f" stop-opacity=".98"/>
      <stop offset="1" stop-color="#092429"/>
    </linearGradient>
    <linearGradient id="linear-gradient1" x1="574.72" y1="2370.12" x2="3568.12" y2="2370.12" gradientTransform="translate(0 3299) scale(1 -1)" gradientUnits="userSpaceOnUse">
      <stop offset="0" stop-color="#092429"/>
      <stop offset=".51" stop-color="#849294" stop-opacity=".7"/>
      <stop offset=".53" stop-color="#7c8a8d" stop-opacity=".72"/>
      <stop offset=".66" stop-color="#4a5e61" stop-opacity=".84"/>
      <stop offset=".79" stop-color="#263e42" stop-opacity=".93"/>
      <stop offset=".9" stop-color="#102a2f" stop-opacity=".98"/>
      <stop offset="1" stop-color="#092429"/>
    </linearGradient>
    <linearGradient id="linear-gradient2" x1="574.72" y1="2189.84" x2="3568.12" y2="2189.84" gradientTransform="translate(0 3299) scale(1 -1)" gradientUnits="userSpaceOnUse">
      <stop offset="0" stop-color="#092429"/>
      <stop offset=".51" stop-color="#849294" stop-opacity=".7"/>
      <stop offset=".53" stop-color="#7c8a8d" stop-opacity=".72"/>
      <stop offset=".66" stop-color="#4a5e61" stop-opacity=".84"/>
      <stop offset=".79" stop-color="#263e42" stop-opacity=".93"/>
      <stop offset=".9" stop-color="#102a2f" stop-opacity=".98"/>
      <stop offset="1" stop-color="#092429"/>
    </linearGradient>
    <linearGradient id="linear-gradient3" x1="574.72" y1="2009.56" x2="3568.12" y2="2009.56" gradientTransform="translate(0 3299) scale(1 -1)" gradientUnits="userSpaceOnUse">
      <stop offset="0" stop-color="#092429"/>
      <stop offset=".51" stop-color="#849294" stop-opacity=".7"/>
      <stop offset=".53" stop-color="#7c8a8d" stop-opacity=".72"/>
      <stop offset=".66" stop-color="#4a5e61" stop-opacity=".84"/>
      <stop offset=".79" stop-color="#263e42" stop-opacity=".93"/>
      <stop offset=".9" stop-color="#102a2f" stop-opacity=".98"/>
      <stop offset="1" stop-color="#092429"/>
    </linearGradient>
    <linearGradient id="linear-gradient4" x1="574.72" y1="1829.28" x2="3568.12" y2="1829.28" gradientTransform="translate(0 3299) scale(1 -1)" gradientUnits="userSpaceOnUse">
      <stop offset="0" stop-color="#092429"/>
      <stop offset=".51" stop-color="#849294" stop-opacity=".7"/>
      <stop offset=".53" stop-color="#7c8a8d" stop-opacity=".72"/>
      <stop offset=".66" stop-color="#4a5e61" stop-opacity=".84"/>
      <stop offset=".79" stop-color="#263e42" stop-opacity=".93"/>
      <stop offset=".9" stop-color="#102a2f" stop-opacity=".98"/>
      <stop offset="1" stop-color="#092429"/>
    </linearGradient>
    <linearGradient id="linear-gradient5" x1="574.72" y1="1649" x2="3568.12" y2="1649" gradientTransform="translate(0 3299) scale(1 -1)" gradientUnits="userSpaceOnUse">
      <stop offset="0" stop-color="#092429"/>
      <stop offset=".51" stop-color="#849294" stop-opacity=".7"/>
      <stop offset=".53" stop-color="#7c8a8d" stop-opacity=".72"/>
      <stop offset=".66" stop-color="#4a5e61" stop-opacity=".84"/>
      <stop offset=".79" stop-color="#263e42" stop-opacity=".93"/>
      <stop offset=".9" stop-color="#102a2f" stop-opacity=".98"/>
      <stop offset="1" stop-color="#092429"/>
    </linearGradient>
    <linearGradient id="linear-gradient6" x1="574.72" y1="1468.72" x2="3568.12" y2="1468.72" gradientTransform="translate(0 3299) scale(1 -1)" gradientUnits="userSpaceOnUse">
      <stop offset="0" stop-color="#092429"/>
      <stop offset=".51" stop-color="#849294" stop-opacity=".7"/>
      <stop offset=".53" stop-color="#7c8a8d" stop-opacity=".72"/>
      <stop offset=".66" stop-color="#4a5e61" stop-opacity=".84"/>
      <stop offset=".79" stop-color="#263e42" stop-opacity=".93"/>
      <stop offset=".9" stop-color="#102a2f" stop-opacity=".98"/>
      <stop offset="1" stop-color="#092429"/>
    </linearGradient>
    <linearGradient id="linear-gradient7" x1="574.72" y1="1288.44" x2="3568.12" y2="1288.44" gradientTransform="translate(0 3299) scale(1 -1)" gradientUnits="userSpaceOnUse">
      <stop offset="0" stop-color="#092429"/>
      <stop offset=".51" stop-color="#849294" stop-opacity=".7"/>
      <stop offset=".53" stop-color="#7c8a8d" stop-opacity=".72"/>
      <stop offset=".66" stop-color="#4a5e61" stop-opacity=".84"/>
      <stop offset=".79" stop-color="#263e42" stop-opacity=".93"/>
      <stop offset=".9" stop-color="#102a2f" stop-opacity=".98"/>
      <stop offset="1" stop-color="#092429"/>
    </linearGradient>
    <linearGradient id="linear-gradient8" x1="574.72" y1="1108.16" x2="3568.12" y2="1108.16" gradientTransform="translate(0 3299) scale(1 -1)" gradientUnits="userSpaceOnUse">
      <stop offset="0" stop-color="#092429"/>
      <stop offset=".51" stop-color="#849294" stop-opacity=".7"/>
      <stop offset=".53" stop-color="#7c8a8d" stop-opacity=".72"/>
      <stop offset=".66" stop-color="#4a5e61" stop-opacity=".84"/>
      <stop offset=".79" stop-color="#263e42" stop-opacity=".93"/>
      <stop offset=".9" stop-color="#102a2f" stop-opacity=".98"/>
      <stop offset="1" stop-color="#092429"/>
    </linearGradient>
    <linearGradient id="linear-gradient9" x1="574.72" y1="927.88" x2="3568.12" y2="927.88" gradientTransform="translate(0 3299) scale(1 -1)" gradientUnits="userSpaceOnUse">
      <stop offset="0" stop-color="#092429"/>
      <stop offset=".51" stop-color="#849294" stop-opacity=".7"/>
      <stop offset=".53" stop-color="#7c8a8d" stop-opacity=".72"/>
      <stop offset=".66" stop-color="#4a5e61" stop-opacity=".84"/>
      <stop offset=".79" stop-color="#263e42" stop-opacity=".93"/>
      <stop offset=".9" stop-color="#102a2f" stop-opacity=".98"/>
      <stop offset="1" stop-color="#092429"/>
    </linearGradient>
    <linearGradient id="linear-gradient10" x1="574.72" y1="747.61" x2="3568.12" y2="747.61" gradientTransform="translate(0 3299) scale(1 -1)" gradientUnits="userSpaceOnUse">
      <stop offset="0" stop-color="#092429"/>
      <stop offset=".51" stop-color="#849294" stop-opacity=".7"/>
      <stop offset=".53" stop-color="#7c8a8d" stop-opacity=".72"/>
      <stop offset=".66" stop-color="#4a5e61" stop-opacity=".84"/>
      <stop offset=".79" stop-color="#263e42" stop-opacity=".93"/>
      <stop offset=".9" stop-color="#102a2f" stop-opacity=".98"/>
      <stop offset="1" stop-color="#092429"/>
    </linearGradient>
    <linearGradient id="linear-gradient11" x1="371.77" y1="8106.22" x2="2525.33" y2="8106.22" gradientTransform="translate(-5133.4 201.45) rotate(90) scale(1 -1)" gradientUnits="userSpaceOnUse">
      <stop offset="0" stop-color="#092429"/>
      <stop offset=".51" stop-color="#849294" stop-opacity=".7"/>
      <stop offset=".53" stop-color="#7c8a8d" stop-opacity=".72"/>
      <stop offset=".66" stop-color="#4a5e61" stop-opacity=".84"/>
      <stop offset=".79" stop-color="#263e42" stop-opacity=".93"/>
      <stop offset=".9" stop-color="#102a2f" stop-opacity=".98"/>
      <stop offset="1" stop-color="#092429"/>
    </linearGradient>
    <linearGradient id="linear-gradient12" x1="371.77" y1="7925.94" x2="2525.33" y2="7925.94" gradientTransform="translate(-5133.4 201.45) rotate(90) scale(1 -1)" gradientUnits="userSpaceOnUse">
      <stop offset="0" stop-color="#092429"/>
      <stop offset=".51" stop-color="#849294" stop-opacity=".7"/>
      <stop offset=".53" stop-color="#7c8a8d" stop-opacity=".72"/>
      <stop offset=".66" stop-color="#4a5e61" stop-opacity=".84"/>
      <stop offset=".79" stop-color="#263e42" stop-opacity=".93"/>
      <stop offset=".9" stop-color="#102a2f" stop-opacity=".98"/>
      <stop offset="1" stop-color="#092429"/>
    </linearGradient>
    <linearGradient id="linear-gradient13" x1="371.77" y1="7745.66" x2="2525.33" y2="7745.66" gradientTransform="translate(-5133.4 201.45) rotate(90) scale(1 -1)" gradientUnits="userSpaceOnUse">
      <stop offset="0" stop-color="#092429"/>
      <stop offset=".51" stop-color="#849294" stop-opacity=".7"/>
      <stop offset=".53" stop-color="#7c8a8d" stop-opacity=".72"/>
      <stop offset=".66" stop-color="#4a5e61" stop-opacity=".84"/>
      <stop offset=".79" stop-color="#263e42" stop-opacity=".93"/>
      <stop offset=".9" stop-color="#102a2f" stop-opacity=".98"/>
      <stop offset="1" stop-color="#092429"/>
    </linearGradient>
    <linearGradient id="linear-gradient14" x1="371.77" y1="7565.38" x2="2525.33" y2="7565.38" gradientTransform="translate(-5133.4 201.45) rotate(90) scale(1 -1)" gradientUnits="userSpaceOnUse">
      <stop offset="0" stop-color="#092429"/>
      <stop offset=".51" stop-color="#849294" stop-opacity=".7"/>
      <stop offset=".53" stop-color="#7c8a8d" stop-opacity=".72"/>
      <stop offset=".66" stop-color="#4a5e61" stop-opacity=".84"/>
      <stop offset=".79" stop-color="#263e42" stop-opacity=".93"/>
      <stop offset=".9" stop-color="#102a2f" stop-opacity=".98"/>
      <stop offset="1" stop-color="#092429"/>
    </linearGradient>
    <linearGradient id="linear-gradient15" x1="371.77" y1="7385.11" x2="2525.33" y2="7385.11" gradientTransform="translate(-5133.41 201.45) rotate(90) scale(1 -1)" gradientUnits="userSpaceOnUse">
      <stop offset="0" stop-color="#092429"/>
      <stop offset=".51" stop-color="#849294" stop-opacity=".7"/>
      <stop offset=".53" stop-color="#7c8a8d" stop-opacity=".72"/>
      <stop offset=".66" stop-color="#4a5e61" stop-opacity=".84"/>
      <stop offset=".79" stop-color="#263e42" stop-opacity=".93"/>
      <stop offset=".9" stop-color="#102a2f" stop-opacity=".98"/>
      <stop offset="1" stop-color="#092429"/>
    </linearGradient>
    <linearGradient id="linear-gradient16" x1="371.77" y1="7204.83" x2="2525.33" y2="7204.83" gradientTransform="translate(-5133.41 201.45) rotate(90) scale(1 -1)" gradientUnits="userSpaceOnUse">
      <stop offset="0" stop-color="#092429"/>
      <stop offset=".51" stop-color="#849294" stop-opacity=".7"/>
      <stop offset=".53" stop-color="#7c8a8d" stop-opacity=".72"/>
      <stop offset=".66" stop-color="#4a5e61" stop-opacity=".84"/>
      <stop offset=".79" stop-color="#263e42" stop-opacity=".93"/>
      <stop offset=".9" stop-color="#102a2f" stop-opacity=".98"/>
      <stop offset="1" stop-color="#092429"/>
    </linearGradient>
    <linearGradient id="linear-gradient17" x1="371.77" y1="7024.55" x2="2525.33" y2="7024.55" gradientTransform="translate(-5133.41 201.45) rotate(90) scale(1 -1)" gradientUnits="userSpaceOnUse">
      <stop offset="0" stop-color="#092429"/>
      <stop offset=".51" stop-color="#849294" stop-opacity=".7"/>
      <stop offset=".53" stop-color="#7c8a8d" stop-opacity=".72"/>
      <stop offset=".66" stop-color="#4a5e61" stop-opacity=".84"/>
      <stop offset=".79" stop-color="#263e42" stop-opacity=".93"/>
      <stop offset=".9" stop-color="#102a2f" stop-opacity=".98"/>
      <stop offset="1" stop-color="#092429"/>
    </linearGradient>
    <linearGradient id="linear-gradient18" x1="371.78" y1="6844.27" x2="2525.34" y2="6844.27" gradientTransform="translate(-5133.4 201.44) rotate(90) scale(1 -1)" gradientUnits="userSpaceOnUse">
      <stop offset="0" stop-color="#092429"/>
      <stop offset=".51" stop-color="#849294" stop-opacity=".7"/>
      <stop offset=".53" stop-color="#7c8a8d" stop-opacity=".72"/>
      <stop offset=".66" stop-color="#4a5e61" stop-opacity=".84"/>
      <stop offset=".79" stop-color="#263e42" stop-opacity=".93"/>
      <stop offset=".9" stop-color="#102a2f" stop-opacity=".98"/>
      <stop offset="1" stop-color="#092429"/>
    </linearGradient>
    <linearGradient id="linear-gradient19" x1="371.78" y1="6663.99" x2="2525.34" y2="6663.99" gradientTransform="translate(-5133.4 201.44) rotate(90) scale(1 -1)" gradientUnits="userSpaceOnUse">
      <stop offset="0" stop-color="#092429"/>
      <stop offset=".51" stop-color="#849294" stop-opacity=".7"/>
      <stop offset=".53" stop-color="#7c8a8d" stop-opacity=".72"/>
      <stop offset=".66" stop-color="#4a5e61" stop-opacity=".84"/>
      <stop offset=".79" stop-color="#263e42" stop-opacity=".93"/>
      <stop offset=".9" stop-color="#102a2f" stop-opacity=".98"/>
      <stop offset="1" stop-color="#092429"/>
    </linearGradient>
    <linearGradient id="linear-gradient20" x1="371.78" y1="6483.71" x2="2525.34" y2="6483.71" gradientTransform="translate(-5133.4 201.44) rotate(90) scale(1 -1)" gradientUnits="userSpaceOnUse">
      <stop offset="0" stop-color="#092429"/>
      <stop offset=".51" stop-color="#849294" stop-opacity=".7"/>
      <stop offset=".53" stop-color="#7c8a8d" stop-opacity=".72"/>
      <stop offset=".66" stop-color="#4a5e61" stop-opacity=".84"/>
      <stop offset=".79" stop-color="#263e42" stop-opacity=".93"/>
      <stop offset=".9" stop-color="#102a2f" stop-opacity=".98"/>
      <stop offset="1" stop-color="#092429"/>
    </linearGradient>
    <linearGradient id="linear-gradient21" x1="371.78" y1="6303.43" x2="2525.34" y2="6303.43" gradientTransform="translate(-5133.4 201.44) rotate(90) scale(1 -1)" gradientUnits="userSpaceOnUse">
      <stop offset="0" stop-color="#092429"/>
      <stop offset=".51" stop-color="#849294" stop-opacity=".7"/>
      <stop offset=".53" stop-color="#7c8a8d" stop-opacity=".72"/>
      <stop offset=".66" stop-color="#4a5e61" stop-opacity=".84"/>
      <stop offset=".79" stop-color="#263e42" stop-opacity=".93"/>
      <stop offset=".9" stop-color="#102a2f" stop-opacity=".98"/>
      <stop offset="1" stop-color="#092429"/>
    </linearGradient>
  </defs>
  <g class="st15">
    <g id="Layer_1">
      <rect class="st18" x="1.43" width="4141.42" height="3300"/>
      <rect class="st0" x="574.72" y="573.22" width="2993.4" height="2153.56" rx="60" ry="60"/>
      <rect class="st45" x="574.72" y="747.78" width="2993.4" height="1.64"/>
      <rect class="st9" x="574.72" y="928.06" width="2993.4" height="1.64"/>
      <rect class="st1" x="574.72" y="1108.34" width="2993.4" height="1.64"/>
      <rect class="st36" x="574.72" y="1288.62" width="2993.4" height="1.64"/>
      <rect class="st31" x="574.72" y="1468.9" width="2993.4" height="1.64"/>
      <rect class="st35" x="574.72" y="1649.18" width="2993.4" height="1.64"/>
      <rect class="st42" x="574.72" y="1829.46" width="2993.4" height="1.64"/>
      <rect class="st28" x="574.72" y="2009.74" width="2993.4" height="1.64"/>
      <rect class="st13" x="574.72" y="2190.02" width="2993.4" height="1.64"/>
      <rect class="st10" x="574.72" y="2370.3" width="2993.4" height="1.64"/>
      <rect class="st3" x="574.72" y="2550.57" width="2993.4" height="1.64"/>
      <rect class="st17" x="2972" y="573.22" width="1.64" height="2153.56"/>
      <rect class="st24" x="2791.72" y="573.22" width="1.64" height="2153.56"/>
      <rect class="st43" x="2611.44" y="573.22" width="1.64" height="2153.56"/>
      <rect class="st34" x="2431.16" y="573.22" width="1.64" height="2153.56"/>
      <rect class="st39" x="2250.88" y="573.22" width="1.64" height="2153.56"/>
      <rect class="st19" x="2070.6" y="573.22" width="1.64" height="2153.56"/>
      <rect class="st40" x="1890.32" y="573.22" width="1.64" height="2153.56"/>
      <rect class="st11" x="1710.05" y="573.22" width="1.64" height="2153.56"/>
      <rect class="st23" x="1529.77" y="573.22" width="1.64" height="2153.56"/>
      <rect class="st30" x="1349.49" y="573.22" width="1.64" height="2153.56"/>
      <rect class="st7" x="1169.21" y="573.22" width="1.64" height="2153.56"/>
      <rect id="Background1" class="st27" x="1361.5" y="1098.65" width="1854.99" height="1239.22" rx="76.03" ry="76.03"/>
      <path class="st6" d="M3177.58,1777.99c-3.32-47.39-41.19-86.16-88.49-90.52-17.18-1.59-33.54,1.29-48.08,7.57,9.89-27.98,15.33-58.07,15.33-89.44,0-148.22-120.16-268.38-268.38-268.38-19.69,0-38.87,2.18-57.36,6.21-10.94-213.14-187.78-382.44-403.9-381.28-218.69,1.17-397.89,179.54-400.02,398.22-1.17,119.7,49.95,227.48,131.91,301.89l-131.93-8.6v229.42h1251.18c-15.32-13.98-19.1-36.32-9.96-54.94,7.34-14.96,10.98-32.07,9.72-50.14h-.02Z"/>
      <path class="st22" d="M2927.59,1553.86v-7.33c0-50.49-41.08-91.57-91.57-91.57h-90.43c-50.49,0-91.57,41.08-91.57,91.57v7.33c-3.62,2.36-6.03,6.43-6.03,11.08v180.51c0,11.68,9.47,21.16,21.16,21.16h243.31c11.69,0,21.16-9.47,21.16-21.16v-180.51c0-4.65-2.41-8.72-6.03-11.08h0ZM2745.6,1470.67h90.43c41.83,0,75.86,34.03,75.86,75.86v5.18h-242.16v-5.18c0-41.83,34.03-75.86,75.87-75.86h0Z"/>
      <path class="st44" d="M2803.9,1664.61v-51.47c0-7.23-5.86-13.09-13.09-13.09s-13.09,5.86-13.09,13.09v51.47c-9.11,4.74-15.34,14.24-15.34,25.22,0,15.7,12.73,28.43,28.43,28.43s28.43-12.73,28.43-28.43c0-10.98-6.23-20.49-15.35-25.22h.01Z"/>
      <rect class="st33" x="1592.92" y="2018.66" width="126.28" height="259.16"/>
      <rect class="st33" x="1525.95" y="2241.04" width="260.21" height="54.26" rx="8.33" ry="8.33"/>
      <path class="st22" d="M1430.36,1376.44v-.28c0-13.45-5.79-25.51-15.07-33.88l-.12-.04-96.2-96.24,9.12-6.52c5.19,5.08,10.38,10.17,15.57,15.25,11.34,11.11,22.68,22.22,34.03,33.32,11.17,10.94,22.35,21.89,33.52,32.83,3.55,3.47,7.07,6.97,10.64,10.42,7.94,7.69,13.83,17.71,16.58,28.52.71,2.79,1.21,5.63,1.5,8.49.17,1.72,1.27,7.27.22,8.68-.99,1.34-7.9-.35-9.78-.56h-.01Z"/>
      <path class="st6" d="M1384.82,1421.71c25.13,0,45.53-20.39,45.53-45.56,0-13.43-5.8-25.48-15.06-33.86l-.14-.04-164.71-164.75-54.11,54.11,156.51,153.51c6.34,6.22,8.03,16.19,3.18,23.63-.36.55-.76,1.1-1.2,1.64,7.99,7.07,18.49,11.31,30.01,11.31h-.01Z"/>
      <rect class="st33" x="1178" y="1369.02" width="956.11" height="669.48" rx="65.14" ry="65.14"/>
      <path class="st8" d="M1243.14,1388.86h825.82c25.01,0,45.31,20.3,45.31,45.31v539.19c0,25.01-20.3,45.31-45.31,45.31h-825.82c-25.01,0-45.31-20.3-45.31-45.31v-539.19c0-25.01,20.3-45.31,45.31-45.31h0Z"/>
      <path class="st38" d="M1660.37,1898.17c-49.44,0-94.06-27.37-116.46-71.43l-146.54-288.21c-5.3-10.43-4.82-22.61,1.3-32.57,6.11-9.96,16.74-15.91,28.43-15.91h466.53c13.96,0,26.19,8.43,31.16,21.47,3.45,8.77,2.97,18.4-1.38,26.99l-146.55,288.22c-22.41,44.06-67.05,71.43-116.49,71.43h0Z"/>
      <path class="st21" d="M1912.79,1533.14l-50.82,99.93-95.73,188.28c-44.03,86.56-167.73,86.56-211.72,0l-146.54-288.21c-7.26-14.28,3.09-31.18,19.12-31.18h466.53c9.52,0,17.06,5.99,20.03,13.81,2.1,5.36,2.06,11.58-.87,17.38h0Z"/>
      <path class="st8" d="M1912.79,1533.14l-50.82,99.93c-3.77,4.24-7.58,8.45-11.43,12.65-25.9,28.21-52.37,55.82-79.9,82.4-27.49,26.62-55.66,52.52-84.86,77.44l-3.25,2.78c-10.04,8.57-25.19,7.38-33.76-2.7l-.08-.08-14.16-16.78-13.85-17.02c-9.16-11.43-18.21-22.97-27.06-34.75-8.85-11.74-17.46-23.76-25.87-35.94-8.37-12.22-16.54-24.64-24.12-37.65,13.05,7.54,25.47,15.75,37.69,24.12,12.18,8.41,24.16,17.02,35.9,25.87,11.78,8.81,23.33,17.85,34.79,27.02l12.26,10c20.07-22.85,40.74-45.03,61.85-66.81,26.54-27.53,54.15-54.03,82.36-79.9,28.29-25.83,57.44-50.74,87.75-74.54,5.75-4.52,11.54-9.01,17.42-13.41,2.1,5.36,2.06,11.58-.87,17.38h.01Z"/>
      <path class="st25" d="M1282.22,1532.75c-16.68,0-32.67-7.11-43.89-19.51-9.77-10.92-15.14-24.94-15.14-39.52,0-30.77,23.08-56.05,53.68-58.8,1.65-.17,3.5-.27,5.35-.27,3.06,0,6.08.23,8.98.7,9.24,1.39,18.12,5.06,25.72,10.62l.08.03,1.16.85c3.11,2.42,5.96,5.11,8.47,7.98,1.15,1.34,2.23,2.64,3.26,4.03,7.47,10.2,11.4,22.24,11.4,34.88,0,32.55-26.5,59.03-59.07,59.03v-.02Z"/>
      <path class="st32" d="M1333.36,1473.72c0,28.21-22.89,51.1-51.14,51.1-15.07,0-28.6-6.51-38-16.9-8.13-9.08-13.09-21.07-13.09-34.2,0-26.66,20.39-48.56,46.45-50.9,1.51-.16,3.05-.24,4.64-.24,2.62,0,5.24.2,7.74.6,8.65,1.31,16.58,4.8,23.21,9.88l.12.04c2.7,2.1,5.16,4.4,7.38,6.94.99,1.15,1.94,2.3,2.86,3.53,6.19,8.45,9.84,18.84,9.84,30.15h0Z"/>
      <path class="st22" d="M1320.67,1440.04c-.59.48-1.23.95-1.82,1.35-8.37,5.44-19.56,3.53-26.54-3.57l-14.72-15-65.02-66.29,6.31-5.16,71.09,71.8,8.05,8.11c3.18,3.21,7.92,4.3,12.19,2.8l2.97-1.04.12.04c2.7,2.1,5.16,4.4,7.38,6.94v.02Z"/>
      <path class="st22" d="M1108.9,1394.31l-136.15-136.15c-36.63-36.63-36.63-96.02,0-132.65l66.11-83.77c36.63-36.63,112-34.94,148.63,1.69l136.15,136.15c18.51,18.51,18.51,48.51,0,67.02l-147.72,147.72c-18.51,18.51-48.51,18.51-67.02,0h0Z"/>
      <path class="st6" d="M1333.36,1473.72c0,28.21-22.89,51.1-51.14,51.1-15.07,0-28.6-6.51-38-16.9l-.04-.16-184.91-184.87,60.74-60.74,172.29,175.66c6.98,7.12,18.17,9.01,26.52,3.57.62-.41,1.24-.85,1.84-1.34,7.93,8.97,12.69,20.75,12.69,33.68h.01Z"/>
      <path class="st6" d="M1089.98,1395.44l-136.15-136.15c-36.63-36.63-36.63-96.02,0-132.65l82.08-82.08c36.63-36.63,96.02-36.63,132.65,0l136.15,136.15c18.51,18.51,18.51,48.51,0,67.02l-147.72,147.72c-18.51,18.51-48.51,18.51-67.02,0h.01Z"/>
      <path class="st22" d="M1111.61,1220.84l36.4,36.4c5.11,5.11,13.4,5.11,18.51,0s5.11-13.4,0-18.51l-36.4-36.4c3.09-9.79.78-20.92-6.99-28.69-11.1-11.1-29.1-11.1-40.21,0-11.1,11.1-11.1,29.1,0,40.21,7.76,7.76,18.89,10.08,28.69,6.99Z"/>
      <polygon class="st20" points="2350.83 1793.66 2350.83 1895.58 2340.78 2063.66 2340.52 2068.07 2339.68 2082.19 2339.42 2086.55 2338.57 2100.68 2338.31 2105.08 2337.47 2119.2 2337.2 2123.61 2336.36 2137.73 2336.09 2142.13 2335.25 2156.26 2334.99 2160.66 2332.38 2204.21 2279.41 2204.21 2278.69 2194.1 2278.39 2189.95 2276.3 2160.66 2275.99 2156.26 2274.98 2142.13 2274.66 2137.73 2273.66 2123.61 2273.35 2119.2 2272.34 2105.08 2272.02 2100.68 2271.02 2086.55 2270.71 2082.19 2269.7 2068.07 2269.38 2063.66 2250.77 1802.47 2250.14 1793.66 2350.83 1793.66"/>
      <polygon class="st20" points="2451.53 1793.66 2450.9 1802.47 2432.27 2063.66 2431.96 2068.07 2430.96 2082.19 2430.64 2086.55 2429.63 2100.68 2429.32 2105.08 2428.32 2119.2 2428 2123.61 2426.99 2137.73 2426.68 2142.13 2425.67 2156.26 2425.35 2160.66 2423.27 2189.92 2422.98 2194.06 2422.25 2204.21 2369.28 2204.21 2366.68 2160.66 2366.41 2156.26 2365.58 2142.13 2365.31 2137.73 2364.47 2123.61 2364.2 2119.2 2363.35 2105.08 2363.09 2100.68 2362.25 2086.55 2361.99 2082.19 2361.14 2068.07 2360.88 2063.66 2350.83 1895.58 2350.83 1793.66 2451.53 1793.66"/>
      <path class="st8" d="M2290.39,2190.14c-1.03,0-1.9-.8-1.98-1.85l-25.98-378.45c-.07-1.09.75-2.04,1.84-2.12,1.05-.12,2.04.75,2.12,1.84l25.98,378.45c.07,1.09-.75,2.04-1.84,2.12h-.14Z"/>
      <path class="st8" d="M2376.71,2187.81c-1.05,0-1.92-.82-1.98-1.88l-16.1-292.4c-.06-1.09.78-2.03,1.87-2.09,1.11-.07,2.03.78,2.09,1.87l16.1,292.4c.06,1.09-.78,2.03-1.87,2.09h-.11Z"/>
      <path class="st16" d="M2509.04,1461.62l-11.15,70.26-31.18,244.05-3.37,26.54h-221.01l-1.39-26.54-12.14-232.03-94.7,78.94v-135.98l175.31-187.25h87.75l25.83,10.35c60.54,24.28,96.24,87.24,86.05,151.66h0Z"/>
      <polygon class="st16" points="2507.81 1469.38 2181.21 1723.8 2154.15 1668.68 2343.57 1524.36 2401.18 1351.98 2507.81 1469.38"/>
      <path class="st26" d="M2357.97,1376.6c-31.93,0-57.17-17.71-57.57-17.99-.89-.64-1.09-1.88-.45-2.77.64-.89,1.88-1.1,2.77-.46.59.42,59.38,41.57,109.67-4.86.81-.74,2.06-.69,2.8.11.74.81.69,2.06-.11,2.8-18.99,17.53-39.11,23.15-57.1,23.15v.02Z"/>
      <path class="st8" d="M2355.66,1504.97l1.98-127.46,1.98,127.46c.02,1.1-.86,2-1.95,2.01-1.1.02-2-.86-2.01-1.95v-.06Z"/>
      <path class="st8" d="M2359.63,1773.93c0,1.07-.87,1.98-1.98,1.98-.99.04-.91-1.82-1.79-1.94l1.79-187.6,1.98,187.56h0Z"/>
      <path class="st26" d="M2232.23,1611.18c-.6,0-1.19-.27-1.58-.79-.66-.87-.49-2.12.38-2.78l75.92-57.49c.87-.66,2.12-.49,2.78.38s.49,2.12-.38,2.78l-75.92,57.49c-.36.27-.78.4-1.2.4h0Z"/>
      <path class="st26" d="M2181.21,1725.79c-.15,0-.3-.02-.45-.05-.58-.14-1.07-.52-1.34-1.06l-17.54-35.73c-.48-.98-.07-2.17.91-2.66.98-.47,2.17-.08,2.66.91l16.46,33.54,312.47-243.42c.86-.67,2.11-.52,2.79.35.67.86.52,2.11-.34,2.78l-314.39,244.92c-.35.28-.78.42-1.22.42h0Z"/>
      <path class="st2" d="M2166.77,1662.81s-40.99,28.31-53.86,33.34c-12.88,5.03-8.37,22.02,9.66,16.35l18.03-5.66s-38.63,30.19-54.08,40.89c-6.44,4.46-5.83,8.61-2.94,11.95,5.12,5.9,14.14,6.79,20.87,2.71l88.29-53.45-25.96-46.13h-.01Z"/>
      <polygon class="st14" points="2466.71 1775.93 2463.34 1802.47 2242.34 1802.47 2240.95 1775.93 2466.71 1775.93"/>
      <rect class="st41" x="2375.27" y="2202.45" width="42.09" height="33.23"/>
      <rect class="st41" x="2284.19" y="2202.45" width="42.09" height="33.23"/>
      <path class="st4" d="M2332.9,2295.3h-81.72v-9.52c.08-10.99,5.4-20.75,13.69-27.13,4.4-3.37,7.3-7.78,9.32-12.73,2.18-5.32.99-11.39,2.3-17.02.83-3.61,2.38-7.18,4.76-10.04.87-1.03,1.82-1.98,2.9-2.82,2.7-2.06,5.91-3.29,9.28-3.97,1.71-.36,3.49-.56,5.28-.67,1.39-.04,2.82-.04,4.24,0,4.28.12,8.69.75,12.54,2.42,1.86.75,3.61,1.79,5.12,3.13,4.88,4.28,6.66,10.87,7.97,17.1.32,1.59,1.19,8.49,2.1,17.1,1.23,11.27,2.54,25.47,2.9,34.63.24,5.71.08,9.52-.67,9.52h-.01Z"/>
      <path class="st8" d="M2307.47,2260.15c-.29,0-.58-.06-.85-.19-9.54-4.53-18.83-4.53-28.36,0-.99.47-2.17.05-2.64-.94s-.05-2.17.94-2.64c10.55-5.02,21.23-5.01,31.77,0,.99.47,1.41,1.65.94,2.64-.34.71-1.05,1.13-1.79,1.13h0Z"/>
      <path class="st8" d="M2308.75,2249.13c-.29,0-.58-.06-.85-.19-8.54-4.06-16.86-4.06-25.41,0-.99.46-2.18.05-2.64-.94-.47-.99-.05-2.17.94-2.64,9.57-4.55,19.26-4.55,28.82,0,.99.47,1.41,1.65.94,2.64-.34.71-1.05,1.13-1.79,1.13h-.01Z"/>
      <path class="st8" d="M2308.75,2239.53c-.29,0-.58-.06-.85-.19-6.95-3.31-13.71-3.31-20.66,0-.99.45-2.17.05-2.65-.94-.47-.99-.05-2.17.94-2.65,7.99-3.79,16.09-3.79,24.07,0,.99.47,1.41,1.65.94,2.65-.34.71-1.05,1.13-1.79,1.13Z"/>
      <path class="st8" d="M2310.75,2230.15c-.29,0-.58-.06-.85-.19-8.29-3.94-16.36-3.94-24.65,0-.99.45-2.17.05-2.65-.94-.47-.99-.05-2.17.94-2.64,9.31-4.42,18.75-4.42,28.06,0,.99.47,1.41,1.65.94,2.64-.34.71-1.05,1.13-1.79,1.13Z"/>
      <path class="st8" d="M2298.59,2223.09c-.36-2.22-1.2-5.59-2.48-9.34-.21-.66-.45-1.33-.71-2.02-.9-2.47-1.97-5.05-3.2-7.53-.3-.59-.6-1.18-.91-1.76-2.8-5.24-6.3-9.81-10.32-11.69-.77-.36-1.63-.66-2.59-.81-2.84-.49-6.42.29-10.18,4.52-3.33,3.75-4.45,7.66-3.32,11.62,1.68,5.89,8.39,10.79,15.17,14.35,1.38.73,2.77,1.41,4.13,2.02,1.57.73,3.08,1.37,4.49,1.92,3.91,1.55,6.89,2.47,7.49,2.65h.03s.03,0,.04.02c.18.05.38.08.56.08.24,0,.48-.04.7-.13.13-.04.25-.1.37-.18.41-.26.71-.67.84-1.14.03-.09.04-.16.05-.25.07-.44,0-1.26-.16-2.35v.02ZM2284.19,2218.09c-.5-.25-1.02-.5-1.52-.76-6.49-3.31-12.62-7.63-13.96-12.34-.74-2.6.06-5.19,2.47-7.89,2.31-2.6,4.22-3.32,5.74-3.32.67,0,1.26.14,1.77.32.15.05.28.1.42.16,2.75,1.19,5.34,4.33,7.6,8.18.33.57.67,1.16.98,1.76,1.43,2.67,2.7,5.56,3.76,8.33,1.46,3.84,2.53,7.41,3.04,9.78-2.9-1-6.6-2.44-10.3-4.23h0Z"/>
      <path class="st8" d="M2322.19,2191.03c-5.54-5.13-10.17-4.16-13.07-2.44-4.1,2.43-7.3,7.89-9.62,13.86-.23.58-.45,1.17-.66,1.76-.88,2.46-1.61,4.97-2.21,7.36-.19.73-.36,1.47-.51,2.18-.88,3.96-1.34,7.4-1.39,9.45-.03.74,0,1.31.09,1.64.14.56.51,1.03,1.03,1.28.28.15.59.22.9.22.26,0,.5-.05.74-.15.12-.05.56-.22,1.22-.51,1.02-.44,2.58-1.15,4.47-2.09h0c4.07-2.02,9.61-5.08,14.3-8.83,3.91-3.12,7.23-6.71,8.62-10.55.07-.18.13-.36.18-.54.15-.46.26-.92.35-1.39.74-4.05-.76-7.83-4.44-11.24h0ZM2313.28,2212.98h0c-4.81,3.51-10.46,6.48-14.51,8.34.28-2.39.97-6.02,2.05-9.95h0c.63-2.35,1.41-4.8,2.31-7.16.23-.6.47-1.19.71-1.76,2-4.78,4.53-8.92,7.49-10.55.67-.38,1.53-.73,2.6-.73,1.44,0,3.27.65,5.57,2.78,2.66,2.46,3.72,4.95,3.23,7.61-.05.3-.13.59-.21.89-.18.59-.42,1.17-.73,1.76-1.59,3.06-4.79,6.07-8.51,8.77h0Z"/>
      <path class="st4" d="M2450.37,2285.78v9.52h-81.72c-.75,0-.91-3.81-.67-9.52.36-9.16,1.67-23.37,2.9-34.63.91-8.61,1.78-15.51,2.1-17.1,1.27-6.23,3.09-12.81,7.97-17.1,1.51-1.31,3.21-2.34,5.08-3.13,3.85-1.67,8.25-2.3,12.54-2.42,1.43-.04,2.86-.04,4.24,0,1.82.12,3.57.32,5.32.67,3.37.67,6.59,1.9,9.28,3.97,1.07.83,2.02,1.79,2.9,2.82,2.38,2.86,3.93,6.43,4.76,10.04,1.31,5.63.12,11.7,2.3,17.02,2.02,4.96,4.92,9.36,9.28,12.73,8.33,6.39,13.65,16.15,13.73,27.13h-.01Z"/>
      <path class="st8" d="M2424.14,2260.15c-.29,0-.58-.06-.85-.19-9.54-4.53-18.82-4.53-28.36,0-.99.47-2.18.05-2.64-.94-.47-.99-.05-2.17.94-2.64,10.54-5.01,21.23-5.01,31.77,0,.99.47,1.41,1.65.94,2.64-.34.71-1.05,1.13-1.79,1.13h0Z"/>
      <path class="st8" d="M2419.91,2249.13c-.29,0-.58-.06-.85-.19-8.55-4.06-16.87-4.06-25.41,0-.99.46-2.18.05-2.64-.94-.47-.99-.05-2.17.94-2.64,9.56-4.55,19.25-4.55,28.82,0,.99.47,1.41,1.65.94,2.64-.34.71-1.05,1.13-1.79,1.13h-.01Z"/>
      <path class="st8" d="M2415.16,2239.53c-.29,0-.58-.06-.85-.19-6.95-3.31-13.71-3.31-20.66,0-.99.45-2.17.05-2.65-.94-.47-.99-.05-2.17.94-2.65,7.99-3.79,16.09-3.79,24.07,0,.99.47,1.41,1.65.94,2.65-.34.71-1.05,1.13-1.79,1.13Z"/>
      <path class="st8" d="M2417.16,2230.15c-.29,0-.58-.06-.85-.19-8.29-3.94-16.36-3.94-24.65,0-.99.45-2.18.05-2.65-.94s-.05-2.17.94-2.64c9.31-4.42,18.75-4.42,28.06,0,.99.47,1.41,1.65.94,2.64-.34.71-1.05,1.13-1.79,1.13Z"/>
      <path class="st8" d="M2433.33,2194.47c-3.71-4.17-7.24-4.98-10.06-4.55-1,.15-1.91.46-2.71.84-4.02,1.88-7.52,6.45-10.32,11.69-.31.58-.62,1.17-.91,1.76-1.22,2.48-2.3,5.06-3.2,7.53-.25.68-.48,1.35-.71,2.01-1.26,3.76-2.11,7.13-2.47,9.35-.17,1.09-.23,1.91-.16,2.35,0,.09.03.16.05.25.13.47.43.87.84,1.14.12.08.24.14.37.18.22.09.46.13.7.13.19,0,.38-.03.56-.08.02,0,.03,0,.04-.02h.03c.6-.18,3.58-1.09,7.49-2.65,1.4-.56,2.91-1.2,4.49-1.92,1.36-.62,2.74-1.29,4.13-2.02,6.78-3.56,13.48-8.46,15.17-14.35,1.13-3.96,0-7.87-3.32-11.62v-.02ZM2432.84,2204.99c-1.34,4.71-7.48,9.03-13.96,12.34-.5.26-1.02.51-1.52.76-3.7,1.79-7.41,3.23-10.3,4.23.51-2.38,1.58-5.95,3.04-9.78,1.06-2.77,2.33-5.66,3.76-8.33.32-.6.64-1.19.98-1.76,2.26-3.85,4.85-7,7.6-8.18.17-.07.35-.15.54-.2.49-.16,1.03-.28,1.65-.28,1.52,0,3.43.73,5.74,3.32,2.41,2.71,3.21,5.3,2.47,7.89h0Z"/>
      <path class="st8" d="M2406.82,2223.2c-.06-2.05-.52-5.49-1.4-9.46-.15-.7-.32-1.43-.51-2.16-.59-2.39-1.32-4.9-2.2-7.37-.21-.59-.44-1.18-.66-1.76-2.33-5.97-5.52-11.42-9.62-13.86-2.91-1.72-7.54-2.68-13.07,2.44-3.69,3.41-5.19,7.19-4.44,11.24.09.47.21.93.35,1.39.05.18.11.36.18.54,1.39,3.85,4.72,7.44,8.63,10.56,4.7,3.75,10.24,6.82,14.29,8.83,1.9.94,3.46,1.65,4.48,2.09.67.29,1.1.46,1.22.51.23.09.49.15.74.15.31,0,.62-.08.9-.22.51-.26.89-.73,1.03-1.28.09-.33.12-.9.09-1.64h-.01ZM2388.26,2212.98h-.02c-3.71-2.72-6.9-5.72-8.48-8.77-.31-.59-.55-1.17-.73-1.76-.09-.3-.16-.59-.21-.89-.49-2.67.57-5.15,3.23-7.61,2.3-2.13,4.13-2.78,5.57-2.78,1.06,0,1.92.35,2.6.73,2.96,1.63,5.49,5.77,7.5,10.55.24.57.48,1.16.71,1.76.89,2.36,1.67,4.81,2.31,7.16,1.08,3.93,1.77,7.56,2.05,9.95-4.05-1.85-9.71-4.84-14.52-8.34h-.01Z"/>
      <path class="st5" d="M2333.58,2285.78c.24,5.71.08,9.52-.67,9.52h-81.72v-9.52h82.4-.01Z"/>
      <path class="st5" d="M2450.37,2285.78v9.52h-81.72c-.75,0-.91-3.81-.67-9.52h82.4-.01Z"/>
      <ellipse class="st2" cx="2357.94" cy="1270.44" rx="52.81" ry="56.75" transform="translate(-315.26 1103.41) rotate(-24.74)"/>
      <path class="st29" d="M2389.11,1253.24c-3.49,2.86-4.73,8.14-2.87,12.25-2.96,2.97-8.32.37-10.29-3.34-1.97-3.7-2.15-8.17-4.15-11.86-3.03-5.59-9.8-8.33-16.16-8.29-6.36.04-12.46,2.39-18.35,4.78-5.9,2.39-11.9,4.88-18.25,5.26-11.34.67-22.19-5.68-29.7-14.2-7.51-8.53-12.25-19.08-16.87-29.46,13.84-1.61,26.77-7.45,39.94-11.98,17.39-5.98,35.8-9.78,54.13-8.38,18.33,1.41,36.63,8.4,49.47,21.56,6.91,7.08,12.2,16.1,13.26,25.94.95,8.79-2.65,25.47-13.84,26.36-10.12.8-15.11-17.82-26.31-8.65h0Z"/>
      <path class="st29" d="M2342.7,1278.38c1.38,3.83.6,7.62-1.74,8.47s-5.36-1.57-6.75-5.41c-1.38-3.83-.6-7.62,1.74-8.47s5.36,1.57,6.75,5.41Z"/>
      <path class="st29" d="M2340.61,1269.43c.61-1.11-.21-2.58-1.37-3.09-1.16-.51-2.5-.31-3.74-.03-2.56.58-5.09,1.48-7.2,3.04-1.24.92-2.85,2.36-3.25,3.87,1.1.1,2.14-.98,3.08-1.49,1.29-.71,2.66-1.27,4.07-1.68,1.41-.41,2.87-.67,4.34-.77.38-.03,4.05.22,4.09.16h-.02Z"/>
      <path class="st29" d="M2366.42,1274.27c1.38,3.83.6,7.62-1.74,8.47s-5.36-1.57-6.75-5.41c-1.38-3.83-.6-7.62,1.74-8.47s5.36,1.57,6.75,5.41Z"/>
      <path class="st29" d="M2351.83,1267.44c-1.08-.67-1.08-2.35-.32-3.37.76-1.01,2.03-1.5,3.25-1.86,2.51-.75,5.16-1.21,7.76-.88,1.53.19,3.65.66,4.73,1.77-.91.63-2.34.2-3.41.21-1.47.02-2.94.2-4.37.53-1.43.33-2.83.82-4.16,1.46-.34.17-3.42,2.18-3.48,2.14Z"/>
      <path class="st29" d="M2350.92,1279.87c1.41,3.87,2.6,7.81,3.68,11.77l.4,1.49c.08.39.24.45.48.53.13,0,.18.02.38-.08l.7-.33,1.41-.63c1.89-.8,3.79-1.59,5.78-2.2-1.7,1.2-3.48,2.22-5.27,3.23l-1.36.73-.69.35c-.26.15-.73.28-1.11.22-.8-.04-1.49-.86-1.56-1.5l-.37-1.49c-.96-3.99-1.82-8.01-2.45-12.08h-.02Z"/>
      <path class="st29" d="M2351.03,1303.75h-.14c-.54-.02-.97-.47-.95-1.02.02-.54.44-.98,1.01-.96.08.01,7.49.13,16.17-7.12.42-.35,1.04-.29,1.39.12.35.42.29,1.04-.13,1.39-8.73,7.29-16.22,7.59-17.35,7.59Z"/>
      <path class="st12" d="M2389.41,1257.6c1.28-2.21,3.94-3.54,6.47-3.24,2.45.3,4.56,1.98,5.91,4.04,1.35,2.06,2.03,4.48,2.56,6.89.56,2.56.99,5.2.61,7.79s-1.65,5.16-3.85,6.57c-2.2,1.41-5.4,1.39-7.26-.46-1.27-1.26-1.75-3.09-2.18-4.82-.79-3.19-5.21-13.84-2.27-16.78h.01Z"/>
      <path class="st29" d="M2396.39,1262.98c-1.63.65-2.65,1.94-3.31,3.21-.51-2.38-.68-4.63-.06-6.05.29-.67.72-1.08,1.36-1.29.52-.17.8-.73.63-1.25-.17-.52-.74-.8-1.26-.63-1.18.39-2.04,1.19-2.55,2.39-2.17,5.01,2.63,15.68,3.19,16.88.17.36.52.58.9.58.14,0,.28-.03.41-.09.5-.23.72-.82.48-1.32-.57-1.24-1.45-3.42-2.2-5.81.15-.83.84-3.85,3.14-4.77.51-.2.76-.78.55-1.29s-.79-.76-1.29-.55h.01Z"/>
      <path class="st37" d="M2289.9,1307.33c-1.21,7.56,2.27,15.34,7.68,20.75,5.42,5.41,12.56,8.77,19.81,11.25s14.75,4.2,21.91,6.92c7.16,2.73,14.1,6.6,18.94,12.54,8.19-10.19,7.91-26.24-.64-36.14-4.93-5.71-11.89-9.19-18.66-12.52-10.38-5.11-20.73-11.35-31.37-15.77-8.02-3.33-16.77,4.96-17.66,12.97h-.01Z"/>
      <path class="st37" d="M2430.6,1307.33c1.21,7.56-2.27,15.34-7.68,20.75-5.42,5.41-12.56,8.77-19.81,11.25s-14.75,4.2-21.91,6.92c-7.16,2.73-18.14,6.6-22.97,12.54-8.19-10.19-3.87-26.24,4.67-36.14,4.93-5.71,11.89-9.19,18.66-12.52,10.38-5.11,20.73-11.35,31.37-15.77,8.02-3.33,16.77,4.96,17.66,12.97h.01Z"/>
      <path class="st8" d="M2269.7,2068.07h-316.8c-1.23,0-2.22-.99-2.22-2.22v-25.16c0-1.2.99-2.19,2.22-2.19s2.18.99,2.18,2.19v22.97h314.31l.32,4.41h-.01Z"/>
      <path class="st8" d="M2826.13,1885.24v180.6c0,1.23-.99,2.22-2.18,2.22h-391.99l.32-4.41h389.45v-178.41c0-1.23.99-2.18,2.22-2.18s2.18.95,2.18,2.18h0Z"/>
      <path class="st8" d="M2271.02,2086.55h-336.65c-1.23,0-2.22-.96-2.22-2.19v-43.68c0-1.2.99-2.19,2.22-2.19s2.19.99,2.19,2.19v41.5h334.15l.31,4.37h0Z"/>
      <path class="st8" d="M2844.66,1885.24v199.12c0,1.23-.99,2.19-2.19,2.19h-411.83l.32-4.37h409.29v-196.94c0-1.23.99-2.18,2.22-2.18s2.19.95,2.19,2.18h0Z"/>
      <path class="st8" d="M2272.34,2105.08h-358.68v-64.39c0-1.23.96-2.19,2.19-2.19s2.18.96,2.18,2.19v59.99h354l.32,4.4h-.01Z"/>
      <path class="st8" d="M2863.18,1885.24v219.83h-433.86l.32-4.4h429.15v-215.43c0-1.23,1.03-2.18,2.18-2.18,1.27,0,2.22.95,2.22,2.18h0Z"/>
      <path class="st8" d="M2273.66,2123.61h-378.52v-82.92c0-1.23.95-2.19,2.18-2.19s2.22.96,2.22,2.19v78.51h373.81l.31,4.41h0Z"/>
      <path class="st8" d="M2881.71,1885.24v238.36h-453.71l.32-4.41h448.99v-233.95c0-1.23.99-2.18,2.19-2.18s2.22.95,2.22,2.18h-.01Z"/>
      <path class="st8" d="M2274.98,2142.13h-398.37v-101.45c0-1.23.95-2.19,2.18-2.19s2.22.96,2.22,2.19v97.05h393.65l.32,4.4Z"/>
      <path class="st8" d="M2900.24,1885.24v256.89h-473.56l.32-4.4h468.84v-252.49c0-1.23.99-2.18,2.18-2.18s2.22.95,2.22,2.18Z"/>
      <path class="st8" d="M2276.3,2160.66h-417.83c-.26-.35-.4-.79-.4-1.27v-118.69c0-1.23.97-2.2,2.2-2.2s2.2.97,2.2,2.2v115.57h413.51l.32,4.4h0Z"/>
      <path class="st8" d="M2918.76,1885.24v274.14c0,.48-.15.91-.39,1.26h-493.01l.32-4.4h488.69v-271.01c0-1.23.99-2.18,2.18-2.18s2.22.95,2.22,2.18h-.01Z"/>
      <path class="st8" d="M3081.63,1149.17c-43.06,0-78.09,35.03-78.09,78.09,0,31.94,19.27,59.45,46.78,71.53,3.66,1.61,7.47,2.96,11.39,3.99,4.51,1.19,9.18,1.98,13.96,2.34,1.96.15,3.95.23,5.95.23s3.98-.08,5.95-.23c4.79-.36,9.47-1.15,13.98-2.35,3.92-1.03,7.73-2.37,11.39-3.98,27.51-12.08,46.78-39.6,46.78-71.53,0-43.06-35.03-78.09-78.09-78.09h0ZM3081.63,1289.48c-34.31,0-62.22-27.91-62.22-62.22s27.91-62.22,62.22-62.22,62.22,27.91,62.22,62.22-27.91,62.22-62.22,62.22Z"/>
      <path class="st8" d="M3055.76,1471.69c-3.29,0-5.95-2.66-5.95-5.95v-164.55c0-3.29,2.67-5.95,5.95-5.95s5.95,2.66,5.95,5.95v164.55c0,3.29-2.67,5.95-5.95,5.95Z"/>
      <path class="st8" d="M3081.63,1471.69c-3.29,0-5.95-2.66-5.95-5.95v-164.55c0-3.29,2.67-5.95,5.95-5.95s5.95,2.66,5.95,5.95v164.55c0,3.29-2.67,5.95-5.95,5.95Z"/>
      <path class="st8" d="M3107.5,1471.69c-3.29,0-5.95-2.66-5.95-5.95v-164.55c0-3.29,2.67-5.95,5.95-5.95s5.95,2.66,5.95,5.95v164.55c0,3.29-2.67,5.95-5.95,5.95Z"/>
      <path class="st8" d="M2762.38,1957.76c-10.47,0-19.97,4.18-26.95,10.94-1.26,1.23-2.44,2.54-3.53,3.92-4.78,6.1-7.78,13.66-8.2,21.9-.03.66-.05,1.32-.05,1.98s.02,1.32.05,1.98c.42,8.24,3.42,15.81,8.2,21.91,1.09,1.39,2.27,2.7,3.54,3.91,6.98,6.78,16.49,10.94,26.95,10.94,21.37,0,38.74-17.38,38.74-38.74s-17.38-38.74-38.74-38.74h-.01ZM2762.38,2019.37c-12.61,0-22.87-10.26-22.87-22.87s10.26-22.87,22.87-22.87,22.88,10.26,22.88,22.87-10.27,22.87-22.88,22.87Z"/>
      <path class="st8" d="M2734.97,1972.62h-164.54c-1.1,0-1.98-.89-1.98-1.98s.89-1.98,1.98-1.98h164.54c1.1,0,1.98.89,1.98,1.98s-.89,1.98-1.98,1.98Z"/>
      <path class="st8" d="M2734.97,1998.48h-164.54c-1.1,0-1.98-.89-1.98-1.98s.89-1.98,1.98-1.98h164.54c1.1,0,1.98.89,1.98,1.98s-.89,1.98-1.98,1.98Z"/>
      <path class="st8" d="M2734.97,2024.35h-164.54c-1.1,0-1.98-.89-1.98-1.98s.89-1.98,1.98-1.98h164.54c1.1,0,1.98.89,1.98,1.98s-.89,1.98-1.98,1.98Z"/>
      <path class="st8" d="M1862.94,1281.47c-7.73,0-14.83,2.76-20.36,7.36-1.36,1.13-2.62,2.37-3.77,3.7-4.43,5.13-7.26,11.67-7.7,18.85-.05.66-.07,1.32-.07,1.98s.02,1.32.07,1.98c.44,7.18,3.26,13.72,7.7,18.85,1.14,1.33,2.41,2.57,3.77,3.7,5.53,4.6,12.63,7.36,20.36,7.36,17.59,0,31.9-14.3,31.9-31.89s-14.31-31.89-31.9-31.89h0ZM1862.94,1333.35c-11.02,0-19.99-8.96-19.99-19.99s8.97-19.99,19.99-19.99,20,8.97,20,19.99-8.97,19.99-20,19.99Z"/>
      <path class="st8" d="M1841.59,1292.53h-145.11c-1.1,0-1.98-.89-1.98-1.98s.89-1.98,1.98-1.98h145.11c1.1,0,1.98.89,1.98,1.98s-.89,1.98-1.98,1.98Z"/>
      <path class="st8" d="M1839.08,1315.35h-142.6c-1.1,0-1.98-.89-1.98-1.98s.89-1.98,1.98-1.98h142.6c1.1,0,1.98.89,1.98,1.98s-.89,1.98-1.98,1.98Z"/>
      <path class="st8" d="M1841.59,1338.16h-145.11c-1.1,0-1.98-.89-1.98-1.98s.89-1.98,1.98-1.98h145.11c1.1,0,1.98.89,1.98,1.98s-.89,1.98-1.98,1.98Z"/>
    </g>
  </g>
</svg>