<svg xmlns="http://www.w3.org/2000/svg" width="430" height="430" style="width:100%;height:100%;transform:translate3d(0,0,0);content-visibility:visible" viewBox="0 0 430 430"><defs><clipPath id="p"><path d="M0 0h430v430H0z"/></clipPath><clipPath id="C"><path d="M0 0h430v430H0z"/></clipPath><clipPath id="j"><path d="M0 0h430v430H0z"/></clipPath><clipPath id="z"><path d="M0 0h430v430H0z"/></clipPath><clipPath id="l"><path d="M0 0h430v430H0z"/></clipPath><clipPath id="w"><path d="M0 0h430v430H0z"/></clipPath><clipPath id="m"><path d="M0 0h430v430H0z"/></clipPath><clipPath id="t"><path d="M0 0h430v430H0z"/></clipPath><clipPath id="n"><path d="M0 0h430v430H0z"/></clipPath><clipPath id="q"><path d="M0 0h430v430H0z"/></clipPath><clipPath id="o"><path d="M0 0h430v430H0z"/></clipPath><filter id="D" width="300%" height="300%" x="-100%" y="-100%"><feGaussianBlur result="filter_result_0"/></filter><filter id="A" width="300%" height="300%" x="-100%" y="-100%"><feGaussianBlur result="filter_result_0"/></filter><filter id="x" width="300%" height="300%" x="-100%" y="-100%"><feGaussianBlur result="filter_result_0"/></filter><filter id="u" width="300%" height="300%" x="-100%" y="-100%"><feGaussianBlur result="filter_result_0"/></filter><filter id="s" width="300%" height="300%" x="-100%" y="-100%"><feGaussianBlur result="filter_result_0" stdDeviation="52.5 52.5"/></filter><mask id="E" mask-type="alpha"><use xmlns:ns1="http://www.w3.org/1999/xlink" ns1:href="#a"/></mask><mask id="B" mask-type="alpha"><use xmlns:ns2="http://www.w3.org/1999/xlink" ns2:href="#b"/></mask><mask id="y" mask-type="alpha"><use xmlns:ns3="http://www.w3.org/1999/xlink" ns3:href="#d"/></mask><mask id="v" mask-type="alpha"><use xmlns:ns4="http://www.w3.org/1999/xlink" ns4:href="#f"/></mask><mask id="r" mask-type="alpha"><use xmlns:ns5="http://www.w3.org/1999/xlink" ns5:href="#h"/></mask><g id="a" clip-path="url(#j)" style="display:none"><g fill-opacity="0" stroke-linecap="round" stroke-linejoin="round" style="display:none"><path class="primary"/><path class="secondary"/></g><g style="display:none"><path fill-opacity="0" stroke-linecap="round" stroke-linejoin="round" class="primary"/><path fill-opacity="0" stroke-linecap="round" stroke-linejoin="round" class="secondary"/><path/><path fill-opacity="0" stroke-linecap="round" stroke-linejoin="round" class="primary"/></g></g><g id="b" clip-path="url(#l)" style="display:none"><g fill-opacity="0" stroke-linecap="round" stroke-linejoin="round" style="display:none"><path class="primary"/><path class="secondary"/></g><g style="display:none"><path fill-opacity="0" stroke-linecap="round" stroke-linejoin="round" class="primary"/><path fill-opacity="0" stroke-linecap="round" stroke-linejoin="round" class="secondary"/><path/><path fill-opacity="0" stroke-linecap="round" stroke-linejoin="round" class="primary"/></g></g><g id="d" clip-path="url(#m)" style="display:none"><g fill-opacity="0" stroke-linecap="round" stroke-linejoin="round" style="display:none"><path class="primary"/><path class="secondary"/></g><g style="display:none"><path fill-opacity="0" stroke-linecap="round" stroke-linejoin="round" class="primary"/><path fill-opacity="0" stroke-linecap="round" stroke-linejoin="round" class="secondary"/><path/><path fill-opacity="0" stroke-linecap="round" stroke-linejoin="round" class="primary"/></g></g><g id="f" clip-path="url(#n)" style="display:none"><g fill-opacity="0" stroke-linecap="round" stroke-linejoin="round" style="display:none"><path class="primary"/><path class="secondary"/></g><g style="display:none"><path fill-opacity="0" stroke-linecap="round" stroke-linejoin="round" class="primary"/><path fill-opacity="0" stroke-linecap="round" stroke-linejoin="round" class="secondary"/><path/><path fill-opacity="0" stroke-linecap="round" stroke-linejoin="round" class="primary"/></g></g><g id="h" clip-path="url(#o)" style="display:block"><g fill-opacity="0" stroke-linecap="round" stroke-linejoin="round" stroke-width="12" style="display:block"><path stroke="#121331" d="m276.428 138.203-.001 3.135-.012 30.454c-.013 33.806-27.436 61.209-61.242 61.196l-1.494-.001c-33.806-.013-61.209-27.436-61.196-61.242l.012-30.028" class="primary"/><path stroke="#08A88A" d="M276.427 141.337s2.631-39.607-37.966-60.796c0 0-12.41 46.017-89.867 62.026 0 0-26.524-78.203 6.644-97.18 3.715-2.125 9.811-1.906 13.415.404 5.06 3.24 10.133 8.523 13.332 11.249 2.428 2.07 5.54 3.173 8.727 3.018 4.393-.213 10.477-1.47 16.485-4.69 48.059-19.08 76.824 2.91 76.227 31.417-.555 26.526 2.471 48.577-6.997 54.552" class="secondary"/></g><g style="display:block"><path fill-opacity="0" stroke="#121331" stroke-linecap="round" stroke-linejoin="round" stroke-width="12" d="M180.871 223.457v19.742c0 17.469 14.168 31.636 31.637 31.636H215c17.469 0 31.637-14.167 31.637-31.636v-18.902" class="primary"/><path fill-opacity="0" stroke="#08A88A" stroke-linecap="round" stroke-linejoin="round" stroke-width="8" d="M247.633 327.762q0 0 0 0c0-10.129 1.036-18.341 2.313-18.341h.244c.546.017 2.381 1.34 6.007 5.086q9.748-9.528 19.492 0c3.627-3.746 5.461-5.069 6.007-5.086h.244c1.277 0 2.313 8.212 2.313 18.341q0 0 0 0v-1.111 2.242c0 8.943-7.249 16.192-16.192 16.192h-4.235c-8.943 0-16.192-7.249-16.192-16.192v-2.242" class="secondary"/><path fill="red" d="M247.633 327.762c0-10.129 1.036-18.341 2.313-18.341h.244c.546.017 2.381 1.34 6.007 5.086q9.748-9.528 19.492 0c3.627-3.746 5.461-5.069 6.007-5.086h.244c1.277 0 2.313 8.212 2.313 18.341v-1.111 2.242c0 8.943-7.249 16.192-16.192 16.192h-4.235c-8.943 0-16.192-7.249-16.192-16.192v-2.242"/><path fill-opacity="0" stroke="#121331" stroke-linecap="round" stroke-linejoin="round" stroke-width="12" d="m249.128 243.199 8.968.498c43.48 0 78.719 35.239 78.719 78.719v31.512c0 8.459-6.861 15.32-15.32 15.32h-19.431c-38.487 2.989-37.994 16.815-70.166 16.815h-33.796c-32.172 0-31.679-13.826-70.166-16.815h-19.43c-8.459 0-15.321-6.861-15.321-15.32v-31.512c0-43.48 35.239-78.719 78.719-78.719l8.968-.498" class="primary"/></g></g></defs><g clip-path="url(#p)"><g clip-path="url(#q)" mask="url(#r)" style="display:block"><g filter="url(#s)" transform="rotate(-94.135 228.285 -27.265)scale(2.4)"><g class="design"><path fill="#E82F8B" d="M0-250c137.975 0 250 112.025 250 250S137.975 250 0 250-250 137.975-250 0-137.975-250 0-250" class="primary"/></g><g class="design"><path fill="#402FE8" d="M113.242-295.384c97.478 0 176.5 79.022 176.5 176.5s-79.022 176.5-176.5 176.5c-43.948 0-74.396-34.057-105.29-60.631-37.631-32.369-71.21-62.338-71.21-115.869 0-97.478 79.022-176.5 176.5-176.5" class="secondary"/></g></g></g><g clip-path="url(#t)" filter="url(#u)" mask="url(#v)" style="display:none"><g class="design"><path class="primary"/></g><g class="design"><path class="secondary"/></g></g><g clip-path="url(#w)" filter="url(#x)" mask="url(#y)" style="display:none"><g class="design"><path class="primary"/></g><g class="design"><path class="secondary"/></g></g><g clip-path="url(#z)" filter="url(#A)" mask="url(#B)" style="display:none"><g class="design"><path class="primary"/></g><g class="design"><path class="secondary"/></g></g><g clip-path="url(#C)" filter="url(#D)" mask="url(#E)" style="display:none"><g class="design"><path class="primary"/></g><g class="design"><path class="secondary"/></g></g></g></svg>