<?xml version="1.0" encoding="UTF-8"?>
<svg id="Layer_1" xmlns="http://www.w3.org/2000/svg" version="1.1" viewBox="0 0 483.9 500">
  <!-- Generator: Adobe Illustrator 29.5.0, SVG Export Plug-In . SVG Version: 2.1.0 Build 137)  -->
  <path d="M478.7,323.6l-167.7,167.6c-5.6,5.6-13.2,8.8-21.2,8.8H48.2c-9.9,0-18-8-18-18v-85.4c0-9.9,8-18,18-18h296.2c16,0,24-19.3,12.7-30.6l-93.9-93.9c-7-7-7-18.4,0-25.4l60.4-60.4c7-7,18.4-7,25.4,0l129.8,129.8c7,7,7,18.4,0,25.4Z"/>
  <path d="M5.3,176.4L172.9,8.8c5.6-5.6,13.2-8.8,21.2-8.8h241.7c9.9,0,18,8,18,18v85.4c0,9.9-8,18-18,18H139.6c-16,0-24,19.3-12.7,30.6l93.9,93.9c7,7,7,18.4,0,25.4l-60.4,60.4c-7,7-18.4,7-25.4,0L5.3,201.8c-7-7-7-18.4,0-25.4Z"/>
</svg>