<?xml version="1.0" encoding="UTF-8"?>
<svg id="Layer_1" xmlns="http://www.w3.org/2000/svg" version="1.1" viewBox="0 0 1961.1 500">
  <!-- Generator: Adobe Illustrator 29.5.0, SVG Export Plug-In . SVG Version: 2.1.0 Build 137)  -->
  <path d="M140.3,500c-19.6,0-40.4-2.1-62.2-6.2-21.9-4.1-41.5-11.2-58.8-21.2-9.6-5.5-15.5-12.2-17.8-20.2-2.3-8-1.9-15.5,1-22.6,3-7.1,8-12.2,15-15.4,7.1-3.2,15.4-2.5,25,2.1,18.2,8.7,35.3,14.7,51.3,18.1,16,3.4,31.7,5.1,47.2,5.1s38.2-3.8,48.9-11.3c10.7-7.5,16.1-17.4,16.1-29.8,0-19.2-14.1-31.5-42.4-36.9l-68.4-13c-57.9-10.9-86.9-41-86.9-90.3s6-40.8,18.1-56.8c12.1-16,28.8-28.3,50.3-36.9,21.4-8.7,46.1-13,73.9-13,40.1,0,75.9,8.9,107.4,26.7,8.7,4.6,13.8,10.8,15.4,18.8,1.6,8,.7,15.5-2.7,22.6-3.4,7.1-8.8,12.1-16.1,15-7.3,3-15.7,2.2-25.3-2.4-14.1-7.3-27.7-12.5-40.7-15.7-13-3.2-25.4-4.8-37.3-4.8-22.3,0-38.9,3.9-49.6,11.6-10.7,7.8-16.1,18-16.1,30.8,0,20.1,13,32.4,39,36.9l68.4,13c29.6,5.5,52.1,15.5,67.4,30.1,15.3,14.6,22.9,34.2,22.9,58.8s-13,59.4-39,78.3c-26,18.9-60.7,28.4-104,28.4Z"/>
  <path d="M504.2,500c-34.7,0-64.8-7.1-90.3-21.2-25.5-14.1-45.4-34.3-59.5-60.5-14.1-26.2-21.2-57.1-21.2-92.7s7.1-66.3,21.2-92.3c14.1-26,34-46.1,59.5-60.2,25.5-14.1,55.6-21.2,90.3-21.2s64.7,7.1,90.3,21.2c25.5,14.1,45.4,34.2,59.5,60.2,14.1,26,21.2,56.8,21.2,92.3s-7.1,66.5-21.2,92.7c-14.1,26.2-34,46.4-59.5,60.5-25.5,14.1-55.6,21.2-90.3,21.2ZM504.2,435c25.5,0,46.1-9.2,61.6-27.7,15.5-18.5,23.3-45.7,23.3-81.7s-7.8-63.7-23.3-81.7c-15.5-18-36-27-61.6-27s-46.1,9-61.6,27c-15.5,18-23.3,45.3-23.3,81.7s7.7,63.3,23.3,81.7c15.5,18.5,36,27.7,61.6,27.7Z"/>
  <path d="M788.1,90.3c-16,0-28.4-4-37.3-12-8.9-8-13.3-19-13.3-33.2s4.4-25.8,13.3-33.5c8.9-7.7,21.3-11.6,37.3-11.6,33.7,0,50.6,15,50.6,45.1s-16.9,45.1-50.6,45.1ZM788.1,497.9c-13.7,0-24.2-4.1-31.5-12.3-7.3-8.2-10.9-19.6-10.9-34.2v-251c0-31,14.1-46.5,42.4-46.5s43.1,15.5,43.1,46.5v251c0,14.6-3.7,26-10.9,34.2-7.3,8.2-18,12.3-32.1,12.3Z"/>
  <path d="M1042.5,500c-19.6,0-40.4-2.1-62.2-6.2-21.9-4.1-41.5-11.2-58.8-21.2-9.6-5.5-15.5-12.2-17.8-20.2-2.3-8-1.9-15.5,1-22.6,3-7.1,8-12.2,15-15.4,7.1-3.2,15.4-2.5,25,2.1,18.2,8.7,35.3,14.7,51.3,18.1,16,3.4,31.7,5.1,47.2,5.1s38.2-3.8,48.9-11.3c10.7-7.5,16.1-17.4,16.1-29.8,0-19.2-14.1-31.5-42.4-36.9l-68.4-13c-57.9-10.9-86.9-41-86.9-90.3s6-40.8,18.1-56.8c12.1-16,28.8-28.3,50.3-36.9,21.4-8.7,46.1-13,73.9-13,40.1,0,75.9,8.9,107.4,26.7,8.7,4.6,13.8,10.8,15.4,18.8,1.6,8,.7,15.5-2.7,22.6-3.4,7.1-8.8,12.1-16.1,15-7.3,3-15.7,2.2-25.3-2.4-14.1-7.3-27.7-12.5-40.7-15.7-13-3.2-25.4-4.8-37.3-4.8-22.3,0-38.9,3.9-49.6,11.6-10.7,7.8-16.1,18-16.1,30.8,0,20.1,13,32.4,39,36.9l68.4,13c29.6,5.5,52.1,15.5,67.4,30.1,15.3,14.6,22.9,34.2,22.9,58.8s-13,59.4-39,78.3c-26,18.9-60.7,28.4-104,28.4Z"/>
  <path d="M1296.3,498.6c-28.3,0-42.4-14.6-42.4-43.8V48.6c0-28.7,14.1-43.1,42.4-43.1s43.1,14.4,43.1,43.1v158.7c11.4-18.2,26.7-32,45.8-41.4,19.2-9.3,40.4-14,63.6-14,78.9,0,118.3,45.8,118.3,137.5v165.5c0,29.2-14.1,43.8-42.4,43.8s-43.1-14.6-43.1-43.8v-161.4c0-26-4.9-44.9-14.7-56.8-9.8-11.9-25-17.8-45.5-17.8s-45,7.9-59.8,23.6c-14.8,15.7-22.2,36.6-22.2,62.6v149.8c0,29.2-14.4,43.8-43.1,43.8Z"/>
  <path d="M1775.1,500c-82.1,0-123.1-46.1-123.1-138.2v-165.5c0-28.7,14.1-43.1,42.4-43.1s43.1,14.4,43.1,43.1v166.9c0,23.7,4.8,41.3,14.4,52.7,9.6,11.4,24.8,17.1,45.8,17.1s41.5-7.9,56.1-23.6c14.6-15.7,21.9-36.6,21.9-62.6v-150.5c0-28.7,14.1-43.1,42.4-43.1s43.1,14.4,43.1,43.1v258.5c0,29.2-13.9,43.8-41.7,43.8s-41.7-14.6-41.7-43.8v-11.6c-22.3,37.9-56.5,56.8-102.6,56.8Z"/>
</svg>